<?xml version="1.0" encoding="utf-8"?>
<!-- Generator: Adobe Illustrator 22.0.0, SVG Export Plug-In . SVG Version: 6.00 Build 0)  -->
<svg version="1.1" id="Layer_1" xmlns="http://www.w3.org/2000/svg" xmlns:xlink="http://www.w3.org/1999/xlink" x="0px" y="0px"
	 viewBox="0 0 200 200" style="enable-background:new 0 0 200 200;" xml:space="preserve">
<style type="text/css">
	.st0{fill:#F6F6F6;stroke:#D1D1D1;stroke-width:1.3506;stroke-miterlimit:10;}
	.st1{fill:#F6F6F6;}
	.st2{fill:#D1D1D1;}
	.st3{fill:none;stroke:#F68C28;stroke-width:1.3506;stroke-miterlimit:10;}
	.st4{fill:#F68C28;}
</style>
<g>
	<circle class="st0" cx="100" cy="100" r="96.2"/>
	<g>
		<circle class="st1" cx="100.7" cy="100.6" r="96.2"/>
		<path class="st2" d="M100.7,197.5c-53.4,0-96.9-43.5-96.9-96.9c0-53.4,43.5-96.9,96.9-96.9c53.4,0,96.9,43.5,96.9,96.9
			C197.5,154.1,154.1,197.5,100.7,197.5z M100.7,5.1C48,5.1,5.1,48,5.1,100.6c0,52.7,42.9,95.5,95.5,95.5
			c52.7,0,95.5-42.9,95.5-95.5C196.2,48,153.3,5.1,100.7,5.1z"/>
	</g>
	<g>
		<path class="st3" d="M145.9,133.9c0,8.8-7.2,16-16,16H68.1c-8.9,0-16-7.2-16-16V72.2c0-8.8,7.2-16,16-16h61.7c8.8,0,16,7.2,16,16
			V133.9z"/>
		<g>
			<g>
				<g>
					<path class="st4" d="M77.7,95.4c1.5,0,2.8,1,3.1,2.4l2-2c-1-1.8-2.9-3-5.1-3c-2.2,0-4.1,1.2-5.1,3l2,2
						C75,96.4,76.2,95.4,77.7,95.4z"/>
					<path class="st4" d="M77.7,89.9c3,0,5.6,1.5,7.2,3.8l1.9-1.9c-2.1-2.8-5.4-4.6-9.1-4.6s-7,1.8-9.1,4.6l1.9,1.9
						C72.1,91.4,74.7,89.9,77.7,89.9z"/>
					<path class="st4" d="M77.7,82.3c5.1,0,9.6,2.3,12.7,6l1.8-1.8c-3.5-4.1-8.7-6.7-14.5-6.7c-5.8,0-11,2.6-14.5,6.7l1.8,1.8
						C68.1,84.6,72.6,82.3,77.7,82.3z"/>
				</g>
				<path class="st4" d="M76.2,98.6c0-0.9,0.7-1.6,1.5-1.6c0.9,0,1.6,0.7,1.6,1.6c0,0.9-0.7,1.6-1.6,1.6
					C76.9,100.1,76.2,99.4,76.2,98.6z"/>
			</g>
			<rect x="76.1" y="104.7" class="st4" width="3.3" height="20.9"/>
			<path class="st4" d="M96.3,99.8v25.8h-3.7V99.8h-9.6v-3.3h22.8v3.3H96.3z"/>
			<path class="st4" d="M127,116.2h-15.4c0,1.9,0.4,3.4,1.1,4.5c1.2,1.8,2.8,2.7,5,2.7c2.7,0,4.5-1.4,5.5-4.2h3.3
				c-0.6,3.2-2.3,5.4-5,6.5c-1.2,0.5-2.5,0.7-3.9,0.7c-3.6,0-6.2-1.5-7.9-4.4c-1-1.8-1.6-4-1.6-6.7c0-4.2,1.2-7.3,3.7-9.4
				c1.6-1.3,3.5-1.9,5.8-1.9c3.1,0,5.5,1.1,7.2,3.3c0.5,0.7,1,1.4,1.3,2.2C126.7,111,127,113.2,127,116.2z M111.7,113.5h11.7l0-0.3
				c0-2.1-0.8-3.8-2.3-5c-1-0.8-2.2-1.1-3.4-1.1c-2.3,0-3.9,1-5,3C112.1,111.1,111.8,112.2,111.7,113.5z"/>
			<path class="st4" d="M134.8,96.5v29h-3.3v-29H134.8z"/>
		</g>
	</g>
</g>
</svg>
