<?xml version="1.0" encoding="utf-8"?>
<!-- Generator: Adobe Illustrator 22.0.0, SVG Export Plug-In . SVG Version: 6.00 Build 0)  -->
<svg version="1.1" id="Layer_1" xmlns="http://www.w3.org/2000/svg" xmlns:xlink="http://www.w3.org/1999/xlink" x="0px" y="0px"
	 viewBox="0 0 200 200" style="enable-background:new 0 0 200 200;" xml:space="preserve">
<style type="text/css">
	.st0{fill:#F6F6F6;stroke:#D1D1D1;stroke-width:1.3564;stroke-miterlimit:10;}
	.st1{fill:#F6F6F6;}
	.st2{fill:#D1D1D1;}
	.st3{fill:none;stroke:#F68C28;stroke-width:1.3564;stroke-miterlimit:10;}
	.st4{fill:#A1A1A1;}
</style>
<g>
	<circle class="st0" cx="100.5" cy="100" r="96.6"/>
	<g>
		<circle class="st1" cx="101.1" cy="100.6" r="96.6"/>
		<path class="st2" d="M101.1,198c-53.7,0-97.3-43.7-97.3-97.3C3.8,47,47.5,3.3,101.1,3.3c53.7,0,97.3,43.7,97.3,97.3
			C198.5,154.3,154.8,198,101.1,198z M101.1,4.7c-52.9,0-96,43-96,96c0,52.9,43,96,96,96c52.9,0,96-43,96-96
			C197.1,47.7,154,4.7,101.1,4.7z"/>
	</g>
	<g>
		<path class="st3" d="M93.2,155.3c0-0.7,0-1.3,0-2.1c-6.5,0-12.9,0-19.4,0c0-2.4,0-4.6,0-7c6.4,0,12.9,0,19.4,0
			c0-0.7,0.1-1.4,0.1-2.1c1.8,0,3.6,0,5.5,0c0-2.7,0-5.4,0-8.1c2.4,0,4.6,0,6.9,0c0,2.6,0,5.3,0,8c1.9,0,3.7,0,5.6,0
			c0,0.7,0,1.4,0,2.1c6.6,0,13,0,19.5,0c0,2.4,0,4.6,0,7c-6.5,0-12.9,0-19.4,0c0,0.8,0,1.5,0,2.1C105.4,155.3,99.3,155.3,93.2,155.3
			z"/>
		<path class="st4" d="M68.7,100.2c0,3.1,0,6.1,0,9.1c-0.6-0.1-0.9-0.2-1.3-0.3c-10.2-2.8-17.2-12.3-16.7-22.6
			c0.6-10.9,8.4-19.7,19.1-21.4c1.1-0.2,1.9-0.7,2.4-1.7c4-7.8,10.2-12.5,18.8-13.9c6.7-1.1,12.9,0.4,18.5,4.3c1,0.7,2,1,3.2,1
			c7.5-0.1,13.6,2.9,18.3,8.7c0.7,0.9,1.6,1.4,2.8,1.6c10.1,1.4,17.5,8.1,19.7,17.8c2.5,11.6-5,23.7-16.5,26.4
			c-0.2,0.1-0.5,0.1-1,0.1c0-3,0-5.9,0-9.1c0.1,0,0.4-0.2,0.8-0.3c6.1-2.6,9.4-9.2,7.9-15.7c-1.5-6.4-7.3-10.9-13.9-10.5
			c-2.6,0.2-4.3-0.8-5.5-3.1c-2.8-5.3-8.5-7.9-14.4-6.9c-1.8,0.3-3.3-0.1-4.6-1.4c-8.9-8.3-23.4-4.3-26.9,7.3
			c-0.9,3.1-2.3,4.1-5.6,4c-6.5-0.3-12.3,4.2-13.7,10.8c-1.4,6.3,2,12.8,8,15.4C68.3,100,68.6,100.2,68.7,100.2z"/>
		<path class="st3" d="M102.3,134.1c-8.6,0-17.1,0-25.7,0c-2.4,0-3.6-1.1-3.6-3.5c0-3.2,0-6.4,0-9.5c0-2.1,1.2-3.3,3.3-3.3
			c17.3,0,34.5,0,51.8,0c2.1,0,3.4,1.2,3.4,3.3c0,3.2,0,6.5,0,9.7c0,2.1-1.2,3.3-3.3,3.3C119.6,134.1,111,134.1,102.3,134.1z
			 M123.5,126c-4.4,0-8.7,0-13.1,0c0,1.5,0,2.8,0,4.3c4.4,0,8.7,0,13.1,0C123.5,128.9,123.5,127.5,123.5,126z M80.4,123.1
			c0-1-0.7-1.8-1.8-1.9c-1.1,0-1.9,0.8-2,1.8c0,1,0.9,1.9,1.9,1.9C79.6,124.9,80.4,124.1,80.4,123.1z"/>
		<path class="st3" d="M102.4,81.6c8.5,0,16.9,0,25.4,0c2.7,0,3.8,1,3.8,3.8c0,3.1,0,6.1,0,9.2c0,2.2-1.2,3.4-3.4,3.4
			c-17.3,0-34.5,0-51.8,0c-2.1,0-3.3-1.2-3.3-3.4c0-3.2,0-6.4,0-9.5c0-2.4,1.1-3.5,3.6-3.5C85.2,81.6,93.8,81.6,102.4,81.6z
			 M123.5,89.8c-4.4,0-8.7,0-13.1,0c0,1.5,0,2.8,0,4.3c4.4,0,8.7,0,13.1,0C123.5,92.6,123.5,91.2,123.5,89.8z M80.4,86.9
			c0-1-0.8-1.8-1.8-1.9c-1,0-1.9,0.9-1.9,1.9c0,1,0.9,1.9,2,1.8C79.6,88.7,80.4,87.9,80.4,86.9z"/>
		<path class="st3" d="M102.3,99.7c8.6,0,17.1,0,25.7,0c2.4,0,3.6,1.1,3.6,3.5c0,3.2,0,6.4,0,9.5c0,2.1-1.2,3.3-3.3,3.3
			c-17.3,0-34.5,0-51.8,0c-2.1,0-3.3-1.2-3.4-3.3c0-3.2,0-6.5,0-9.7c0-2.1,1.2-3.3,3.3-3.3C85,99.7,93.7,99.7,102.3,99.7z
			 M123.5,107.9c-4.4,0-8.8,0-13.1,0c0,1.5,0,2.9,0,4.3c4.4,0,8.7,0,13.1,0C123.5,110.8,123.5,109.4,123.5,107.9z M78.6,103.1
			c-1,0-1.9,0.9-1.9,1.9c0,1,0.8,1.8,1.8,1.9c1,0,1.8-0.7,1.9-1.8C80.4,104,79.6,103.1,78.6,103.1z"/>
	</g>
</g>
</svg>
