<?xml version="1.0" encoding="utf-8"?>
<!-- Generator: Adobe Illustrator 22.0.0, SVG Export Plug-In . SVG Version: 6.00 Build 0)  -->
<svg version="1.1" id="Layer_1" xmlns="http://www.w3.org/2000/svg" xmlns:xlink="http://www.w3.org/1999/xlink" x="0px" y="0px"
	 viewBox="0 0 200 200" style="enable-background:new 0 0 200 200;" xml:space="preserve">
<style type="text/css">
	.st0{fill:#F6F6F6;stroke:#D1D1D1;stroke-width:1.372;stroke-miterlimit:10;}
	.st1{fill:#F6F6F6;}
	.st2{fill:#D1D1D1;}
	.st3{fill:#A1A1A1;}
	.st4{fill:#F68C28;}
	.st5{fill:#FFFFFF;}
</style>
<circle class="st0" cx="99.8" cy="100" r="97.7"/>
<g>
	<circle class="st1" cx="100.5" cy="100.6" r="97.7"/>
	<path class="st2" d="M100.5,199.1C46.2,199.1,2,154.9,2,100.6C2,46.4,46.2,2.2,100.5,2.2c54.3,0,98.4,44.2,98.4,98.4
		C198.9,154.9,154.7,199.1,100.5,199.1z M100.5,3.6C47,3.6,3.4,47.1,3.4,100.6c0,53.5,43.5,97.1,97.1,97.1
		c53.5,0,97.1-43.5,97.1-97.1C197.5,47.1,154,3.6,100.5,3.6z"/>
</g>
<g>
	<path class="st3" d="M142.8,163.3c-0.7,0-1.3,0.1-1.8,0.1c-12.9,0-25.8,0-38.6,0c-0.6,0-1.3-0.2-1.8-0.6
		c-7-5.1-12.5-11.6-17.4-18.7c-1.9-2.8-3.7-5.7-5.5-8.4c10,0.9,20.1,0.3,30.1,0.4c2.8,0,5.3-1.2,7.4-3.1c3.3-2.9,4.8-6.6,4.4-10.9
		c-0.3-3.7,0.3-7.2,2-10.6c0.3-0.7,0.5-1.5,0.4-2.3c-0.9-6.7-1.8-13.3-2.8-20c-0.5-3.4-0.5-6.7,1.1-9.9c0.5-1,1.4-2,2.3-2.8
		c1.1-0.9,2.4-0.5,2.6,1c1.8,11.2,6.3,21.4,10.1,32c1.3,3.5,1.1,7,0.4,10.6c-1.3,6.1-2.5,12.2-3.6,18.4c-0.8,4.7,0.4,9,3,12.9
		c2.4,3.6,4.7,7.1,7.1,10.7C142.3,162.5,142.5,162.8,142.8,163.3z"/>
	<path class="st4" d="M73.1,90.7c0-10.7,0-21.4,0-32.2c0-5.6,4-9.7,9.7-9.7c7.9,0,15.8,0,23.6,0c5.5,0,9.6,4.1,9.6,9.5
		c0,21.6,0,43.1,0,64.7c0,5.5-4,9.5-9.6,9.5c-8,0-16,0-24,0c-5.3,0-9.3-4.1-9.3-9.4C73.1,112.3,73.1,101.5,73.1,90.7
		C73.1,90.7,73.1,90.7,73.1,90.7z M113.3,124c0-21.8,0-43.4,0-65c-12.6,0-25.2,0-37.7,0c0,21.7,0,43.3,0,65
		C88.2,124,100.7,124,113.3,124z M94.6,125.8C94.6,125.8,94.6,125.8,94.6,125.8c-1.1,0-2.1,0-3.2,0c-1.1,0-1.4,0.5-1.4,1.9
		c0,1.4,0.3,1.9,1.4,1.9c2.2,0,4.3,0,6.5,0c1.1,0,1.4-0.5,1.4-2c0-1-0.2-1.8-1.4-1.8C96.8,125.8,95.7,125.8,94.6,125.8z M94.5,53.1
		c-0.8,0-1.5-0.1-2.3,0c-0.3,0-0.6,0.5-0.9,0.7c0.3,0.2,0.6,0.6,0.9,0.6c1.5,0.1,3.1,0.1,4.6,0c0.3,0,0.6-0.4,0.9-0.7
		c-0.3-0.2-0.5-0.6-0.8-0.7C96.1,53.1,95.3,53.1,94.5,53.1z M108.6,54.1c0-0.2,0-0.3,0-0.5c-0.4-0.3-0.8-0.7-1.2-0.8
		c-0.7-0.1-1.2,0.4-1.1,1.1c0.1,0.4,0.6,1,1,1C107.7,54.9,108.2,54.4,108.6,54.1z M104.1,52.8c-0.3,0.5-0.7,0.7-0.7,1
		c0,0.2,0.4,0.7,0.6,0.6c0.3-0.1,0.7-0.4,0.7-0.6C104.7,53.6,104.4,53.3,104.1,52.8z"/>
	<path class="st3" d="M69.4,70.8c0,12.5,0,25,0,37.7c-3-1.6-5-4-6-7.1c-0.4-1.4,0.2-2.7,1.2-3.6c1.2-1,2.6-1.8,4.1-2.9
		c-0.4-0.6-0.8-1.6-1.4-2.1c-2.5-1.9-2.9-5.2-1.3-7.8c0.8-1.3,1.9-2.4,2.9-3.7c-1-1-2.2-2-3.3-3.2c-1.3-1.4-1.6-3.1-1-5
		C65.5,70.8,66.9,70.1,69.4,70.8z"/>
	<path class="st3" d="M70.2,127.4c-2.3-2.3-4.9-4.8-7.3-7.4c-2.6-2.8-2.1-6.7,1.1-9c1.2-0.9,2.4-0.6,3.7-0.1
		c1.9,0.8,1.9,0.8,1.9,2.8c0,3.8,0.1,7.6,0.2,11.5C69.7,126.1,70.1,126.9,70.2,127.4z"/>
	<path class="st5" d="M113.3,124c-12.6,0-25.2,0-37.7,0c0-21.7,0-43.3,0-65c12.5,0,25.1,0,37.7,0C113.3,80.6,113.3,102.2,113.3,124z
		 M99.6,96c0-2.8-2.3-5.1-5-5.1c-2.7,0-5,2.3-5,5c0,2.8,2.3,5.1,5.1,5.1C97.3,101,99.6,98.8,99.6,96z M82.9,84.3
		c7.8-6.3,15.5-6.3,23.2-0.1c0.6-0.5,1.1-1,1.7-1.5c-7.1-7.5-19.9-7.1-26.3,0C81.9,83.3,82.4,83.8,82.9,84.3z M83.3,107.9
		c-0.7,0.5-1.3,1-1.9,1.4c8.4,8.4,21.2,6.2,26.2,0.1c-0.5-0.6-1-1.2-1.4-1.7C99.5,113.9,89.6,113.9,83.3,107.9z M103.1,87.5
		c-4.1-4.7-12.9-4.8-17-0.1c0.5,0.6,1.1,1.1,1.6,1.7c2-1.8,4.2-2.8,6.8-2.8c2.7,0,4.9,1,6.8,2.7C102,88.5,102.6,88,103.1,87.5z
		 M87.8,103c-0.6,0.6-1.2,1.1-1.7,1.6c4.2,4.7,13.2,4.7,17-0.1c-0.3-0.3-0.5-0.5-0.8-0.8c-0.2-0.3-0.4-0.7-0.5-1.1
		C97,106.8,91.5,106.3,87.8,103z"/>
	<path class="st5" d="M94.6,125.8c1.1,0,2.2,0,3.3,0c1.2,0,1.4,0.8,1.4,1.8c0,1.5-0.3,2-1.4,2c-2.2,0-4.3,0-6.5,0
		c-1.1,0-1.4-0.5-1.4-1.9c0-1.4,0.3-1.9,1.4-1.9C92.5,125.8,93.5,125.8,94.6,125.8C94.6,125.8,94.6,125.8,94.6,125.8z"/>
	<path class="st5" d="M94.5,53.1c0.8,0,1.6-0.1,2.4,0c0.3,0,0.6,0.4,0.8,0.7c-0.3,0.2-0.6,0.6-0.9,0.7c-1.5,0.1-3.1,0.1-4.6,0
		c-0.3,0-0.6-0.4-0.9-0.6c0.3-0.2,0.6-0.6,0.9-0.7C93,53.1,93.8,53.1,94.5,53.1z"/>
	<path class="st5" d="M108.6,54.1c-0.4,0.3-0.9,0.8-1.3,0.8c-0.4,0-0.9-0.6-1-1c-0.2-0.7,0.4-1.2,1.1-1.1c0.4,0.1,0.8,0.5,1.2,0.8
		C108.6,53.7,108.6,53.9,108.6,54.1z"/>
	<path class="st5" d="M104.1,52.8c0.3,0.5,0.7,0.8,0.6,1c-0.1,0.3-0.4,0.6-0.7,0.6c-0.2,0-0.6-0.4-0.6-0.6
		C103.4,53.6,103.7,53.3,104.1,52.8z"/>
	<path class="st4" d="M99.6,96c0,2.7-2.3,5-5,5c-2.8,0-5.1-2.3-5.1-5.1c0-2.7,2.3-5,5-5C97.3,91,99.6,93.3,99.6,96z"/>
	<path class="st4" d="M82.9,84.3c-0.5-0.5-1-1-1.5-1.6c6.5-7.1,19.2-7.6,26.3,0c-0.5,0.5-1.1,1-1.7,1.5
		C98.5,78.1,90.7,78.1,82.9,84.3z"/>
	<path class="st4" d="M83.3,107.9c6.3,6,16.3,6,22.9-0.2c0.5,0.6,0.9,1.1,1.4,1.7c-5.1,6.1-17.8,8.2-26.2-0.1
		C82,108.9,82.6,108.4,83.3,107.9z"/>
	<path class="st4" d="M103.1,87.5c-0.5,0.5-1.1,1-1.7,1.6c-1.9-1.7-4.2-2.7-6.8-2.7c-2.6,0-4.9,1-6.8,2.8c-0.5-0.6-1.1-1.2-1.6-1.7
		C90.2,82.7,99,82.7,103.1,87.5z"/>
	<path class="st4" d="M87.8,103c3.6,3.3,9.2,3.9,13.9-0.4c0.2,0.3,0.3,0.7,0.5,1.1c0.2,0.3,0.5,0.6,0.8,0.8
		c-3.8,4.7-12.7,4.8-17,0.1C86.7,104.1,87.2,103.5,87.8,103z"/>
</g>
</svg>
