<?xml version="1.0" encoding="utf-8"?>
<!-- Generator: Adobe Illustrator 22.0.0, SVG Export Plug-In . SVG Version: 6.00 Build 0)  -->
<svg version="1.1" id="Layer_1" xmlns="http://www.w3.org/2000/svg" xmlns:xlink="http://www.w3.org/1999/xlink" x="0px" y="0px"
	 viewBox="0 0 200 200" style="enable-background:new 0 0 200 200;" xml:space="preserve">
<style type="text/css">
	.st0{fill:#F6F6F6;stroke:#D1D1D1;stroke-width:1.3669;stroke-miterlimit:10;}
	.st1{fill:#F6F6F6;}
	.st2{fill:#D1D1D1;}
	.st3{fill:none;stroke:#A1A1A1;stroke-width:5.4682;stroke-miterlimit:10;}
	.st4{fill:none;stroke:#F68C28;stroke-width:6.0642;stroke-linecap:round;stroke-linejoin:round;stroke-miterlimit:10;}
</style>
<circle class="st0" cx="99.9" cy="100.3" r="97.4"/>
<g>
	<circle class="st1" cx="100.6" cy="101" r="97.4"/>
	<path class="st2" d="M100.6,199C46.5,199,2.6,155,2.6,101c0-54.1,44-98.1,98.1-98.1c54.1,0,98.1,44,98.1,98.1
		C198.7,155,154.7,199,100.6,199z M100.6,4.3C47.3,4.3,3.9,47.6,3.9,101c0,53.3,43.4,96.7,96.7,96.7c53.3,0,96.7-43.4,96.7-96.7
		C197.3,47.6,153.9,4.3,100.6,4.3z"/>
</g>
<g>
	<path class="st3" d="M152.1,82.8c0-9.9-8.1-18-18-18c-4.5,0-8.6,1.6-11.7,4.4c-5.5-3.7-12-5.8-19.1-5.8c-11.6,0-21.8,5.7-28,14.5
		c-1-0.1-2-0.2-3-0.2c-12.8,0-23.1,10.3-23.1,23.1c0,12.8,10.3,23.1,23.1,23.1c2.7,0,5.3-0.5,7.7-1.3c0.8,0.7,1.6,1.4,2.4,2.1
		c5.8,4.4,13,7.1,20.9,7.1c12.7,0,23.8-6.9,29.7-17.2c1,0.3,2,0.4,3.1,0.4c6.6,0,11.9-5.3,11.9-11.9c0-2.5-0.8-4.8-2-6.7
		C149.7,93.1,152.1,88.3,152.1,82.8z"/>
	<path class="st4" d="M134.4,97.7c0,17-13.8,30.8-30.8,30.8l-15.9,13.4l0-17.9c-8.9-5.4-14.8-15.2-14.8-26.3
		c0-17,13.8-30.8,30.8-30.8C120.6,66.9,134.4,80.7,134.4,97.7z"/>
</g>
</svg>
