<?xml version="1.0" encoding="utf-8"?>
<!-- Generator: Adobe Illustrator 22.0.0, SVG Export Plug-In . SVG Version: 6.00 Build 0)  -->
<svg version="1.1" id="Layer_1" xmlns="http://www.w3.org/2000/svg" xmlns:xlink="http://www.w3.org/1999/xlink" x="0px" y="0px"
	 viewBox="0 0 200 200" style="enable-background:new 0 0 200 200;" xml:space="preserve">
<style type="text/css">
	.st0{fill:#F6F6F6;}
	.st1{fill:#D1D1D1;}
	.st2{fill:#A1A1A1;}
	.st3{fill:#F68C28;}
</style>
<g>
	<circle class="st0" cx="100.4" cy="100" r="96.5"/>
	<path class="st1" d="M100.4,197.2c-53.6,0-97.2-43.6-97.2-97.2c0-53.6,43.6-97.2,97.2-97.2c53.6,0,97.2,43.6,97.2,97.2
		C197.5,153.6,154,197.2,100.4,197.2z M100.4,4.1c-52.8,0-95.8,43-95.8,95.8c0,52.8,43,95.8,95.8,95.8c52.8,0,95.8-43,95.8-95.8
		C196.2,47.1,153.2,4.1,100.4,4.1z"/>
</g>
<path class="st2" d="M89.7,46.6 M89.7,47.9"/>
<path class="st2" d="M107.7,38.8c1.7,0.5,3.5,0.8,5.1,1.4c7.8,2.8,13.3,10.7,13.4,19c0,2,0,3.9,0,5.9c4.1,1,5.5,3,5.5,7.1
	c0,5.9,0,11.8,0,17.6c0,1,0.4,1.5,1.2,1.9c6.5,3.4,11.7,8.2,14.3,15.2c3.2,8.4,1.5,16.1-3.9,23.1c-1.9,2.4-4.2,4.5-6.8,6.1
	c-0.8,0.5-1,1-1,1.9c0,4.1,0,8.2,0,12.3c0,1.2-0.2,2.1-1.2,2.8c-0.6,0-1.2,0-1.8,0c-0.3-0.2-0.6-0.5-0.9-0.7
	c-5.4-3.2-10.9-6.4-16.3-9.6c-0.5-0.3-1.2-0.5-1.8-0.6c-7.1-0.4-13.5-2.5-19.4-6.4c-0.5-0.3-1.2-0.4-1.8-0.3
	c-1.8,0.1-3.6,0.4-5.4,0.6c-0.5,0.1-0.9,0.3-1.3,0.5c-5.5,3.3-11.1,6.6-16.6,9.8c-0.7,0.4-1.7,0.5-2.4,0.3c-0.9-0.2-1.1-1.2-1.1-2.1
	c0-4.2,0-8.3,0-12.5c0-1.1-0.3-1.7-1.2-2.3c-6.2-4.2-10.5-9.8-11.8-17.4c-1.1-6.5,0.5-12.3,4.4-17.6c5.2-7.1,12.5-11,20.9-13
	c0.4-0.1,0.7-0.2,1.1-0.3c0-3.3,0.1-6.5,0-9.7c-0.2-3.4,1.5-6.3,5.6-7.1c0-1.5,0-3,0-4.5c-0.1-3.4,0.6-6.7,2.1-9.8
	c3.3-6.5,8.6-10.3,15.8-11.5c0.2,0,0.4-0.1,0.6-0.2C104.7,38.8,106.2,38.8,107.7,38.8z M132,95.8c0,1.1,0,2.1,0,3
	c0,4.1-2.6,6.6-6.7,6.7c-11.7,0-23.4,0-35.1,0c-0.8,0-1.2,0.2-1.5,0.9c-4,8.2-2.2,17.4,4.7,23.6c6.1,5.4,13.2,8,21.2,8.3
	c0.8,0,1.8,0.3,2.5,0.7c4.5,2.6,8.9,5.2,13.4,7.8c0.3,0.2,0.7,0.4,1.1,0.6c0-4,0-7.7,0-11.5c0-1.2,0.5-2,1.5-2.7
	c1.9-1.4,3.9-2.7,5.5-4.3C150.6,116.4,143.5,101.7,132,95.8z M105.3,101.2c6.5,0,13.1,0,19.6,0c2,0,2.7-0.7,2.7-2.6c0-9,0-18,0-27
	c0-1.9-0.7-2.6-2.6-2.6c-13.1,0-26.2,0-39.3,0c-2.1,0-2.8,0.7-2.8,2.8c0,8.9,0,17.9,0,26.8c0,2,0.7,2.7,2.7,2.7
	C92.2,101.2,98.7,101.2,105.3,101.2z M79.1,85.9c-7,1.3-13,4.3-17.6,9.6c-6.5,7.5-6.7,17.4-0.6,25.3c2.1,2.6,4.6,4.8,7.4,6.5
	c1,0.6,1.5,1.4,1.4,2.6c-0.1,1.3,0,2.5,0,3.8c0,2.5,0,5,0,7.7c0.5-0.3,0.8-0.4,1.2-0.6c4.3-2.6,8.6-5.2,13-7.8
	c0.8-0.5,1.8-0.7,2.8-0.9c0.8-0.2,1.7-0.3,2.7-0.4c-7-8-9-16.8-4.9-26.6c-3.9-1.1-5.4-3-5.4-7C79.1,94,79.1,90,79.1,85.9z M96,64.8
	c6.2,0,12.4,0,18.8,0c0-1.9,0-3.7,0-5.5c-0.1-4.7-4-8.7-8.9-9.1c-4.6-0.4-9.1,2.9-9.8,7.5C95.7,60,96,62.4,96,64.8z M92,64.9
	c0-1.9,0-3.8,0-5.6c0.2-6.6,4.9-11.9,11.6-13c6-1,12.2,2.8,14.5,8.7c0.8,2.2,0.8,4.5,0.8,6.8c0,1,0,2,0,3c1.1,0,2.1,0,2.9,0
	c0-2.6,0.3-5.1,0-7.5c-1-8-7.9-14.1-16.1-14.4c-7.7-0.3-15,5.4-16.8,13c-0.6,2.7,0,5.3-0.2,8c0,0.3,0,0.6,0.1,1
	C89.8,64.9,90.8,64.9,92,64.9z"/>
<path class="st3" d="M114.8,114.3c-5.7,0-11.3,0-17,0c-1,0-1.7-0.3-2.1-1.3c-0.3-0.9-0.1-1.7,0.6-2.2c0.4-0.3,1-0.5,1.5-0.5
	c11.3,0,22.6,0,33.9,0c1.3,0,2.2,0.8,2.2,2c0,1.2-0.9,2-2.3,2.1C126.1,114.3,120.4,114.3,114.8,114.3z"/>
<path class="st3" d="M107.4,120c3.1,0,6.2,0,9.3,0c1.5,0,2.4,0.7,2.4,2c0,1.3-0.9,2-2.4,2c-6.2,0-12.4,0-18.6,0
	c-1.5,0-2.4-0.8-2.4-2c0-1.2,0.9-2,2.4-2C101.1,120,104.3,120,107.4,120z"/>
<path class="st3" d="M103.4,90.8c0-0.2,0-0.4,0-0.7c0.1-1.7,0.1-3.1-1.9-4.1c-2.6-1.3-3.2-4.6-2.1-7.4c1.1-2.8,4.1-4.6,6.9-4.2
	c3,0.5,5.4,2.9,5.6,5.8c0.3,3.1-1.1,5.4-3.8,6.8c-0.3,0.2-0.6,0.6-0.6,1c-0.1,1.9,0,3.7,0,5.6c0,1.4-0.7,2.2-1.9,2.2
	c-1.2,0-2.1-0.8-2.1-2.2C103.4,92.7,103.4,91.8,103.4,90.8C103.4,90.8,103.4,90.8,103.4,90.8z M105.4,78.4c-1.4,0-2.5,1.2-2.4,2.7
	c0,1.4,1.2,2.6,2.4,2.6c1.3,0,2.5-1.2,2.5-2.7C107.9,79.6,106.7,78.4,105.4,78.4z"/>
</svg>
