<?xml version="1.0" encoding="utf-8"?>
<!-- Generator: Adobe Illustrator 19.1.0, SVG Export Plug-In . SVG Version: 6.00 Build 0)  -->
<svg version="1.1" id="Layer_1" xmlns="http://www.w3.org/2000/svg" xmlns:xlink="http://www.w3.org/1999/xlink" x="0px" y="0px"
	 viewBox="0 0 143.5 143.5" style="enable-background:new 0 0 143.5 143.5;" xml:space="preserve">
<style type="text/css">
	.st0{fill:#F6F6F6;}
	.st1{fill:#D1D1D1;}
	.st2{fill:#F6F6F6;stroke:#D1D1D1;stroke-miterlimit:10;}
	.st3{fill:#A1A1A1;}
	.st4{fill:#F68C28;}
	.st5{fill:#FFFFFF;}
</style>
<g>
	<circle class="st0" cx="71.7" cy="71.7" r="71.2"/>
	<path class="st1" d="M71.7,143.5C32.2,143.5,0,111.3,0,71.7C0,32.2,32.2,0,71.7,0c39.6,0,71.7,32.2,71.7,71.7
		C143.5,111.3,111.3,143.5,71.7,143.5z M71.7,1C32.7,1,1,32.7,1,71.7c0,39,31.7,70.7,70.7,70.7c39,0,70.7-31.7,70.7-70.7
		C142.5,32.7,110.7,1,71.7,1z"/>
</g>
<path class="st3" d="M72,64.5c-4.9,0-9.6-1.9-13.1-5.4c-3.6-3.5-5.5-8.2-5.6-13.2s1.9-9.7,5.4-13.3s8.2-5.5,13.2-5.6l0,0
	c0,0,0.1,0,0.1,0c4.9,0,9.6,1.9,13.1,5.4c3.6,3.5,5.5,8.2,5.6,13.2c0.1,10.3-8.3,18.8-18.6,18.8C72.1,64.5,72,64.5,72,64.5z
	 M71.9,28.1c-4.7,0-9.2,1.9-12.5,5.3c-3.3,3.4-5.1,7.8-5.1,12.6c0,4.7,1.9,9.2,5.3,12.5c3.3,3.3,7.7,5.1,12.4,5.1c0,0,0.1,0,0.1,0
	c9.8-0.1,17.6-8.1,17.6-17.8c0-4.7-1.9-9.2-5.3-12.5c-3.3-3.3-7.7-5.1-12.4-5.1C71.9,28.1,71.9,28.1,71.9,28.1L71.9,28.1z"/>
<path class="st3" d="M97.8,82.6c-4.9,0-9.6-1.9-13.1-5.4c-3.6-3.5-5.5-8.2-5.6-13.2s1.9-9.7,5.4-13.3s8.2-5.5,13.2-5.6l0,0
	c5,0,9.7,1.9,13.3,5.4c3.6,3.5,5.5,8.2,5.6,13.2c0,5-1.9,9.7-5.4,13.3c-3.5,3.6-8.2,5.5-13.2,5.6C97.9,82.6,97.9,82.6,97.8,82.6z
	 M97.7,46.2c-4.7,0-9.2,1.9-12.5,5.3c-3.3,3.4-5.1,7.8-5.1,12.6c0,4.7,1.9,9.2,5.3,12.5c3.3,3.3,7.7,5.1,12.4,5.1c0,0,0.1,0,0.1,0
	c4.7,0,9.2-1.9,12.5-5.3c3.3-3.4,5.1-7.8,5.1-12.6c0-4.7-1.9-9.2-5.3-12.5c-3.3-3.3-7.7-5.1-12.4-5.1C97.8,46.2,97.8,46.2,97.7,46.2
	L97.7,46.2z"/>
<path class="st3" d="M87.3,109.2c-4.9,0-9.6-1.9-13.1-5.4c-3.6-3.5-5.5-8.2-5.6-13.2c-0.1-10.3,8.3-18.8,18.6-18.8l0,0
	c0,0,0.1,0,0.1,0c10.3,0,18.6,8.3,18.7,18.6c0.1,10.3-8.3,18.8-18.6,18.8C87.3,109.2,87.3,109.2,87.3,109.2z M87.1,72.8
	c-9.8,0.1-17.6,8.1-17.6,17.8c0,4.7,1.9,9.2,5.3,12.5c3.3,3.3,7.7,5.1,12.4,5.1c0,0,0.1,0,0.1,0c9.8-0.1,17.6-8.1,17.6-17.8
	C104.9,80.6,96.9,72.7,87.1,72.8L87.1,72.8z"/>
<path class="st3" d="M56.7,109.2c-10.3,0-18.6-8.3-18.7-18.6c-0.1-10.3,8.3-18.8,18.6-18.8l0,0c0,0,0.1,0,0.1,0
	c10.3,0,18.6,8.3,18.7,18.6c0.1,10.3-8.3,18.8-18.6,18.8C56.8,109.2,56.7,109.2,56.7,109.2z M56.6,72.8c-9.8,0.1-17.6,8.1-17.6,17.8
	c0.1,9.8,8.1,17.6,17.8,17.6c9.8-0.1,17.6-8.1,17.6-17.8C74.3,80.6,66.3,72.7,56.6,72.8L56.6,72.8z"/>
<path class="st3" d="M46.1,82.2c-4.9,0-9.6-1.9-13.1-5.4c-3.6-3.5-5.5-8.2-5.6-13.2C27.3,53.3,35.7,44.8,46,44.8l0,0
	c0,0,0.1,0,0.1,0c4.9,0,9.6,1.9,13.1,5.4c3.6,3.5,5.5,8.2,5.6,13.2s-1.9,9.7-5.4,13.3s-8.2,5.5-13.2,5.6
	C46.2,82.2,46.1,82.2,46.1,82.2z M46,45.8c-9.8,0.1-17.6,8.1-17.6,17.8c0,4.7,1.9,9.2,5.3,12.5c3.3,3.3,7.7,5.1,12.4,5.1
	c0,0,0.1,0,0.1,0c4.7,0,9.2-1.9,12.5-5.3c3.3-3.4,5.1-7.8,5.1-12.6c0-4.7-1.9-9.2-5.3-12.5c-3.3-3.3-7.7-5.1-12.4-5.1
	C46.1,45.8,46,45.8,46,45.8L46,45.8z"/>
<g>
	<path class="st5" d="M91.9,50.3h-40c-1.9,0-3.5,1.6-3.5,3.5v29.6c0,1.6,1.1,2.9,2.5,3.4l0,0.1l0.5,0c0.2,0,0.3,0.1,0.5,0.1h3.6
		L51,95.3L69.7,87h22.1c1.9,0,3.5-1.6,3.5-3.5V53.9C95.4,51.9,93.8,50.3,91.9,50.3z"/>
	<path class="st4" d="M51,97.3c-0.5,0-1.1-0.2-1.5-0.6c-0.6-0.6-0.7-1.6-0.3-2.3l2.9-5.3h-0.3c-0.2,0-0.4,0-0.7-0.1l-0.3,0
		c0,0,0,0,0,0c-0.5,0-0.9-0.2-1.3-0.4c-2-0.9-3.3-2.9-3.3-5V53.9c0-3,2.5-5.5,5.5-5.5h40c3,0,5.5,2.5,5.5,5.5v29.6
		c0,3-2.5,5.5-5.5,5.5H70.2l-18.4,8.1C51.5,97.3,51.2,97.3,51,97.3z M55.5,85c0.7,0,1.4,0.4,1.7,1c0.4,0.6,0.4,1.4,0,2l-1.7,3.1
		l13.4-5.9c0.3-0.1,0.5-0.2,0.8-0.2h22.1c0.8,0,1.5-0.7,1.5-1.5V53.9c0-0.8-0.7-1.5-1.5-1.5h-40c-0.8,0-1.5,0.7-1.5,1.5v29.6
		c0,0.7,0.4,1.3,1.1,1.5c0,0,0.1,0,0.1,0c0,0,0.1,0,0.1,0c0.1,0,0.2,0,0.2,0H55.5z"/>
</g>
</svg>
