<?xml version="1.0" encoding="utf-8"?>
<!-- Generator: Adobe Illustrator 19.1.0, SVG Export Plug-In . SVG Version: 6.00 Build 0)  -->
<svg version="1.1" id="Layer_1" xmlns="http://www.w3.org/2000/svg" xmlns:xlink="http://www.w3.org/1999/xlink" x="0px" y="0px"
	 viewBox="0 0 143.5 143.5" style="enable-background:new 0 0 143.5 143.5;" xml:space="preserve">
<style type="text/css">
	.st0{fill:#F6F6F6;}
	.st1{fill:#D1D1D1;}
	.st2{fill:#F6F6F6;stroke:#D1D1D1;stroke-miterlimit:10;}
	.st3{fill:#A1A1A1;}
	.st4{fill:#F68C28;}
	.st5{fill:#FFFFFF;}
</style>
<g>
	<circle class="st0" cx="71.7" cy="71.7" r="71.2"/>
	<path class="st1" d="M71.7,143.5C32.2,143.5,0,111.3,0,71.7C0,32.2,32.2,0,71.7,0c39.6,0,71.7,32.2,71.7,71.7
		C143.5,111.3,111.3,143.5,71.7,143.5z M71.7,1C32.7,1,1,32.7,1,71.7c0,39,31.7,70.7,70.7,70.7c39,0,70.7-31.7,70.7-70.7
		C142.5,32.7,110.7,1,71.7,1z"/>
</g>
<g>
	<path class="st3" d="M92.1,101.7l-47.2,0c-1.7,0-2.5-0.9-2.5-2.6v-9.4c0-11.7,0-23.4,0-35c0-0.8,0.3-1.5,0.8-2.1
		c4.4-4.3,8.7-8.7,13.1-13l4.6-4.6c0.1-0.1,0.3-0.3,0.4-0.4l0,0c0,0,0-0.1,0-0.1c0.1-0.2,0.3-0.4,0.5-0.4h31.6
		c0.2,0,0.4,0.2,0.5,0.4c0,0,0,0,0,0.1c0.9,0.8,0.9,1.8,0.9,2.6c0,16.8,0,33.7,0,50.5v11.4C94.7,100.8,93.9,101.7,92.1,101.7z
		 M62.2,35.1L62,35.3c-0.1,0.1-0.3,0.2-0.4,0.4L57,40.3c-4.4,4.4-8.7,8.7-13.1,13.1c-0.4,0.4-0.5,0.8-0.5,1.3c0,11.7,0,23.4,0,35
		v9.4c0,1.1,0.4,1.5,1.5,1.5l47.2,0c1.2,0,1.6-0.4,1.6-1.6V87.7c0-16.8,0-33.7,0-50.5c0-1-0.1-1.5-0.7-1.9c0,0,0,0-0.1,0H62.2z"/>
	<path class="st3" d="M95.2,107.3H47.4l1.7-1c0,0-0.2,0.2-0.2,0.4l0.4,0v-0.4h0.3l0-0.1l0,0.1h45.1c0.2-0.2,0.4-0.2,0.5-0.2
		c2.8-1.1,4.1-2.9,4.1-5.9l0-46.1l0-11.7c0-1.2-0.4-1.5-1.6-1.5l-0.1,0c-0.1,0-0.2,0-0.4,0c-0.2,0-0.3,0-0.3,0c0,0,0,0.1,0,0.4l-1,0
		c0-0.4,0-0.9,0.4-1.2c0.4-0.3,0.9-0.2,1.1-0.2c0,0,0.1,0,0.2,0l0.2,0c1.7,0,2.6,0.8,2.6,2.6l0,14.7l0,43.2c0,3.3-1.5,5.6-4.6,6.8
		l0.1,0.4L95.2,107.3z"/>
	<path class="st4" d="M58.4,66.2c1.3,0,1.4,0.1,1.4,1.4c0,0.9,0.1,1.1,1.1,1.2c0.8,0.1,1.6,0.3,2.4,0.6c0.5,0.2,0.7,0.5,0.6,1.1
		c-0.1,0.5-0.3,1-0.4,1.5c-0.2,0.6-0.5,0.8-1.2,0.6C61.1,72.2,60,72,58.9,72c-0.5,0-0.9,0.1-1.4,0.3c-1.2,0.5-1.3,1.7-0.4,2.5
		c0.6,0.5,1.3,0.7,2,1c0.9,0.4,1.9,0.7,2.7,1.1c2,1,3.1,2.6,2.9,4.9c-0.2,2.3-1.5,3.8-3.6,4.6c-1.5,0.6-1.5,0.6-1.6,2.3
		c0,1-0.2,1.1-1.2,1.2c-0.1,0-0.1,0-0.2,0c-1.5,0-1.5,0-1.5-1.5c0-1.1-0.1-1.2-1.2-1.3c-1-0.2-2-0.4-3-0.8c-0.6-0.2-0.7-0.6-0.6-1.2
		c0.1-0.5,0.3-1,0.4-1.6c0.2-0.7,0.5-0.9,1.2-0.6c1.5,0.6,3,1,4.7,0.7c0.4,0,0.7-0.2,1.1-0.3c1.1-0.6,1.3-1.8,0.4-2.6
		c-0.6-0.6-1.4-0.9-2.2-1.1c-1-0.4-2-0.7-2.9-1.2c-1.8-1-2.8-2.4-2.7-4.6c0.2-2.1,1.3-3.6,3.3-4.3c1.3-0.4,1.8-1,1.7-2.4
		C56.9,66.4,57.2,66.2,58.4,66.2z"/>
	<path class="st4" d="M80.3,55.8c0,0.6,0,1.3,0,1.9c0,0.4-0.1,0.6-0.6,0.6c-1.3,0-2.5,0-3.8,0c-0.4,0-0.5-0.2-0.5-0.5
		c0-1.2,0-2.5,0-3.7c0-0.5-0.2-0.7-0.6-0.6c-1.2,0-2.5,0-3.7,0c-0.4,0-0.5-0.1-0.5-0.5c0-1.3,0-2.5,0-3.8c0-0.4,0.2-0.6,0.6-0.6
		c1.2,0,2.4,0,3.7,0c0.5,0,0.7-0.2,0.7-0.7c0-1.2,0-2.4,0-3.7c0-0.4,0.1-0.6,0.6-0.6c1.2,0,2.5,0,3.7,0c0.5,0,0.6,0.2,0.6,0.6
		c0,1.2,0,2.4,0,3.7c0,0.5,0.2,0.7,0.7,0.6c1.2,0,2.4,0,3.7,0c0.5,0,0.6,0.1,0.6,0.6c0,1.2,0,2.5,0,3.7c0,0.4-0.2,0.6-0.6,0.6
		c-1.2,0-2.5,0-3.7,0c-0.5,0-0.6,0.1-0.6,0.6C80.3,54.6,80.3,55.2,80.3,55.8C80.3,55.8,80.3,55.8,80.3,55.8z"/>
	<path class="st3" d="M77.5,69.6c-2.3,0-4.6,0-6.8,0c-0.5,0-0.8-0.1-0.7-0.7c0.1-0.7,0-1.5,0-2.2c0-0.4,0.1-0.5,0.5-0.5
		c4.7,0,9.5,0,14.2,0c0.4,0,0.5,0.2,0.5,0.5c0,0.7,0,1.5,0,2.2c0,0.6-0.2,0.7-0.7,0.7C82.1,69.6,79.8,69.6,77.5,69.6z"/>
	<path class="st3" d="M77.6,73c2.3,0,4.6,0,6.9,0c0.6,0,0.8,0.2,0.7,0.8c0,0.7,0,1.4,0,2.1c0,0.4-0.1,0.5-0.5,0.5
		c-4.7,0-9.5,0-14.2,0c-0.4,0-0.5-0.1-0.5-0.5c0-0.8,0-1.5,0-2.3c0-0.5,0.2-0.6,0.7-0.6C72.9,73,75.2,73,77.6,73z"/>
	<path class="st3" d="M77.6,83.1c-2.3,0-4.6,0-6.9,0c-0.7,0-0.8-0.2-0.8-0.8c0-0.7,0-1.4,0-2c0-0.4,0.1-0.5,0.5-0.5
		c4.7,0,9.5,0,14.2,0c0.4,0,0.5,0.1,0.5,0.5c0,0.8,0,1.5,0,2.3c0,0.5-0.2,0.6-0.7,0.6C82.2,83.1,79.9,83.1,77.6,83.1z"/>
	<path class="st3" d="M77.6,86.5c2.3,0,4.6,0,7,0c0.5,0,0.7,0.2,0.7,0.7c0,0.7,0,1.5,0,2.2c0,0.4-0.1,0.5-0.5,0.5
		c-4.7,0-9.5,0-14.2,0c-0.4,0-0.5-0.1-0.5-0.5c0-0.8,0-1.5,0-2.3c0-0.5,0.2-0.6,0.7-0.6C72.9,86.5,75.2,86.5,77.6,86.5z"/>
</g>
</svg>
