<?xml version="1.0" encoding="utf-8"?>
<!-- Generator: Adobe Illustrator 19.1.0, SVG Export Plug-In . SVG Version: 6.00 Build 0)  -->
<svg version="1.1" id="Layer_1" xmlns="http://www.w3.org/2000/svg" xmlns:xlink="http://www.w3.org/1999/xlink" x="0px" y="0px"
	 viewBox="0 0 143.5 143.5" style="enable-background:new 0 0 143.5 143.5;" xml:space="preserve">
<style type="text/css">
	.st0{fill:#F6F6F6;}
	.st1{fill:#D1D1D1;}
	.st2{fill:#F6F6F6;stroke:#D1D1D1;stroke-miterlimit:10;}
	.st3{fill:#A1A1A1;}
	.st4{fill:#F68C28;}
	.st5{fill:#FFFFFF;}
</style>
<g>
	<circle class="st0" cx="71.7" cy="71.7" r="71.2"/>
	<path class="st1" d="M71.7,143.5C32.2,143.5,0,111.3,0,71.7C0,32.2,32.2,0,71.7,0c39.6,0,71.7,32.2,71.7,71.7
		C143.5,111.3,111.3,143.5,71.7,143.5z M71.7,1C32.7,1,1,32.7,1,71.7c0,39,31.7,70.7,70.7,70.7c39,0,70.7-31.7,70.7-70.7
		C142.5,32.7,110.7,1,71.7,1z"/>
</g>
<path class="st3" d="M53,84c-0.1,0-0.2,0-0.3,0c0,0-0.1,0-0.1,0c-3.1,0-6.1,0-9.2,0l-0.7,0c-1.1,0-2.3,0-3.5-0.3
	c-3.3-0.8-6-2.9-8-6.4c-1.1-1.8-1.8-3.9-2.2-6.2c0-0.1,0-0.1,0-0.2l0,0c-0.1-0.1-0.1-0.1-0.1-0.2l-0.2,0l0-1.2l0.2-0.1
	c0-0.1,0-0.1,0-0.2c0-0.6,0-1.2,0-1.9l0-0.9l0.1-0.1c1.2-6.5,5-10.8,11.4-12.8c0.2-0.1,0.5-0.1,0.8-0.2c0.3,0,0.7-0.1,0.8-0.2
	c0.2-0.2,0.2-0.6,0.2-1c0-0.2,0-0.5,0-0.7c1.4-10.8,10.9-18.9,21.7-18.7c7.8,0.2,13.9,3.7,18.2,10.3c0.1,0.1,0.1,0.2,0.2,0.2
	c0,0,0.1-0.1,0.2-0.1c3.2-2.2,6.7-3,10.4-2.3c6.5,1.2,11.3,6.7,11.7,13.3c0,0.5,0,0.5,0.5,0.6c4.7,0.6,8.3,3,10.8,7.2
	c1,1.7,1.4,3.6,1.9,5.4l0,0.1l0,3.8l-0.2,0.7c-0.3,1.3-0.7,2.7-1.4,4c-2.7,5-7,7.7-12.6,7.8c-1.9,0-3.8,0-5.6,0c-1.3,0-2.6,0-3.9,0
	c-1,0-1.1-0.5-1.2-1.2c-0.1-1.3-0.1-2.6-0.1-3.9c0-1.5,0.1-3-0.1-4.4c-0.2-1-0.4-2-1.3-2.6c-0.2-0.2-0.4-0.4-0.4-0.6
	c0-0.3,0.2-0.5,0.4-0.7c1.3-1.1,1.8-2.6,1.5-4.8c-0.1-1.1-0.1-2.3,0-3.3l0-0.7c0-1.1,0-2.1-0.2-3.1c-0.5-2.3-1.7-3.3-4-3.3
	c-1.5,0-3,0-4.6,0c-1.7,0-3.3,0-5,0c-1.5,0-3,0-4.5,0c-5.3,0-10.9-0.1-16.3,0.1c-0.2,0-0.4,0-0.6,0c-0.7,0-1.3,0-1.8,0.3
	c-1.1,0.5-1.7,1.5-2.1,3c-0.2,0.7-0.1,1.4,0,2.1c0,0.3,0.1,0.6,0.1,1c0,0.8,0,1.5,0,2.3c0,1-0.1,2,0,2.9c0.2,1.7,0.5,2.9,1.7,3.8
	l0.5,0.4l-0.5,0.4c-1.5,1.3-2,2.9-1.8,5.5c0.1,1.4,0.1,2.9,0.1,4.3c0,0.6,0,1.1,0,1.7c0,0.3-0.1,0.5-0.3,0.7
	C53.4,83.9,53.2,84,53,84z M95.7,83c0.7,0,1.5,0,2.2,0c1.8,0,3.7,0,5.6,0c5.3-0.1,9.2-2.6,11.8-7.3c0.6-1.2,0.9-2.4,1.3-3.8l0.2-0.7
	v-3.5c-0.4-1.8-0.8-3.5-1.8-5.1c-2.3-3.9-5.7-6.2-10.1-6.7c-1.1-0.1-1.3-0.6-1.4-1.5c-0.3-6.2-4.8-11.3-10.9-12.4
	C89.2,41.3,86,42,83,44.1c-0.3,0.2-0.6,0.4-1,0.3c-0.4-0.1-0.6-0.4-0.8-0.7c-4.1-6.4-9.9-9.7-17.4-9.9c-10.2-0.3-19.4,7.7-20.7,17.8
	c0,0.2,0,0.4,0,0.6c0,0.6,0,1.2-0.4,1.6c-0.3,0.4-0.9,0.5-1.4,0.6c-0.2,0-0.4,0.1-0.6,0.1c-6.1,1.9-9.6,5.8-10.7,12
	c0,0.1-0.1,0.2-0.1,0.3l0,0.6c0,0.6,0,1.3,0,1.9c0.1,0.3,0,0.5-0.1,0.7c0.1,0.1,0.1,0.2,0.1,0.3c0.2,0.2,0.2,0.4,0.2,0.5
	c0.4,2.2,1.1,4.2,2.1,5.9c1.9,3.2,4.3,5.1,7.4,5.9c1.1,0.3,2.1,0.3,3.3,0.2l0.7,0c3.1,0,6.1,0,9.2,0c0.1,0,0.1,0,0.2,0
	c0-0.6,0-1.1,0-1.6c0-1.4,0.1-2.8-0.1-4.2c-0.2-2-0.1-4.2,1.7-5.9c-1.2-1.1-1.5-2.6-1.7-4.1c-0.1-1-0.1-2.1,0-3.1
	c0-0.7,0.1-1.5,0-2.2c0-0.3,0-0.6-0.1-0.9c-0.1-0.8-0.1-1.6,0.1-2.4c0.4-1.8,1.2-3,2.6-3.7c0.7-0.4,1.5-0.4,2.3-0.4
	c0.2,0,0.4,0,0.6,0c5.5-0.2,11-0.2,16.4-0.1c1.5,0,3,0,4.5,0c1.7,0,3.3,0,5,0c1.5,0,3,0,4.6,0c2.7,0,4.4,1.4,5,4.1
	c0.2,1.1,0.2,2.2,0.2,3.4l0,0.8c0,1.1-0.1,2.2,0,3.2c0.2,2.4-0.3,4.2-1.7,5.5c1,0.9,1.4,2.1,1.5,3.1c0.3,1.5,0.2,3.1,0.2,4.6
	c0,1.2-0.1,2.5,0.1,3.8c0,0.1,0,0.2,0,0.3c0,0,0.1,0,0.2,0c0,0,0,0,0,0C94.6,83,95.2,83,95.7,83z"/>
<path class="st4" d="M61.4,102.4c-0.2,0-0.5,0-0.7,0c-1.7-0.2-2.9-1.4-2.9-3.1c0-2.2,0-4.4,0-6.6c0-1.9,1.3-3.2,3.3-3.2l9.7,0
	l14.5,0c2,0,3.3,1.3,3.3,3.3c0,1.8,0,3.7,0,5.5l0,0.8c0,2-1.3,3.3-3.3,3.3c-2.2,0-4.4,0-6.6,0l-2.9,0l-14.2,0
	C61.6,102.4,61.5,102.4,61.4,102.4z M61.8,93.4c0,1.7,0,3.4,0,5.1l14.1,0l2.9,0c2,0,4,0,6,0l0-0.2c0-1.6,0-3.3,0-4.9l-13.9,0
	L61.8,93.4z"/>
<path class="st4" d="M61.3,87.8c-2.2,0-3.4-1.2-3.4-3.4l0-0.3c0-1.9,0-3.9,0-5.8c0-2.2,1.2-3.4,3.4-3.4c5.2,0,10.4,0,15.7,0l6.3,0
	l0.7,0c0.5,0,1,0,1.4,0c2,0,3.3,1.3,3.3,3.3c0,2.1,0,4.2,0,6.3c0,2.1-1.3,3.3-3.3,3.3L61.3,87.8C61.3,87.8,61.3,87.8,61.3,87.8z
	 M61.8,78.8c0,1.7,0,3.4,0,5.1l23,0c0-1.7,0-3.4,0-5.1c-0.3,0-0.5,0-0.8,0l-0.8,0l-6.3,0C71.9,78.8,66.8,78.8,61.8,78.8z"/>
<path class="st4" d="M79.7,73.2c-1.1,0-2.2,0-3.2,0l-5.2,0l-1.3,0c-2.9,0-5.8,0-8.7,0c-2.2,0-3.4-1.2-3.4-3.4v-6.1
	c0-2.1,1.2-3.3,3.3-3.3c4.3,0,8.6,0,12.9,0c0.8,0,1.7,0,2.5,0c1.3,0,2.6,0,3.9,0c1.3,0,2.5,0,3.8,0l1,0c0.4,0,1.6,0,2.5,0.9
	c0.9,0.9,0.9,2.1,0.9,2.5c0,2.1,0,4.1,0,6.2c0,2-1.3,3.3-3.3,3.3C83.5,73.2,81.6,73.2,79.7,73.2z M75.2,69.3l1.3,0
	c2.8,0,5.6,0,8.3,0c0-1.7,0-3.4,0-5l-0.4,0c-1.2,0-2.5,0-3.7,0c-1.4,0-2.8,0-4.1,0c-0.8,0-1.6,0-2.4,0c-4.1,0-8.2,0-12.3,0v5
	c2.7,0,5.4,0,8.1,0L75.2,69.3L75.2,69.3z"/>
</svg>
