<?xml version="1.0" encoding="utf-8"?>
<!-- Generator: Adobe Illustrator 19.1.0, SVG Export Plug-In . SVG Version: 6.00 Build 0)  -->
<svg version="1.1" id="Layer_1" xmlns="http://www.w3.org/2000/svg" xmlns:xlink="http://www.w3.org/1999/xlink" x="0px" y="0px"
	 viewBox="0 0 143.5 143.5" style="enable-background:new 0 0 143.5 143.5;" xml:space="preserve">
<style type="text/css">
	.st0{fill:#F6F6F6;}
	.st1{fill:#D1D1D1;}
	.st2{fill:#F6F6F6;stroke:#D1D1D1;stroke-miterlimit:10;}
	.st3{fill:#A1A1A1;}
	.st4{fill:#F68C28;}
	.st5{fill:#FFFFFF;}
</style>
<g>
	<circle class="st0" cx="71.7" cy="71.7" r="71.2"/>
	<path class="st1" d="M71.7,143.5C32.2,143.5,0,111.3,0,71.7C0,32.2,32.2,0,71.7,0c39.6,0,71.7,32.2,71.7,71.7
		C143.5,111.3,111.3,143.5,71.7,143.5z M71.7,1C32.7,1,1,32.7,1,71.7c0,39,31.7,70.7,70.7,70.7c39,0,70.7-31.7,70.7-70.7
		C142.5,32.7,110.7,1,71.7,1z"/>
</g>
<path class="st3" d="M78.4,111.4c-1.4,0-2.9-0.1-4.4-0.3c-8.8-1.1-16.1-5.2-21.9-12.3c-1-1.2-1.8-2.6-2.5-3.7
	c-0.2-0.2-0.4-0.6-0.2-0.9c0.2-0.4,0.6-0.3,0.8-0.3c0,0,0.1,0,0.1,0l13.6,0v0l3.2,0c3,0,6,0,8.9,0c0,0,0,0,0.1,0
	c1.6,0,2.7-0.6,3.4-1.8c0.1-0.1,0.2-0.4,0.6-0.4c0.3,0,0.5,0.2,0.6,0.5c1.2,1.9,1.8,4,2.4,6c0.1,0.4,0.2,0.8,0.3,1.2
	c0.1,0.5,0.1,1-0.1,1.6c-0.4,1.1-0.6,2.3-0.9,3.5c-0.1,0.4-0.2,0.8-0.3,1.2c-0.1,0.6,0,1.3,0.1,2c0.1,0.4,0.1,0.8,0.1,1.2
	c0,0,0,0,0.1,0l1.1-0.2c0.5-0.1,1-0.2,1.5-0.3c0.1,0,0.2,0,0.2-0.4c0.1-1.2,0.9-1.8,1.5-2.2c0.8-0.5,1.5-1,2.3-1.5
	c0.5-0.3,1-0.7,1.5-1c0.3-0.2,0.5-0.4,0.6-0.7c0.2-0.5,0.3-1,0.5-1.5c0.2-0.4,0.3-0.9,0.5-1.3c0.2-0.5,0.5-0.8,1-1.1
	c0.3-0.1,0.6-0.3,0.9-0.4c0.4-0.2,0.8-0.4,1.2-0.5c0.6-0.3,1.1-0.7,1.4-1.3c0.8-1.6,1.6-3.2,2.5-4.8l0.2-0.3
	c0.1-0.2,0.1-0.3,0.1-0.3c0,0,0-0.1-0.2-0.2c-0.4-0.2-0.8-0.5-1.2-0.7c-0.6-0.4-1.1-0.7-1.7-1c-1.7-0.8-2.9-2.1-4-3.5L92,85.4
	c-0.3-0.3-0.5-0.5-0.8-0.5c-1,0-1.9-0.3-2.6-0.5c-1.2-0.4-2.6-0.6-3.9-0.8l-0.4-0.1c-0.4-0.1-0.8,0.1-1.3,0.2
	c-0.2,0.1-0.4,0.1-0.6,0.2c-0.6,0.2-1.2,0-1.7-0.3c-0.5-0.4-0.7-0.9-0.8-1.5c0-0.8,0-1.5,0-2.3c0-0.6,0-1.1,0-1.7
	c0-0.2,0-0.6,0.2-0.8c0.2-0.1,0.4-0.2,0.6-0.2c0.1,0,0.2,0,0.2-0.3c0.1-0.9,0.6-1.7,1.3-2.4c0.4-0.4,0.9-0.9,1.3-1.4
	c1-1.5,2.5-2.2,3.9-3c0.5-0.2,0.9-0.5,1.4-0.7c1.2-0.7,2.4-0.9,3.9-0.6l0.2,0c0.1,0,0.3,0.1,0.4,0.1l0.1-0.2c0.2-0.5,0.2-0.7-0.1-1
	c-0.5-0.5-1-1-1.4-1.5c-0.4-0.4-0.8-0.8-1.2-1.2c-0.8-0.8-1.2-1.7-1.6-2.6c-0.1-0.2-0.2-0.4-0.3-0.6c-0.2-0.4-0.4-0.5-0.8-0.5
	c-0.8,0.1-1.6-0.1-2.5-0.5c-0.6-0.3-1.2-0.3-1.9-0.3c-0.2,0-0.3,0-0.5,0c0,0,0,0.1,0,0.1l-0.1,0.8c-0.1,0.5-0.2,1-0.2,1.4
	c0,0.3-0.2,0.5-0.3,0.7c-0.2,0.1-0.4,0.2-0.7,0.1l-0.2,0c-0.2,0-0.5-0.1-0.7-0.1c-0.3,0-0.8-0.2-0.8-0.9l0-1.9c0-0.2,0-0.7,0.4-0.8
	c0.4-0.1,0.5-0.4,0.6-0.9c0-0.2,0.1-0.4,0.1-0.6c0.1-0.4,0.2-0.9,0.3-1.4c0-0.3,0.2-0.7,0.5-0.8c0.4-0.2,0.8,0.1,0.9,0.1
	c0.2,0.1,0.4,0.2,0.6,0.3c1.2,0.3,1.7,1,1.4,2.1c0,0.1,0,0.1,0.2,0.2c0.6,0.2,1.2,0.5,1.7,0.7c0.5,0.2,1,0.2,1.6-0.1
	c0.1-0.1,0.2-0.1,0.2-0.1c0,0-0.1-0.1-0.1-0.2c-0.6-0.8-1.4-1.5-2.1-2.2c-0.3-0.3-0.7-0.6-1-1c-0.1-0.1-0.1-0.1-0.2-0.2
	c-0.1-0.1-0.2-0.1-0.2-0.2c-0.5-0.5-0.6-1.1-0.3-1.9c0.3-0.6,0.9-0.4,1.1-0.3c0.1,0,0.2,0.1,0.2,0.1c2.1,0,3.5,1.4,4.7,2.7
	c0.6,0.7,0.8,1.6,1,2.3c0.3,1.2,0.8,2,1.7,2.7c0.6,0.4,1.1,0.9,1.6,1.4c0.3,0.3,0.6,0.6,0.9,0.8c0.4,0.4,0.6,0.4,0.7,0.4
	c0.1,0,0.2-0.2,0.4-0.5c0.7-1.7,2.1-1.9,3.2-1.9c0.7,0,1.4-0.1,2.1-0.2l0.6-0.1c0.1,0,0.2,0,0.2,0c0,0-0.1-0.1-0.1-0.2
	c-2.5-3.4-5.5-6.3-9.1-8.4c-0.5-0.3-1-0.6-1.5-0.9l-0.1,0c-0.8-0.4-1.4-0.8-2.3-0.6c-0.6,0.1-1.1-0.1-1.6-0.2
	c-0.2-0.1-0.4-0.1-0.6-0.2c-0.3-0.1-0.4,0-0.7,0.1l-0.1,0.1c-1,0.7-1.9,1.3-2.6,2.2c-0.4,0.5-0.9,0.7-1.5,0.7
	c-0.5,0-1.1,0.1-1.6,0.1l-0.2,0c-0.2,0-0.6,0.1-0.8-0.1c-0.2-0.1-0.3-0.4-0.3-0.7l0-0.1c0-0.3,0-0.7,0.3-0.9
	c0.2-0.2,0.4-0.2,0.7-0.2c0.5,0,0.8-0.2,1.3-0.5c0.6-0.5,1.1-0.9,1.7-1.3c0,0,0,0,0,0c0,0-0.1-0.1-0.1-0.1c-0.8-0.7-1.5-0.7-2.5,0
	c-0.4,0.2-0.7,0.5-1.1,0.3c-0.3-0.2-0.3-0.6-0.3-1.1v-1.7c0-0.6,0-0.9,0.3-1.1c0.3-0.2,0.6-0.2,1.1-0.1c2.5,0.3,4.8,0.8,6.8,1.4
	c7.4,2.5,13.3,7,17.5,13.4c3.2,4.8,4.9,10.1,5.2,15.7c0.6,11.8-4,21.4-13.4,28.5C91.7,109.3,85.3,111.4,78.4,111.4z M50.3,94.7
	L50.3,94.7c0.7,1.2,1.6,2.5,2.5,3.7c5.6,6.9,12.8,11,21.3,12c8.4,1,16.1-1,22.7-5.9c9.2-6.9,13.6-16.3,13.1-27.9
	c-0.3-5.4-1.9-10.6-5-15.3c-4.1-6.3-9.8-10.7-17.1-13.1c-2-0.7-4.2-1.1-6.6-1.4c-0.2,0-0.4,0-0.5,0c0,0.1,0,0.3,0,0.5V49
	c0,0,0,0.1,0,0.2c0,0,0.1-0.1,0.2-0.1c0.8-0.6,2.1-1.2,3.4,0c0.2,0.2,0.5,0.4,0.5,0.7c0,0.3-0.2,0.5-0.4,0.6
	c-0.6,0.4-1.1,0.9-1.7,1.3c-0.5,0.4-1.1,0.7-1.8,0.7c-0.1,0-0.2,0-0.2,0c0,0,0,0.2,0,0.3l0,0.1c0,0,0,0,0,0.1c0.1,0,0.1,0,0.2,0
	l0.1,0c0.6-0.1,1.2-0.2,1.8-0.2c0.4,0,0.7-0.1,0.9-0.4c0.8-1,1.8-1.7,2.8-2.4l0.1-0.1c0.4-0.3,0.8-0.3,1.3-0.2
	c0.2,0.1,0.4,0.1,0.6,0.2c0.4,0.2,0.8,0.3,1.2,0.2c1.1-0.2,2,0.2,2.8,0.7l0.1,0c0.5,0.3,1,0.6,1.6,0.9c3.7,2.2,6.8,5.1,9.3,8.6
	c0.2,0.3,0.5,0.7,0.3,1c-0.1,0.3-0.5,0.4-1,0.4l-0.5,0.1c-0.7,0.1-1.5,0.2-2.2,0.2c-1.4,0-2,0.4-2.5,1.4c-0.2,0.5-0.5,0.8-0.9,0.9
	c-0.5,0.1-1-0.3-1.4-0.6c-0.3-0.3-0.6-0.6-0.9-0.8c-0.5-0.5-1-0.9-1.5-1.3c-1-0.8-1.7-1.8-2-3.1c-0.2-0.7-0.3-1.5-0.8-2
	c-1.1-1.2-2.3-2.4-4.1-2.4c-0.2,0-0.3-0.1-0.5-0.1c0,0-0.1,0-0.1,0c-0.2,0.6,0,0.9,0.1,1c0.1,0.1,0.1,0.1,0.2,0.2
	c0.1,0.1,0.2,0.1,0.2,0.2c0.3,0.3,0.7,0.6,1,1c0.7,0.7,1.5,1.5,2.2,2.3c0.2,0.2,0.3,0.5,0.3,0.8c-0.1,0.3-0.3,0.5-0.6,0.6
	c-0.8,0.5-1.5,0.5-2.3,0.2c-0.5-0.2-1.1-0.4-1.6-0.7c-0.6-0.2-0.9-0.6-0.8-1.1c0.1-0.6,0-0.9-0.9-1.1c-0.3-0.1-0.6-0.2-0.8-0.4
	c-0.1,0-0.1-0.1-0.2-0.1c0,0,0,0.1,0,0.2c-0.1,0.5-0.2,1-0.4,1.5c-0.1,0.2-0.1,0.3-0.1,0.5c-0.1,0.5-0.2,1.2-1,1.5c0,0,0,0,0,0.1
	l0,1.9c0,0.1,0,0.1,0,0.1c0.3,0,0.6,0.1,0.8,0.1l0.2,0c0.1,0,0.1,0,0.1,0c0,0,0-0.1,0-0.1c0.1-0.5,0.2-1,0.2-1.5l0.1-0.7
	c0-0.3,0.1-0.9,0.8-0.8c0.2,0,0.3,0,0.5,0c0.8,0,1.5,0.1,2.3,0.4c0.7,0.4,1.4,0.5,2.1,0.4c0.8-0.1,1.3,0.2,1.6,0.9
	c0.1,0.2,0.2,0.4,0.3,0.6c0.4,0.9,0.8,1.7,1.4,2.3c0.4,0.4,0.8,0.8,1.2,1.2c0.5,0.5,0.9,1,1.4,1.4c0.7,0.7,0.5,1.4,0.3,1.8l0,0.1
	c-0.3,0.8-1.1,0.6-1.4,0.5l-0.1,0c-1.2-0.3-2.3-0.1-3.3,0.5c-0.5,0.3-0.9,0.5-1.4,0.7c-1.4,0.7-2.7,1.4-3.6,2.7
	c-0.4,0.6-0.9,1.1-1.4,1.6c-0.6,0.6-1,1.3-1.1,2c-0.1,0.8-0.7,0.9-1,0.9c0,0,0,0.1,0,0.2c0,0.6,0,1.1,0,1.7c0,0.8,0,1.5,0,2.3
	c0,0.4,0.2,0.7,0.4,0.9c0.3,0.2,0.7,0.3,1,0.2c0.2,0,0.3-0.1,0.5-0.2c0.5-0.2,1.1-0.4,1.7-0.3l0.4,0.1c1.3,0.2,2.7,0.4,4,0.8
	c0.7,0.2,1.6,0.5,2.4,0.5c0.7,0,1.1,0.4,1.4,0.7l0.4,0.5c1.1,1.3,2.2,2.5,3.7,3.3c0.6,0.3,1.2,0.6,1.8,1c0.4,0.2,0.7,0.5,1.1,0.7
	c0.2,0.1,0.5,0.3,0.6,0.6c0.1,0.3,0,0.7-0.2,0.9l-0.2,0.3c-0.8,1.5-1.7,3.1-2.5,4.7c-0.4,0.8-1,1.4-1.8,1.7
	c-0.4,0.2-0.8,0.3-1.2,0.5c-0.3,0.1-0.6,0.3-0.9,0.4c-0.3,0.1-0.5,0.3-0.6,0.6c-0.2,0.5-0.3,0.9-0.5,1.3c-0.2,0.5-0.4,0.9-0.5,1.4
	c-0.2,0.5-0.4,0.8-0.9,1.1c-0.5,0.3-1,0.7-1.5,1c-0.8,0.5-1.5,1-2.3,1.5c-0.8,0.5-1.1,0.9-1.2,1.6c0,0.3-0.1,0.9-0.8,1.1
	c-0.5,0.1-1,0.2-1.5,0.3l-1.1,0.2c-0.3,0.1-0.6,0-0.7-0.1c-0.2-0.1-0.2-0.3-0.2-0.5c0-0.4-0.1-0.8-0.1-1.2c-0.1-0.8-0.2-1.5-0.1-2.3
	c0.1-0.4,0.2-0.8,0.3-1.2c0.2-1.2,0.5-2.4,0.9-3.6c0.1-0.4,0.2-0.8,0.1-1.1c-0.1-0.4-0.2-0.8-0.3-1.2c-0.5-2-1.1-4-2.2-5.7
	c-0.9,1.4-2.2,2-4,2c-3,0-6,0-8.9,0l-4,0v0L50.3,94.7C50.3,94.7,50.3,94.7,50.3,94.7z"/>
<path class="st4" d="M45,64.1c0-8.5,0-16.9,0-25.4c0-2,1.3-3.3,3.3-3.3c9.2,0,18.3,0,27.5,0c1.8,0,3.2,1.4,3.2,3.2
	c0,7,0,13.9,0,20.9c0,10,0,20,0,30c0,2.2-1.3,3.4-3.5,3.4c-9,0-18,0-27,0c-2.1,0-3.4-1.3-3.4-3.4C45,81,45,72.5,45,64.1z M75.7,63.2
	c0-7.2,0-14.4,0-21.5c0-0.6-0.2-0.8-0.8-0.8c-8.6,0-17.1,0-25.7,0c-1,0-1,0-1,1c0,14.3,0,28.5,0,42.8c0,0.7,0.2,0.8,0.9,0.8
	c8.6,0,17.2,0,25.8,0c0.6,0,0.7-0.2,0.7-0.7C75.7,77.6,75.7,70.4,75.7,63.2z M61.9,88c-1.3,0-2.6,0-3.8,0c-0.7,0-1,0.4-1.1,1
	c0,0.2,0,0.5,0,0.7c0,0.8,0.4,1.1,1.2,1.1c2.5,0,5,0,7.5,0c0.8,0,1.1-0.4,1.1-1.4c0-1.1-0.3-1.5-1.1-1.5C64.4,87.9,63.2,88,61.9,88z
	 M61.9,39c1.2,0,2.5,0,3.7,0c0.8,0,1.2-0.4,1.3-1c0-0.6-0.5-1-1.2-1c-2.5,0-4.9,0-7.4,0c-0.8,0-1.2,0.4-1.2,1c0,0.6,0.4,1,1.2,1
	C59.5,39,60.7,39,61.9,39z"/>
<path class="st4" d="M72.8,71.2c0,0.6,0,1.3,0,1.9c0,0.9-0.5,1.3-1.3,1.3c-5.2-0.1-9.7-1.9-13.5-5.6c-3.8-3.7-5.8-8.3-5.9-13.7
	c0-1.1,0.4-1.5,1.4-1.5c1.2,0,2.3,0,3.5,0c1,0,1.5,0.4,1.5,1.4c0,1.2,0.2,2.5,0.6,3.6c0.2,0.7,0,1.2-0.4,1.7
	c-0.6,0.6-1.2,1.2-1.8,1.8c-0.3,0.3-0.4,0.6-0.1,1c1.6,2.8,3.9,5,6.7,6.6c0.3,0.2,0.6,0.2,0.8-0.1c0.6-0.6,1.3-1.2,1.9-1.9
	c0.5-0.5,1-0.7,1.7-0.5c1.2,0.4,2.4,0.6,3.7,0.6c0.9,0,1.3,0.5,1.3,1.3C72.8,70,72.8,70.6,72.8,71.2C72.8,71.2,72.8,71.2,72.8,71.2z
	"/>
</svg>
