<?xml version="1.0" encoding="utf-8"?>
<!-- Generator: Adobe Illustrator 19.1.0, SVG Export Plug-In . SVG Version: 6.00 Build 0)  -->
<svg version="1.1" id="Layer_1" xmlns="http://www.w3.org/2000/svg" xmlns:xlink="http://www.w3.org/1999/xlink" x="0px" y="0px"
	 viewBox="-568 269.7 333.6 303.2" style="enable-background:new -568 269.7 333.6 303.2;" xml:space="preserve">
<style type="text/css">
	.st0{fill:url(#SVGID_1_);}
	.st1{fill:url(#SVGID_2_);}
	.st2{fill:url(#SVGID_3_);}
	.st3{fill:#BCBDBF;}
	.st4{fill:#6EC8F1;}
	.st5{fill:url(#SVGID_4_);}
	.st6{fill:url(#SVGID_5_);}
	.st7{fill:url(#SVGID_6_);}
	.st8{fill:url(#SVGID_7_);}
	.st9{fill:url(#SVGID_8_);}
	.st10{fill:#F5841F;}
	.st11{fill:url(#SVGID_9_);}
	.st12{fill:url(#SVGID_10_);}
	.st13{fill:url(#SVGID_11_);}
	.st14{fill:url(#SVGID_12_);}
	.st15{fill:url(#SVGID_13_);}
	.st16{fill:#678CA6;}
	.st17{fill:url(#SVGID_14_);}
	.st18{fill:url(#SVGID_15_);}
	.st19{fill:url(#SVGID_16_);}
	.st20{fill:url(#SVGID_17_);}
	.st21{fill:url(#SVGID_18_);}
	.st22{fill:#696BAD;}
	.st23{fill:url(#SVGID_19_);}
	.st24{fill:url(#SVGID_20_);}
	.st25{fill:url(#SVGID_21_);}
	.st26{fill:url(#SVGID_22_);}
	.st27{fill:url(#SVGID_23_);}
	.st28{opacity:0.27;}
	.st29{fill:#8F8F8F;}
	.st30{fill:url(#SVGID_24_);}
	.st31{fill:url(#SVGID_25_);}
	.st32{fill:url(#SVGID_26_);}
	.st33{fill:url(#SVGID_27_);}
	.st34{fill:url(#SVGID_28_);}
	.st35{fill:#F37846;}
	.st36{fill:url(#SVGID_29_);}
	.st37{fill:url(#SVGID_30_);}
	.st38{fill:url(#SVGID_31_);}
	.st39{fill:url(#SVGID_32_);}
	.st40{fill:url(#SVGID_33_);}
	.st41{fill:#0080B4;}
	.st42{fill:url(#SVGID_34_);}
	.st43{fill:url(#SVGID_35_);}
	.st44{fill:url(#SVGID_36_);}
	.st45{fill:url(#SVGID_37_);}
	.st46{fill:url(#SVGID_38_);}
	.st47{fill:#F49292;}
	.st48{fill:url(#SVGID_39_);}
	.st49{fill:url(#SVGID_40_);}
	.st50{fill:url(#SVGID_41_);}
	.st51{fill:url(#SVGID_42_);}
	.st52{fill:url(#SVGID_43_);}
	.st53{fill:#00A7B7;}
	.st54{fill:url(#SVGID_44_);}
	.st55{fill:url(#SVGID_45_);}
	.st56{fill:none;}
	.st57{fill:#FFFFFF;}
	.st58{fill:#221915;stroke:#221915;stroke-width:0.2075;stroke-miterlimit:22.9256;}
	.st59{fill:#221915;}
	.st60{fill:#271A19;}
	.st61{fill:#3E3A39;}
	.st62{fill:#EEEDED;}
	.st63{fill:#878787;}
	.st64{fill:#E4AF8D;}
	.st65{fill:#E7B99B;}
	.st66{fill:#262626;}
	.st67{fill:#EEAF6B;}
	.st68{clip-path:url(#SVGID_47_);}
	.st69{fill:#437BBD;}
	.st70{fill:none;stroke:#FFFFFF;stroke-width:0.3235;stroke-linecap:round;stroke-linejoin:round;stroke-miterlimit:10;}
	.st71{fill:#ECECEC;}
	.st72{clip-path:url(#SVGID_49_);fill:#FFFFFF;}
	.st73{fill:#EAA081;}
	.st74{fill:#F9BE96;}
	.st75{clip-path:url(#SVGID_53_);fill:#EAA081;}
	.st76{fill:#426170;}
	.st77{fill:#B1CD5A;}
	.st78{fill:#FBD7C0;}
	.st79{fill:#F3C8B3;}
	.st80{clip-path:url(#SVGID_56_);fill:#F3C8B3;}
	.st81{fill:#284354;}
	.st82{fill:#707070;}
	.st83{fill:none;stroke:#BFBFBF;stroke-width:0.2426;stroke-linecap:round;stroke-linejoin:round;stroke-miterlimit:10;}
	.st84{fill:#4585C5;}
	.st85{opacity:0.27;fill:#FFFFFF;enable-background:new    ;}
	.st86{clip-path:url(#SVGID_58_);}
	.st87{fill:#282826;}
	.st88{fill:#FCC17B;}
	.st89{fill:#3C3D3C;}
	.st90{fill:#F9BF79;}
	.st91{fill:#562900;}
	.st92{fill:#1B1B1A;}
	.st93{fill:#F6F6F6;}
	.st94{fill:#F1F1F1;}
	.st95{fill:#F3F3F3;}
	.st96{fill:#464646;}
	.st97{fill:#C99A62;}
	.st98{fill:#040403;}
	.st99{fill:#A4D4DE;}
	.st100{fill:#FCC9A7;}
	.st101{fill:#F9A772;}
	.st102{fill:#F2C09E;}
	.st103{fill:#F7EBE7;}
	.st104{fill:#E49258;}
	.st105{fill:#1F252A;}
	.st106{fill:#4C1827;}
	.st107{fill:#1C2226;}
	.st108{fill:#EFEFEF;}
	.st109{fill:none;stroke:#2A272D;stroke-width:0.663;stroke-miterlimit:10;}
	.st110{fill:#FFEEE3;}
	.st111{fill:#EFC375;}
	.st112{fill:#F7E5DA;}
	.st113{clip-path:url(#SVGID_62_);fill:#1C2226;}
	.st114{fill:#FFD686;}
	.st115{fill:#54585A;}
	.st116{fill:#2A272D;}
	.st117{fill:none;stroke:#EFC375;stroke-width:0.2617;stroke-linecap:round;stroke-linejoin:round;stroke-miterlimit:10;}
	.st118{fill:#092330;}
	.st119{fill:#0C2C40;}
	.st120{fill:#F7ECE7;}
	.st121{fill:#FCF3F0;}
	.st122{fill:#F4BE9A;}
	.st123{clip-path:url(#SVGID_64_);fill:#1C2226;}
	.st124{fill:none;stroke:#EADDD8;stroke-width:0.3286;stroke-linecap:round;stroke-linejoin:round;stroke-miterlimit:10;}
	.st125{fill:#AFAFAF;}
	.st126{fill:#D1D1D1;}
	.st127{fill:#CE982B;}
	.st128{fill:#FFB031;}
	.st129{fill:#FF5A1F;}
	.st130{fill-rule:evenodd;clip-rule:evenodd;fill:#54585A;}
	.st131{fill-rule:evenodd;clip-rule:evenodd;fill:#0C2C40;}
	.st132{fill-rule:evenodd;clip-rule:evenodd;fill:#647380;}
	.st133{fill:#69C52B;}
	.st134{fill-rule:evenodd;clip-rule:evenodd;fill:#2484DA;}
	.st135{opacity:0.47;}
	.st136{fill:#FFC8A6;}
	.st137{fill:#F9BE9D;}
	.st138{fill:#EFBCA0;}
	.st139{fill:#FFDFD5;}
	.st140{fill:#1B384C;}
	.st141{fill:#FFC84B;}
	.st142{fill:#375968;}
	.st143{fill:#FBF0E3;}
	.st144{fill:#E6E6E6;}
	.st145{fill:#808080;}
	.st146{fill:#F6BB1D;}
	.st147{opacity:0.97;fill:#75B812;}
	.st148{fill:#DA3331;}
	.st149{fill:#F5F5F5;}
	.st150{fill:#F0F0F0;}
	.st151{opacity:0.73;}
	.st152{fill:#83B9EA;}
	.st153{opacity:0.44;}
	.st154{fill:#FAD569;}
	.st155{fill:url(#SVGID_65_);}
	.st156{fill:#F5F6F7;}
	.st157{font-family:'MyriadPro-Regular';}
	.st158{font-size:5.7556px;}
	.st159{opacity:0.41;}
	.st160{fill:#0096A0;}
	.st161{fill:#F2EA22;}
	.st162{fill:#5F1CED;}
	.st163{fill-rule:evenodd;clip-rule:evenodd;fill:#FFB031;}
	.st164{fill:#1D3945;}
	.st165{opacity:0.33;}
	.st166{fill:none;stroke:#D1D1D1;stroke-width:0.5806;stroke-miterlimit:10;}
	.st167{fill:none;stroke:#D1D1D1;stroke-width:0.2903;stroke-miterlimit:10;}
	.st168{fill:none;stroke:#D1D1D1;stroke-width:4.645;stroke-miterlimit:10;}
	.st169{fill:none;stroke:#D1D1D1;stroke-width:3.4838;stroke-miterlimit:10;}
	.st170{opacity:0.28;fill:url(#SVGID_66_);enable-background:new    ;}
	.st171{fill:#D6E0FF;}
	.st172{opacity:0.6392;fill:#454545;enable-background:new    ;}
	.st173{fill:#454545;}
	.st174{opacity:0.4;fill:#FFFFFF;enable-background:new    ;}
	.st175{opacity:0.6392;fill:#FFFFFF;enable-background:new    ;}
	.st176{fill:url(#SVGID_67_);}
	.st177{fill:url(#SVGID_68_);}
	.st178{fill:url(#SVGID_70_);}
	.st179{fill:url(#SVGID_71_);}
	.st180{fill:url(#SVGID_72_);}
	.st181{fill:url(#SVGID_73_);}
	.st182{fill:url(#SVGID_74_);}
	.st183{fill:url(#SVGID_75_);}
	.st184{fill:url(#SVGID_76_);}
	.st185{fill:url(#SVGID_77_);}
	.st186{fill:url(#SVGID_78_);}
	.st187{fill:url(#SVGID_79_);}
	.st188{fill:url(#SVGID_80_);}
	.st189{fill:url(#SVGID_81_);}
	.st190{opacity:0.1797;fill:#0000B6;enable-background:new    ;}
	.st191{opacity:0.1797;fill:#0000C2;enable-background:new    ;}
	.st192{fill:url(#SVGID_82_);}
	.st193{fill:url(#SVGID_83_);}
	.st194{fill:url(#SVGID_84_);}
	.st195{fill:url(#SVGID_85_);}
	.st196{fill:url(#SVGID_86_);}
	.st197{fill:url(#SVGID_87_);}
	.st198{fill:url(#SVGID_88_);}
	.st199{fill:url(#SVGID_89_);}
	.st200{fill:url(#SVGID_90_);}
	.st201{fill:url(#SVGID_91_);}
	.st202{fill:url(#SVGID_93_);}
	.st203{fill:#386CC2;}
	.st204{fill:#FF9012;}
	.st205{fill:url(#SVGID_94_);}
	.st206{fill:url(#SVGID_95_);}
	.st207{opacity:0.7;fill:url(#SVGID_97_);enable-background:new    ;}
	.st208{fill:url(#SVGID_99_);}
	.st209{fill:url(#SVGID_101_);}
	.st210{opacity:0.7;fill:url(#SVGID_103_);enable-background:new    ;}
	.st211{fill:url(#SVGID_105_);}
	.st212{fill:url(#SVGID_106_);}
	.st213{opacity:0.7;fill:url(#SVGID_107_);enable-background:new    ;}
	.st214{fill:url(#SVGID_108_);}
	.st215{fill:url(#SVGID_109_);}
	.st216{opacity:0.7;fill:url(#SVGID_110_);enable-background:new    ;}
	.st217{fill:url(#SVGID_111_);}
	.st218{fill:url(#SVGID_112_);}
	.st219{opacity:0.7;fill:url(#SVGID_113_);enable-background:new    ;}
	.st220{fill:url(#SVGID_114_);}
	.st221{fill:url(#SVGID_115_);}
	.st222{opacity:0.7;fill:url(#SVGID_116_);enable-background:new    ;}
	.st223{fill:url(#SVGID_117_);}
	.st224{fill:url(#SVGID_118_);}
	.st225{opacity:0.7;fill:url(#SVGID_119_);enable-background:new    ;}
	.st226{fill:url(#SVGID_120_);}
	.st227{fill:url(#SVGID_121_);}
	.st228{opacity:0.7;fill:url(#SVGID_122_);enable-background:new    ;}
	.st229{fill:url(#SVGID_123_);}
	.st230{fill:url(#SVGID_124_);}
	.st231{opacity:0.7;fill:url(#SVGID_125_);enable-background:new    ;}
	.st232{fill:url(#SVGID_126_);}
	.st233{fill:url(#SVGID_127_);}
	.st234{opacity:0.7;fill:url(#SVGID_128_);enable-background:new    ;}
	.st235{fill:url(#SVGID_129_);}
	.st236{fill:url(#SVGID_130_);}
	.st237{opacity:0.7;fill:url(#SVGID_131_);enable-background:new    ;}
	.st238{fill:url(#SVGID_132_);}
	.st239{fill:url(#SVGID_133_);}
	.st240{opacity:0.7;fill:url(#SVGID_134_);enable-background:new    ;}
	.st241{fill:url(#SVGID_135_);}
	.st242{fill:url(#SVGID_136_);}
	.st243{opacity:0.7;fill:url(#SVGID_137_);enable-background:new    ;}
	.st244{fill:url(#SVGID_138_);}
	.st245{fill:url(#SVGID_139_);}
	.st246{opacity:0.7;fill:url(#SVGID_140_);enable-background:new    ;}
	.st247{opacity:0.45;}
	.st248{fill:#B5B8BA;}
	.st249{fill:#7E7E7E;}
	.st250{fill:#A6A6A6;}
	.st251{fill:#E0E1E3;}
	.st252{fill:#B6C6D2;}
	.st253{fill:#E1E4E5;}
	.st254{fill:#C0C3C5;}
	.st255{enable-background:new    ;}
	.st256{clip-path:url(#SVGID_142_);enable-background:new    ;}
	.st257{fill:#070707;}
	.st258{clip-path:url(#SVGID_144_);enable-background:new    ;}
	.st259{fill:#121212;}
	.st260{clip-path:url(#SVGID_146_);enable-background:new    ;}
	.st261{clip-path:url(#SVGID_148_);enable-background:new    ;}
	.st262{clip-path:url(#SVGID_150_);enable-background:new    ;}
	.st263{clip-path:url(#SVGID_152_);enable-background:new    ;}
	.st264{clip-path:url(#SVGID_154_);enable-background:new    ;}
	.st265{clip-path:url(#SVGID_156_);enable-background:new    ;}
	.st266{clip-path:url(#SVGID_158_);enable-background:new    ;}
	.st267{clip-path:url(#SVGID_160_);enable-background:new    ;}
	.st268{fill:none;stroke:#BABAB9;stroke-width:3.4875;stroke-linecap:round;stroke-miterlimit:10;}
	.st269{fill:#C1C7C7;}
	.st270{clip-path:url(#SVGID_162_);enable-background:new    ;}
	.st271{fill:#CFD4D5;}
	.st272{fill:#E0E0E0;}
	.st273{clip-path:url(#SVGID_164_);}
	.st274{fill:#DBD2DB;}
	.st275{fill:#AEB4B4;}
	.st276{fill:#E8E8E8;}
	.st277{fill:#B6BDBC;}
	.st278{clip-path:url(#SVGID_166_);enable-background:new    ;}
	.st279{fill:#DADBE2;}
	.st280{fill:#E2DDDE;}
	.st281{fill:#CED5D4;}
	.st282{fill:#D6D8DE;}
	.st283{fill:#DED9D9;}
	.st284{fill:#D7D1D1;}
	.st285{fill:#EFBCA7;}
	.st286{fill:#434343;}
	.st287{fill:#171717;}
	.st288{fill:#505050;}
	.st289{fill:#9A9A9A;}
	.st290{fill:#6C6C6C;}
	.st291{fill:#1A1A1A;}
	.st292{fill:#909090;}
	.st293{fill:#E89B83;}
	.st294{fill:#FF6F15;}
	.st295{fill:#414141;}
	.st296{fill:#683D1C;}
	.st297{fill:#AC95E8;}
	.st298{clip-path:url(#SVGID_168_);enable-background:new    ;}
	.st299{fill:#EB63A5;}
	.st300{fill:#F12D7B;}
	.st301{fill:#EB1464;}
	.st302{fill:#8995E8;}
	.st303{fill:#DD2662;}
	.st304{fill:#DE4F8A;}
	.st305{fill:#E03074;}
	.st306{fill:#E85FA4;}
	.st307{fill:#E21C67;}
	.st308{clip-path:url(#SVGID_170_);fill:#E85FA4;}
	.st309{clip-path:url(#SVGID_172_);fill:#8995E8;}
	.st310{clip-path:url(#SVGID_174_);fill:#8995E8;}
	.st311{fill:#8184E8;}
	.st312{fill:#DDDDD4;}
	.st313{fill:#DFCCCE;}
	.st314{fill:#EFEAE3;}
	.st315{fill:#C2D1E8;}
	.st316{clip-path:url(#SVGID_176_);fill:#C2D1E8;}
	.st317{clip-path:url(#SVGID_178_);fill:#C2D1E8;}
	.st318{fill:#F5F1E9;}
	.st319{clip-path:url(#SVGID_180_);}
	.st320{clip-path:url(#SVGID_182_);fill:#E85FA4;}
	.st321{clip-path:url(#SVGID_184_);fill:#8995E8;}
	.st322{clip-path:url(#SVGID_186_);fill:#8995E8;}
	.st323{fill:#ACBBE8;}
	.st324{clip-path:url(#SVGID_188_);}
	.st325{fill:#AEAAAB;}
	.st326{fill:#C7C1C1;}
	.st327{clip-path:url(#SVGID_190_);enable-background:new    ;}
	.st328{clip-path:url(#SVGID_192_);}
	.st329{clip-path:url(#SVGID_194_);enable-background:new    ;}
	.st330{fill:#B0ABAB;}
	.st331{fill:#C1BBBB;}
	.st332{clip-path:url(#SVGID_196_);enable-background:new    ;}
	.st333{clip-path:url(#SVGID_198_);enable-background:new    ;}
	.st334{clip-path:url(#SVGID_200_);enable-background:new    ;}
	.st335{fill:#CCC6C6;}
	.st336{fill:#CAC3C3;}
	.st337{fill:#C8C2C2;}
	.st338{fill:#C5C0C0;}
	.st339{fill:#C4BEBE;}
	.st340{fill:#C2BCBD;}
	.st341{fill:#BFBABA;}
	.st342{fill:#BDB8B7;}
	.st343{fill:#BB9789;}
	.st344{clip-path:url(#SVGID_202_);enable-background:new    ;}
	.st345{clip-path:url(#SVGID_204_);enable-background:new    ;}
	.st346{clip-path:url(#SVGID_206_);enable-background:new    ;}
	.st347{fill:#B1ACAC;}
	.st348{fill:#B2ACAD;}
	.st349{fill:#D2CCCC;}
	.st350{clip-path:url(#SVGID_208_);enable-background:new    ;}
	.st351{fill:#B3ADAE;}
	.st352{fill:#B5B0B1;}
	.st353{fill:#B8B2B3;}
	.st354{fill:#B9B3B5;}
	.st355{fill:#4A4949;}
	.st356{fill:#C7C7C7;}
	.st357{clip-path:url(#SVGID_210_);fill:#1A1A1A;}
</style>
<g>
	<path class="st99" d="M-366.3,408.9l0.1-1l0,0c1,0.2,1.9,0.3,2.9,0.4l-0.1,1C-364.3,409.2-365.3,409-366.3,408.9z M-369.3,408.3
		c-0.5-0.1-1.1-0.3-1.6-0.4c-0.4-0.1-0.9-0.2-1.3-0.4l0.3-1c0.4,0.1,0.9,0.3,1.3,0.4c0.5,0.1,1,0.3,1.6,0.4L-369.3,408.3z
		 M-360.3,409.5l0-1c1,0,2,0.1,3,0.1l0,1C-358.3,409.6-359.3,409.5-360.3,409.5z M-375.1,406.6c-1-0.3-1.9-0.7-2.8-1.1l0.4-0.9
		c0.9,0.4,1.8,0.8,2.8,1.1L-375.1,406.6z M-354.2,409.4l-0.1-1c1-0.1,2-0.2,3-0.3l0.1,1C-352.2,409.3-353.2,409.4-354.2,409.4z
		 M-380.7,404.2c-0.9-0.5-1.8-0.9-2.7-1.5l0.5-0.9c0.9,0.5,1.7,1,2.6,1.4L-380.7,404.2z M-348.2,408.7l-0.2-1c1-0.2,1.9-0.4,2.9-0.6
		l0.2,1C-346.2,408.4-347.2,408.6-348.2,408.7z M-385.9,401.1c-0.8-0.6-1.7-1.2-2.5-1.8l0.6-0.8c0.8,0.6,1.6,1.2,2.4,1.7
		L-385.9,401.1z M-342.3,407.4l-0.3-1c1-0.3,1.9-0.6,2.8-0.9l0.3,0.9C-340.4,406.9-341.3,407.2-342.3,407.4z M-390.7,397.4
		c-0.8-0.7-1.5-1.4-2.2-2.1l0.7-0.7c0.7,0.7,1.4,1.4,2.1,2.1L-390.7,397.4z M-336.6,405.5l-0.4-0.9c0.9-0.4,1.8-0.8,2.7-1.2l0.4,0.9
		C-334.7,404.7-335.6,405.1-336.6,405.5z M-394.9,393c-0.7-0.8-1.3-1.6-1.9-2.4l0.8-0.6c0.6,0.8,1.2,1.6,1.8,2.3L-394.9,393z
		 M-331.1,402.9l-0.5-0.9c0.9-0.5,1.7-1,2.6-1.5l0.5,0.8C-329.3,401.9-330.2,402.4-331.1,402.9z M-398.5,388.1
		c-0.5-0.9-1-1.8-1.5-2.7l0.9-0.4c0.4,0.9,0.9,1.8,1.4,2.6L-398.5,388.1z M-401.2,382.6l-0.2-0.5c-0.3-0.8-0.6-1.5-0.9-2.3l0.9-0.4
		c0.3,0.8,0.6,1.6,0.9,2.3l0.2,0.5L-401.2,382.6z M-403.4,377c-0.4-1-0.7-2-1-2.9l1-0.3c0.3,0.9,0.6,1.8,1,2.8L-403.4,377z
		 M-405.2,371.2c-0.3-1-0.5-2-0.6-3l1-0.2c0.1,0.9,0.3,1.9,0.6,2.9L-405.2,371.2z M-406.1,365.2c0-1.1,0-2.1,0.1-3.1l1,0.1
		c-0.1,0.9-0.1,1.9-0.1,2.9L-406.1,365.2z M-408.8,361.9l0.1-1l0.2,0c0.8,0.1,1.7,0,2.6-0.1l0.2,1c-1,0.2-2,0.2-2.9,0.1
		L-408.8,361.9z M-411.8,361.3c-0.9-0.3-1.9-0.7-2.8-1.2l0.4-0.9c0.9,0.4,1.8,0.8,2.7,1.1L-411.8,361.3z M-402.6,361l-0.3-0.9
		c0.9-0.3,1.8-0.7,2.7-1.2l0.5,0.9C-400.7,360.2-401.7,360.7-402.6,361z M-417.3,358.6c-0.9-0.5-1.7-1.1-2.5-1.8l0.6-0.8
		c0.8,0.6,1.6,1.2,2.4,1.7L-417.3,358.6z M-404.4,359.4l-1-0.3c0.3-0.9,0.6-1.7,1-2.5l0.2-0.3l0.9,0.5l-0.2,0.3
		C-403.9,357.8-404.2,358.6-404.4,359.4z M-422.1,354.8c-0.8-0.8-1.4-1.6-2-2.4l0.8-0.6c0.5,0.7,1.2,1.5,1.9,2.2L-422.1,354.8z
		 M-397.3,358l-0.6-0.8c0.8-0.6,1.5-1.3,2.1-2l0.8,0.7C-395.7,356.6-396.4,357.3-397.3,358z M-401.7,354.2l-0.8-0.6
		c0.6-0.8,1.2-1.5,1.9-2.4l0.8,0.7C-400.6,352.7-401.2,353.5-401.7,354.2z M-425.6,349.7c-0.5-0.9-0.9-1.8-1.2-2.8l0.9-0.4
		c0.4,0.9,0.8,1.8,1.2,2.7L-425.6,349.7z M-393.3,353.2l-0.9-0.4c0.2-0.4,0.3-0.9,0.4-1.3c0.1-0.5,0.1-1,0-1.4l1-0.3
		c0.1,0.5,0.2,1.1,0,1.8C-393,352.2-393.1,352.7-393.3,353.2z M-397.9,349.7l-0.7-0.7c0.7-0.6,1.7-1.5,3.1-1.3l-0.1,1
		C-396.4,348.6-397.1,348.9-397.9,349.7z M-427.8,344.1c-0.3-1-0.5-2-0.7-3l1-0.2c0.2,1,0.4,1.9,0.7,2.9L-427.8,344.1z M-429,338.1
		c-0.1-1-0.2-2-0.2-3l1,0c0,1,0.1,2,0.2,3L-429,338.1z M-429.1,332c0.1-1,0.2-2,0.3-3l1,0.1c-0.1,1-0.2,2-0.3,2.9L-429.1,332z
		 M-427.2,326.2l-1-0.2c0.2-1,0.5-2,0.8-2.9l1,0.3C-426.8,324.3-427,325.2-427.2,326.2z M-425.5,320.5l-0.9-0.4
		c0.4-0.9,0.8-1.9,1.2-2.8l0.9,0.4C-424.8,318.7-425.2,319.6-425.5,320.5z M-423,315.1l-0.9-0.5c0.5-0.8,1-1.7,1.5-2.5l0.1-0.1
		l0.8,0.6l-0.1,0.1C-422.1,313.5-422.6,314.3-423,315.1z M-419.8,310.2l-0.8-0.6c0.6-0.8,1.3-1.6,2-2.3l0.7,0.7
		C-418.5,308.7-419.2,309.4-419.8,310.2z M-358.5,315.4c-0.3-0.9-0.7-1.8-1.1-2.7l0.9-0.4c0.4,0.9,0.8,1.9,1.2,2.8L-358.5,315.4z
		 M-415.7,305.9l-0.7-0.7c0.7-0.7,1.5-1.3,2.3-2l0.6,0.8C-414.2,304.6-415,305.2-415.7,305.9z M-411,302.2l-0.5-0.8
		c0.8-0.6,1.7-1.1,2.6-1.6l0.5,0.9C-409.4,301.2-410.2,301.7-411,302.2z M-361,310.1c-0.5-0.8-1.1-1.7-1.7-2.4l0.8-0.6
		c0.6,0.8,1.2,1.7,1.7,2.5L-361,310.1z M-405.9,299.4l-0.4-0.9c0.9-0.4,1.9-0.8,2.8-1.2l0.4,0.9C-404,298.6-405,299-405.9,299.4z
		 M-364.6,305.3c-0.7-0.7-1.4-1.4-2.1-2.1l0.7-0.7c0.8,0.7,1.5,1.4,2.2,2.1L-364.6,305.3z M-400.3,297.3l-0.3-1c1-0.3,2-0.5,2.9-0.7
		l0.2,1C-398.4,296.8-399.4,297-400.3,297.3z M-369,301.4c-0.8-0.6-1.6-1.1-2.5-1.6l0.5-0.9c0.9,0.5,1.7,1,2.6,1.6L-369,301.4z
		 M-394.5,296l-0.1-1c1-0.1,2-0.3,3-0.3l0.1,1C-392.5,295.8-393.5,295.9-394.5,296z M-374.1,298.6c-0.9-0.4-1.8-0.7-2.8-1.1l0.3-0.9
		c1,0.3,1.9,0.7,2.8,1.1L-374.1,298.6z M-388.6,295.6l0-1c1,0,2,0,3,0.1l-0.1,1C-386.6,295.7-387.6,295.6-388.6,295.6z
		 M-379.8,296.7c-0.9-0.2-1.9-0.4-2.8-0.6l-0.1,0l0.2-1l0.1,0c1,0.2,1.9,0.4,2.9,0.6L-379.8,296.7z"/>
</g>
<g>
	<g>
		<g>
			<g>
				<circle class="st100" cx="-291.9" cy="387" r="2.3"/>
				<polygon class="st100" points="-291,386.2 -288.4,391.5 -290.6,392.6 -292.7,388.8 				"/>
			</g>
			<path class="st101" d="M-273.7,395.1l-11.8,6.2c-0.5,0.3-1.1,0.1-1.3-0.4l-5.5-9.9l3.1-2l4.4,7.3l8.3-5.2c1.2-0.9,3-0.5,3.7,0.9
				l0,0C-272.2,393.1-272.6,394.5-273.7,395.1z"/>
		</g>
		<path class="st102" d="M-275.6,425.5c0,0,2.9,5.1,4.6,8.3c0.3,0.5,0.7,0.9,1.1,1.3c1.2,1.3,2.3,2.7,3.5,5.2
			c1.9,3.7,5.1,11.2,5.1,11.2l2.2-0.8l-2.4-8.2c0,0-0.4-7.2-5-11.1c0,0-1.3-2.2-2.3-6.5L-275.6,425.5z"/>
		<path class="st100" d="M-279.7,423.3c0,0,3.1,19.3,2.5,28.8l2.6,0.1l0.8-8.3c0,0,2.3-5.7,0-10.7l1.1-11.2L-279.7,423.3z"/>
		<path class="st101" d="M-272.1,387.1c0,0,2.9,2.6,2.2,6.5c-0.7,3.9-2.9,5.6-2.5,8.1l-8.4-0.3l0.2-4.8c0,0-2.7-2.1,0.2-5.4l2.5-2.9
			l2.3,0.3L-272.1,387.1z"/>
		<polygon class="st103" points="-276.5,386.4 -278.2,387.4 -279.3,389.3 -277,388.6 		"/>
		<g>
			<path class="st100" d="M-275.7,388.7L-275.7,388.7c0.5,0,1-0.2,1.4-0.4c0.4-0.2,0.6-0.6,0.6-1.1l-0.1-8.1l-3.6,0l0.1,8
				C-277.2,388-276.5,388.7-275.7,388.7z"/>
			<path class="st102" d="M-277.2,384.8l1.5-2.1c0,0,0.9,2.4-1.5,3.1L-277.2,384.8z"/>
			<circle class="st100" cx="-276" cy="379.1" r="4.4"/>
			<path class="st100" d="M-277.5,384.9L-277.5,384.9c1.1,0,2.1-0.9,2.1-2.1l0-3l-4.9-0.7l0,2.9
				C-280.4,383.6-279.1,384.9-277.5,384.9z"/>
			<path class="st100" d="M-280.3,380.1l-1,1.4c-0.1,0.2,0,0.5,0.3,0.5l1.1,0.2L-280.3,380.1z"/>
			<g>
				<defs>
					<circle id="SVGID_59_" cx="-276" cy="379.1" r="4.4"/>
				</defs>
				<clipPath id="SVGID_1_">
					<use xlink:href="#SVGID_59_"  style="overflow:visible;"/>
				</clipPath>
			</g>
		</g>
		<path class="st103" d="M-273.6,385.7l-4.4,2.7l0.9,1.9l4.9-3.2C-272.1,387.1-272.7,386-273.6,385.7z"/>
		<polygon class="st103" points="-272.5,401.7 -271.9,403.7 -281,403.4 -280.8,401.4 		"/>
		<path class="st104" d="M-281,403.4l-0.4,23c0,0,9.2,1.8,14.2-1.3c0,0-2-7.4-1.6-10.4c0.7-5.6-0.1-8-3.1-11L-281,403.4z"/>
		<path class="st105" d="M-273.7,451c-0.1-0.2-0.3-0.3-0.5-0.2c-0.3,0.3-0.9,0.6-1.8,0.5c-0.9-0.1-1.2-0.7-1.3-1.1
			c-0.1-0.2-0.2-0.3-0.4-0.2l-5.6,2.5c-0.3,0.2-0.6,0.5-0.8,0.8l0,0c-0.1,0.4,0.1,0.8,0.4,0.8l9.5,0.2c0.4,0,0.7-0.3,0.7-0.8
			l-0.1-2.1c0,0,0-0.1,0-0.1L-273.7,451z"/>
		<path class="st105" d="M-258.7,449.1c-0.1-0.2-0.4-0.2-0.5-0.1c-0.3,0.4-0.8,0.8-1.6,0.9c-0.9,0.1-1.4-0.3-1.6-0.7
			c-0.1-0.2-0.3-0.2-0.5-0.1l-4.7,3.9c-0.3,0.2-0.5,0.6-0.5,1l0,0c0,0.4,0.3,0.7,0.6,0.6l9.2-2.3c0.4-0.1,0.6-0.5,0.4-0.9l-0.6-2
			c0,0,0-0.1,0-0.1L-258.7,449.1z"/>
		<path class="st106" d="M-275.5,381l-1.9-0.1c0,0-0.2-1.6-0.5-2c-0.4-0.4-0.5-2.1-0.5-2.1s-0.3,1.1-0.1,2.2l-2.7-0.1
			c0,0-0.6-4.7,5.3-5c5.9-0.2,5.8,5.4,4.6,6.5c-0.9,0.9-2.4,2.5-2.4,2.5S-273.6,381-275.5,381z"/>
		<circle class="st100" cx="-275.6" cy="380.4" r="1.3"/>
		<circle class="st106" cx="-269.2" cy="381.4" r="2.8"/>
		<g>
			<circle class="st100" cx="-274.8" cy="408.8" r="2.3"/>
			<polygon class="st100" points="-276,406.8 -270.9,403.9 -269.6,405.9 -273.3,408.3 			"/>
		</g>
		<path class="st101" d="M-270.6,389l8.2,10.8c0.3,0.4,0.3,1-0.2,1.4l-8.9,6.8l-2.6-2.7l6.5-5.3l-6.7-7.5c-1.1-1-1-2.9,0.2-3.8l0,0
			C-272.8,387.8-271.4,388-270.6,389z"/>
	</g>
	<g>
		<path class="st107" d="M-295,381.7l2.4,6.5c0.1,0.2,0.3,0.3,0.4,0.2l3.3-1c0.2-0.1,0.3-0.3,0.2-0.5l-2.5-6.4
			c-0.1-0.2-0.3-0.3-0.4-0.2l-3.2,0.9C-295,381.3-295.1,381.5-295,381.7z"/>
		<path class="st108" d="M-294.2,382l1.8,5.2c0,0.1,0.2,0.2,0.3,0.2l2.4-0.6c0.1,0,0.2-0.2,0.2-0.3l-2.1-5.3c0-0.1-0.2-0.2-0.3-0.1
			l-2.2,0.7C-294.1,381.7-294.2,381.8-294.2,382z"/>
	</g>
</g>
<g>
	<g>
		<line class="st109" x1="-504.6" y1="417.7" x2="-504.6" y2="445.8"/>
		<line class="st109" x1="-484.3" y1="417.7" x2="-484.3" y2="445.8"/>
		<path class="st110" d="M-516.6,426.4c0,0,3.9-0.9,4.5,1.7c0.5,2.2-4.8,2.1-4.8,2.1l-11.7,0.1c0,0-4.4,0.5-6.6-4.6
			c-2.2-5.1-4.3-18.3-4.3-18.3s-0.3-1.8,1.2-2.1c1.8-0.3,2.1,3.5,2.1,3.5s2.7,16.4,6.6,17.2c0.6,0.1,1.1,0.6,1.7,0.6L-516.6,426.4z"
			/>
		<g>
			<g>
				<path class="st102" d="M-506.2,413.1l3.7-0.3c0.3,0,0.6,0.1,0.8,0.4l2.1,3.1l-1.8,0.1l-1-1.5c0,0-2.8,0.7-3.9,0L-506.2,413.1z"
					/>
				<g>
					<path class="st111" d="M-521.1,403.1l4.9,9.1l10.2,0.3v3.4l-10.8,0.5c-1.4,0.1-2.8-0.6-3.6-1.8l-4.9-8.8L-521.1,403.1z"/>
					<polygon class="st112" points="-505.9,412.5 -505.9,415.9 -507.1,415.9 -507.1,412.5 					"/>
				</g>
			</g>
			<g>
				<polygon class="st100" points="-511.3,439.6 -510.7,443.7 -507.8,443.5 -508.2,439.3 				"/>
				<path class="st105" d="M-511.3,443.2c0.1-0.2,0.3-0.3,0.5-0.2c0.3,0.2,0.9,0.5,1.7,0.4c0.8-0.1,1.1-0.6,1.2-0.9
					c0.1-0.2,0.2-0.3,0.4-0.2l5.2,2.1c0.3,0.1,0.6,0.4,0.7,0.7l0,0c0.1,0.3-0.1,0.6-0.4,0.6l-8.9,0.1c-0.3,0-0.6-0.3-0.6-0.6
					l0.1-1.7c0,0,0-0.1,0-0.1L-511.3,443.2z"/>
			</g>
			<g>
				<path class="st110" d="M-520.1,402.3l0.8,1.3c0.1,0.1,0.1,0.4-0.2,0.5l-0.3,0.2l-0.7-1.1L-520.1,402.3z"/>
				<path class="st100" d="M-521.7,403.7l-0.3-0.1c-0.9-0.4-1.2-1.5-0.8-2.3l2.8-5.8l3.1,1.5l-3.3,6.5
					C-520.4,404.1-520.9,404-521.7,403.7z"/>
				<circle class="st100" cx="-517.9" cy="396.5" r="3.8"/>
				<path class="st100" d="M-519,401.8L-519,401.8c-0.9-0.4-1.3-1.5-0.8-2.4l1.6-3.3l3.8,1.9l-1.3,2.7
					C-516.3,401.9-517.8,402.4-519,401.8z"/>
				<path class="st100" d="M-514.9,398.8l0.2,1.5c0,0.2-0.2,0.4-0.4,0.3l-0.9-0.3L-514.9,398.8z"/>
				<g>
					<defs>
						<circle id="SVGID_61_" cx="-517.9" cy="396.5" r="3.8"/>
					</defs>
					<clipPath id="SVGID_2_">
						<use xlink:href="#SVGID_61_"  style="overflow:visible;"/>
					</clipPath>
					<path style="clip-path:url(#SVGID_2_);fill:#1C2226;" d="M-518.2,398.1c0,0,1.3,0.1,1.5-2c0,0,2.3,1.5,3.2,0.9
						c0,0,0.3-5.8-4.5-5.6s-5.2,5.4-5.2,5.4l2.7,2.4L-518.2,398.1z"/>
				</g>
				<circle class="st100" cx="-519" cy="397.7" r="1"/>
				<path class="st107" d="M-521,397.4l-0.7,1.7c0,0,1.6,1.3,2.3-0.4l-1.1-0.3L-521,397.4z"/>
				<path class="st107" d="M-516.7,396.1c0,0,3.1,2.4,4.3,0.4c1-1.6-0.1-2.7-1.7-2.4c-0.7,0.1-1-0.3-1.5-0.7L-516.7,396.1z"/>
				<path class="st114" d="M-519.5,405.2c0,0-0.1-1.5-0.5-2c-0.5-0.5-3-1.9-3-1.9s-3.6,1-5.8,5.1c-1.7,3.2-3.3,11.2-3.3,11.2
					l10.3,1.5C-520.9,413.1-519.2,410.4-519.5,405.2z"/>
				<path class="st110" d="M-522.8,401l-0.4,0.2c-0.2,0.1-0.2,0.3-0.1,0.4l2.7,2.4c0.1,0.1,0.3,0.1,0.4-0.1l0.3-0.5
					c0.1-0.1,0-0.2-0.1-0.3l-2.6-2.1C-522.6,401-522.7,401-522.8,401z"/>
			</g>
			<g>
				<path class="st100" d="M-507.4,413.7l3.7-0.3c0.3,0,0.6,0.1,0.8,0.4l1.9,2.7l-1.8,0.2l-0.8-1.2c0,0-2.8,0.7-3.9,0L-507.4,413.7z
					"/>
				<g>
					<path class="st114" d="M-523.1,403.7l5.6,9.4l10.5,0.3v3l-11.4,0.5c-1.1,0-2.1-0.5-2.7-1.4l-6.2-9.2L-523.1,403.7z"/>
					<polygon class="st110" points="-507.1,413.4 -507.1,416.4 -508.2,416.5 -508.2,413.4 					"/>
				</g>
			</g>
			<path class="st115" d="M-532.1,417.7l20.3,2.9c1.6,0.2,2.8,1.5,2.9,3l1.5,17.3l-4.5,0.3l-2.2-15l-12.8,0.3
				c-3.5,0-6.1-3.1-5.6-6.5L-532.1,417.7z"/>
			<g>
				<rect x="-506.8" y="416.4" class="st116" width="10.7" height="0.7"/>
				<polygon class="st116" points="-496.1,417 -492.6,406.9 -493.4,406.8 -496.7,416.5 				"/>
			</g>
			<path class="st102" d="M-519.2,401.8c0,0-1-0.6-1-1.8c0,0-0.6,1.3,0.6,2.4L-519.2,401.8z"/>
		</g>
		<g>
			<path class="st105" d="M-535,446.4c0.2,0,0.3-0.1,0.3-0.3l5.3-20.9c0.4-1.7,2-2.9,3.8-2.9c1.7,0,3.3,1.2,3.7,2.8
				c1.9,6.5,6.2,20.8,6.2,20.9c0.1,0.2,0.3,0.3,0.5,0.2c0.2-0.1,0.3-0.3,0.2-0.5c0-0.1-4.4-14.4-6.2-20.9c-0.6-2-2.4-3.4-4.4-3.4
				c-2.1,0-4,1.4-4.5,3.5l-5.3,20.9C-535.4,446.2-535.3,446.4-535,446.4C-535.1,446.4-535,446.4-535,446.4z"/>
		</g>
		<line class="st117" x1="-521.1" y1="415.6" x2="-524.3" y2="410.9"/>
		<rect x="-508.5" y="417" class="st110" width="27.8" height="1.2"/>
		<line class="st109" x1="-504.6" y1="421.3" x2="-484.3" y2="421.3"/>
	</g>
	<line class="st117" x1="-519.2" y1="410.1" x2="-522.3" y2="405.2"/>
</g>
<g>
	<polygon class="st100" points="-335.8,377.6 -337.5,381.7 -340.3,380.2 -338.6,376.2 	"/>
	<path class="st105" d="M-336.5,381.4c0-0.2-0.2-0.4-0.4-0.3c-0.4,0.2-1.1,0.3-1.9,0c-0.8-0.4-1-1-1-1.4c0-0.2-0.2-0.4-0.3-0.4
		l-6.2,0.9c-0.4,0.1-0.7,0.3-1,0.6l0,0c-0.2,0.3-0.1,0.8,0.2,0.9l9.3,2.8c0.4,0.1,0.8-0.2,0.9-0.6l0.5-2.1c0,0,0-0.1,0-0.1
		L-336.5,381.4z"/>
	<g>
		<polygon class="st100" points="-310.6,367.6 -306.7,369.8 -308.5,372.4 -312.3,370.3 		"/>
		<path class="st105" d="M-306.8,368.8c-0.2,0-0.4,0.2-0.4,0.4c0.1,0.4,0.2,1.1-0.2,1.9c-0.5,0.8-1.1,0.9-1.5,0.8
			c-0.2,0-0.4,0.1-0.4,0.3l0.2,6.3c0,0.4,0.2,0.8,0.5,1l0,0c0.3,0.3,0.8,0.2,0.9-0.1l3.8-8.9c0.1-0.4-0.1-0.8-0.5-0.9l-2-0.7
			c0,0-0.1,0-0.1,0L-306.8,368.8z"/>
	</g>
	<polygon class="st118" points="-333.7,337.9 -332.2,347.6 -324.6,361.2 -311.6,372.6 -308.5,367.2 -318.9,357.5 -324.9,338.1 	"/>
	<path class="st119" d="M-321.4,337.4c0,0,1.5,2.9-0.8,7.4l-7.3,13.9l-5.5,21l-5.5-1.9l4-21.3l7-16.6l-4.1-2L-321.4,337.4z"/>
	<g>
		<g>
			<circle class="st100" cx="-335.3" cy="308.6" r="2.6"/>
		</g>
		<polygon class="st100" points="-339.3,311.6 -337.1,308.9 -335.3,310.7 -337.4,313.3 		"/>
	</g>
	<path class="st107" d="M-334.2,305.3l-2.1,2.7c-0.3,0.4-0.3,0.9,0,1.2l1.7,2.1c0.4,0.5,1.1,0.5,1.5,0l2.3-2.8
		c0.3-0.4,0.3-0.9,0-1.3l-1.9-2C-333.2,304.8-333.9,304.8-334.2,305.3z"/>
	<path class="st120" d="M-332.1,315l-8.1,4.1l4.5-6.9l-3-2.5l-9.3,12.8c-0.8,1.1-0.5,2.7,0.7,3.4l0,0c0.6,0.3,1.4,0.4,2,0.1
		l12.1-4.8L-332.1,315z"/>
	<path class="st120" d="M-335,318.9c0,0,1.4,11.3,1.3,19c0,0,4.3,1.9,13.5-0.9l-2.3-21l-4.4-1.5l-5.2,0.4L-335,318.9z"/>
	<g>
		<path class="st121" d="M-330.6,313.9l0.1,0.7c0,0.1,0,0.1,0,0.1l-1.1,1.2c-0.1,0.1-0.3,0-0.3-0.1l-0.1-0.9c0-0.1,0-0.1,0.1-0.2
			l1.1-1C-330.8,313.7-330.7,313.8-330.6,313.9z"/>
		<g>
			<path class="st100" d="M-329.1,315.8L-329.1,315.8c1.3-0.1,2.3-1.3,2.2-2.6l-0.3-3.9l-4.9,0.4l1,5.4
				C-330.9,315.8-330.5,315.9-329.1,315.8z"/>
			<path class="st122" d="M-327.1,310.6c0,0-1,3-3.2,2.6c-1.9-0.3-1.9-3.6-1.9-3.6L-327.1,310.6z"/>
			<path class="st100" d="M-329.9,312.2l0.4,0c2.2-0.2,3.7-2.2,3.5-4.3l-0.3-2.5c-0.2-2.2-2.2-3.7-4.3-3.5l-0.4,0
				c-2.2,0.2-3.7,2.2-3.5,4.3l0.3,2.5C-334,310.8-332,312.4-329.9,312.2z"/>
			<g>
				<defs>
					<path id="SVGID_63_" d="M-329.9,312.2l0.4,0c2.2-0.2,3.7-2.2,3.5-4.3l-0.3-2.5c-0.2-2.2-2.2-3.7-4.3-3.5l-0.4,0
						c-2.2,0.2-3.7,2.2-3.5,4.3l0.3,2.5C-334,310.8-332,312.4-329.9,312.2z"/>
				</defs>
				<use xlink:href="#SVGID_63_"  style="overflow:visible;fill:#FCC9A7;"/>
				<clipPath id="SVGID_3_">
					<use xlink:href="#SVGID_63_"  style="overflow:visible;"/>
				</clipPath>
				<path style="clip-path:url(#SVGID_3_);fill:#1C2226;" d="M-326.1,307L-326.1,307c-0.3,0-1.5,0.9-1.8,0.5
					c-0.4-0.6-0.8-1.6-0.3-2.7c0.1-0.2,0.1-0.4,0.1-0.6c-0.1-0.3-0.4-0.8-1.2-0.5c-1.3,0.5-4.3,2-5.2-0.2c-1.1-2.7,7.5-2,7.5-2
					l2,2.8l-0.8,4.1L-326.1,307z"/>
			</g>
			<circle class="st100" cx="-325.9" cy="307.3" r="1.4"/>
		</g>
		<polygon class="st119" points="-329.6,316.6 -328.5,333.6 -330.5,335.6 -331.7,333.7 -330.5,316.3 		"/>
		<g>
			<polygon class="st119" points="-331.2,315.5 -331,315.2 -331.1,315 -328.7,315 -328.5,315.7 -330.1,317.1 -331.2,315.5 			"/>
		</g>
		<path class="st121" d="M-327.1,312.9l-2.3,1.6c-0.3,0.2-0.3,0.5-0.1,0.8l1.8,1.8c0.2,0.2,0.5,0.2,0.7,0l1.8-2
			c0.2-0.2,0.2-0.5,0-0.7l-1.3-1.3C-326.6,312.8-326.9,312.8-327.1,312.9z"/>
	</g>
	<line class="st124" x1="-336.8" y1="313.8" x2="-340.2" y2="311.7"/>
	<g>
		<path class="st125" d="M-330.5,330.1l-1.2,12.9c0,0.5,0.3,0.9,0.8,1l14.8,2.8c0.5,0.1,1.1-0.3,1.1-0.8l1.4-12.3
			c0.1-0.5-0.3-0.9-0.7-1l-14.9-3.5C-329.9,329.1-330.5,329.5-330.5,330.1z"/>
		<path class="st126" d="M-329.5,330.3l-1.2,12.9c0,0.5,0.3,0.9,0.8,1l14.8,2.8c0.5,0.1,1.1-0.3,1.1-0.8l1.4-12.3
			c0.1-0.5-0.3-0.9-0.7-1l-14.9-3.5C-328.9,329.3-329.4,329.7-329.5,330.3z"/>
	</g>
	<g>
		<g>
			<g>
				<circle class="st100" cx="-325.9" cy="344.3" r="2.9"/>
			</g>
			<polygon class="st100" points="-321.7,340.5 -324,343.7 -326.2,341.9 -324.1,338.8 			"/>
		</g>
		<path class="st120" d="M-322.5,316.1c0,0,3.3,0.3,4.3,5.7l3.8,7.9c0.1,0.3,0.2,0.7,0.2,1.1l-8,11.5l-3.6-2.1l6.5-10.4l-3.9-6.2
			L-322.5,316.1z"/>
	</g>
	<line class="st124" x1="-324.6" y1="338.6" x2="-321" y2="340.5"/>
	<line class="st124" x1="-321.4" y1="326.6" x2="-323.7" y2="322.5"/>
	<path class="st107" d="M-333.7,304.6c-1.7-0.7-1.3-2.7-0.9-3.3c0,0,0.1,1.1,0.8,0.8c0,0-0.1-1.6,2.1-2c0,0-0.8,1.5,2.1,1.2
		c3.5-0.3,3.7,1.9,3.5,4.6l-1.1-0.8l-0.8-1.9h-2.8L-333.7,304.6z"/>
</g>
<g>
	<path class="st127" d="M-355.4,400.2h31.6c1.2,0,2.2,1,2.2,2.2v24.2c0,0.1,0,0.2,0,0.3c-0.8,12.4-30.8,13.1-30.8,13.1
		c9.2-2.8,13.1-8.5,14.6-11.1h-17.5c-1.2,0-2.2-1-2.2-2.2v-24.2C-357.7,401.2-356.7,400.2-355.4,400.2z"/>
	<path class="st57" d="M-336.3,414.7c-0.2,1.3-1.3,2.4-2.6,2.6c-2.1,0.3-3.9-1.5-3.6-3.6c0.2-1.3,1.3-2.4,2.6-2.6
		C-337.7,410.8-335.9,412.6-336.3,414.7z M-332,409.5v9.3c0,0.7-0.6,1.3-1.3,1.3h-14.2c-0.7,0-1.3-0.6-1.3-1.3v-9.3
		c0-0.7,0.6-1.3,1.3-1.3h0.1V408c0-0.2,0.2-0.4,0.4-0.4h2c0.2,0,0.4,0.2,0.4,0.4v0.3h1.1l0.9-1.8c0.1-0.2,0.3-0.3,0.5-0.3h5.6
		c0.2,0,0.4,0.1,0.5,0.3l0.9,1.8h1.9C-332.6,408.2-332,408.8-332,409.5z M-345.1,409.6c0-0.5-0.4-0.9-0.9-0.9s-0.9,0.4-0.9,0.9
		c0,0.5,0.4,0.9,0.9,0.9S-345.1,410.1-345.1,409.6z M-340.4,409.8c-1.7,0.4-3,1.7-3.4,3.4c-0.7,3.3,2.2,6.2,5.5,5.5
		c1.7-0.4,3-1.7,3.4-3.4C-334.2,411.9-337.1,409-340.4,409.8z"/>
</g>
<g>
	<path class="st128" d="M-341.6,469.9c0,0.9-0.8,1.7-1.7,1.7h-11.3c-0.9,0-1.7-0.8-1.7-1.7v-11.3c0-0.9,0.8-1.7,1.7-1.7h11.3
		c0.9,0,1.7,0.8,1.7,1.7V469.9z"/>
	<path class="st57" d="M-344.6,463.6c-0.1-0.7-0.4-1.4-0.8-2c-0.7-1-1.6-1.6-2.8-1.8c-0.2,0-0.5-0.1-0.7-0.1c0,0,0,0,0,0
		c-0.2,0-0.4,0-0.7,0.1c-2.3,0.3-3.9,2.5-3.6,4.8c0.1,1.1,0.6,2,1.4,2.8c1,0.9,2.1,1.3,3.4,1.1c1-0.1,1.9-0.5,2.6-1.2
		C-344.9,466.2-344.4,465-344.6,463.6z M-345.5,465.8c-0.1-0.2-0.3-0.5-0.3-0.7c-0.1-0.3-0.3,0-0.3,0.2c0,0.2-0.2,0.4-0.5,0.1
		c-0.3-0.3-0.3-0.3-0.4-0.3c-0.1,0-0.3,0.2-0.2,1.2c0,0.7,0.3,0.8,0.5,0.9c-0.3,0.2-0.7,0.4-1.2,0.5c-1.7,0.4-3.5-0.4-4.3-1.9
		c-0.8-1.5-0.4-3.1,0.4-4c0,0.2,0,0.3,0.1,0.5c0,0.4,0,0.8-0.1,1.2c0,0.1,0,0.2,0,0.3c0,0,0.1,0.1,0.1,0.1c0,0,0.1-0.1,0.1-0.1
		c0-0.1,0-0.2,0-0.3c0-0.1,0-0.1,0-0.2c0.1,0,0.1,0.1,0.1,0.1c0.1,0.1,0.2,0.2,0.3,0.3c0,0,0.1,0.1,0.1,0.2c0,0.1,0,0.2,0.1,0.3
		c0.1,0.1,0.1,0.2,0.1,0.3c0,0,0,0.1,0,0.2c0,0.1,0.1,0.2,0.2,0.2c0.1,0,0.2,0.1,0.2,0.2c0,0-0.1,0-0.1,0c-0.2,0-0.2,0.1-0.2,0.2
		c0,0.3,0.1,0.6,0.4,0.8c0.1,0.1,0.1,0.1,0.2,0.2c0.1,0.1,0.2,0.3,0.1,0.5c0,0.1-0.1,0.2-0.1,0.3c0,0.1,0,0.2,0,0.3
		c0,0.1,0,0.3,0.1,0.3c0.2,0,0.3,0,0.3-0.2c0,0,0,0,0-0.1c-0.1-0.2,0.2-0.7,0.3-0.8c0.1-0.1,0.3-0.2,0.4-0.3
		c0.2-0.1,0.2-0.3,0.2-0.6c-0.1-0.2,0-0.4,0.2-0.5c0.1-0.1,0.2-0.3,0.2-0.5c0-0.2-0.1-0.4-0.3-0.3c-0.1,0-0.2,0.1-0.3,0.1
		c-0.1,0-0.2,0.1-0.4,0.1c-0.2,0-0.3-0.1-0.4-0.2c-0.1-0.1-0.1-0.1-0.2-0.1c-0.1,0.1-0.2,0.1-0.3,0.2c-0.1,0.1-0.2,0-0.2,0
		c0,0-0.1-0.1-0.2-0.1c0,0-0.1,0-0.1-0.1c0,0-0.1-0.1-0.1-0.2c0-0.1,0.1-0.1,0.1-0.1c0.1,0,0.2,0,0.3-0.1c0.1,0,0.1,0,0.2,0
		c0.1,0,0.1-0.1,0-0.1c0,0-0.1,0-0.1-0.1c-0.2-0.1-0.3-0.1-0.5-0.2c0,0-0.1,0-0.1-0.1c-0.1-0.1-0.1-0.1,0-0.2c0.4-0.3,0.8-0.4,1.1,0
		c0.1,0.1,0.2,0.3,0.3,0.4c0.1,0.1,0.2,0.2,0.3,0.3c0,0,0.1,0,0.2,0c0.1,0,0.1-0.1,0-0.2c0-0.1-0.1-0.1-0.1-0.2
		c-0.2-0.3-0.2-0.8,0.2-1c0.1-0.1,0.3-0.2,0.3-0.4c-0.1,0-0.1,0-0.2,0.1c-0.3,0.1-0.1-0.1,0-0.2c0.1,0-0.1-0.1-0.1-0.1
		c0,0,0.1,0,0.2-0.1c0.1,0,0.2-0.1,0.2-0.1c0,0,0.1-0.1,0.1-0.2c0,0,0,0,0,0c-0.1,0-0.2,0-0.2,0c-0.1,0-0.2,0-0.2-0.2
		c0-0.1-0.1-0.1-0.2-0.1c-0.1,0-0.1,0.1-0.2,0.1c-0.1,0.1-0.2,0.1-0.3-0.1c0-0.1-0.1-0.1-0.2-0.1c0,0-0.1,0.1-0.1,0.1
		c-0.1,0-0.1,0.1-0.2,0.1c-0.1,0-0.2,0-0.2,0c-0.1-0.1,0-0.2,0.1-0.2c0.1-0.1,0.2-0.1,0.3-0.2c0.1-0.1,0.3-0.1,0.4-0.2
		c0.1-0.1,0.1-0.2,0.1-0.3c0-0.1-0.1-0.1-0.2-0.1c-0.1,0-0.1,0.1-0.2,0.1c-0.1,0-0.1,0-0.2,0c0,0,0-0.1,0-0.1c0,0,0-0.1,0.1-0.1
		c0.2,0,0.4-0.1,0.6-0.1c0,0,0.1,0,0.1,0c0.1,0.2,0.3,0.2,0.5,0.3c0.2,0,0.2,0,0.2-0.1c0.2,0,0.4-0.1,0.6,0c0.1,0.1,0.2,0.2,0.3,0.3
		c0,0,0,0.1,0,0.1c0,0.1,0,0.1-0.1,0.2c0,0.1,0,0.2,0.2,0.2c0,0,0.1,0,0.1,0c0.1,0,0.2,0,0.1,0.2c0,0.2,0,0.2,0.2,0.2
		c0,0,0.1,0,0.2,0c0,0,0.1,0,0.1,0.1c0.2,0.1,0.3,0.1,0.3-0.1c0,0,0,0,0-0.1c0-0.1,0.1-0.1,0.1,0c0.1,0.1,0.2,0.3,0.4,0.4
		c-0.1,0.1-0.1,0.3-0.1,0.4c0,0.2,0,0.3-0.1,0.4c-0.1,0.1-0.1,0.3-0.2,0.4c-0.1,0.2,0,0.3,0.2,0.4c0.2,0,0.2,0.1,0.3,0.3
		c0,0.3,0.2,0.5,0.4,0.6c0.1,0,0.1,0,0.2,0.1C-345.2,464.9-345.3,465.4-345.5,465.8z"/>
</g>
<g>
	<path class="st129" d="M-468.7,476.7c0,0.9-0.7,1.6-1.6,1.6H-481c-0.9,0-1.6-0.7-1.6-1.6V466c0-0.9,0.7-1.6,1.6-1.6h10.7
		c0.9,0,1.6,0.7,1.6,1.6V476.7z"/>
	<path class="st57" d="M-475.5,474.2c-6.1-3.3-1.7-7.5,0-4.7C-473.8,466.8-469.4,470.9-475.5,474.2z"/>
</g>
<g>
	<path class="st114" d="M-460.7,451.7c0,0.7-0.6,1.3-1.3,1.3h-8.9c-0.7,0-1.3-0.6-1.3-1.3v-8.9c0-0.7,0.6-1.3,1.3-1.3h8.9
		c0.7,0,1.3,0.6,1.3,1.3V451.7z"/>
	<path class="st57" d="M-464.6,449.1C-464.6,449.1-464.6,449.1-464.6,449.1v-3.7l-3-1.6v3.4c-0.4-0.3-1.1-0.3-1.5,0.1
		c-0.5,0.4-0.6,1.2-0.2,1.6c0.4,0.4,1.1,0.5,1.6,0c0.3-0.2,0.4-0.6,0.4-0.9v-2.8l2.3,1.1v2c-0.4-0.3-1-0.3-1.5,0.1
		c-0.5,0.4-0.6,1.2-0.2,1.6c0.4,0.4,1.1,0.5,1.6,0C-464.7,449.8-464.6,449.4-464.6,449.1L-464.6,449.1L-464.6,449.1z"/>
</g>
<g>
	<path class="st114" d="M-351.9,351.5c0,0.7-0.6,1.3-1.3,1.3h-8.9c-0.7,0-1.3-0.6-1.3-1.3v-8.9c0-0.7,0.6-1.3,1.3-1.3h8.9
		c0.7,0,1.3,0.6,1.3,1.3V351.5z"/>
	<path class="st57" d="M-355.8,348.9C-355.8,348.9-355.8,348.9-355.8,348.9v-3.7l-3-1.6v3.4c-0.4-0.3-1.1-0.3-1.5,0.1
		c-0.5,0.4-0.6,1.2-0.2,1.6c0.4,0.4,1.1,0.5,1.6,0c0.3-0.2,0.4-0.6,0.4-0.9V345l2.3,1.1v2c-0.4-0.3-1-0.3-1.5,0.1
		c-0.5,0.4-0.6,1.2-0.2,1.6c0.4,0.4,1.1,0.5,1.6,0C-355.9,349.6-355.8,349.3-355.8,348.9L-355.8,348.9L-355.8,348.9z"/>
</g>
<g>
	<path class="st130" d="M-487.2,392.8c0,0.1,0,0.1,0,0.2c0.2,0.8,0.4,1.6,0.6,2.4c0.2,0.7-0.2,1.3-0.9,1.4c-2.7,0.7-5.4,1.3-8.1,2
		c-0.7,0.2-1.2-0.2-1.4-0.9c-0.5-2.1-1-4.1-1.5-6.2c0-0.1-0.1-0.2-0.2-0.3c-0.8-0.6-1.6-1.2-2.4-1.8c0,0-0.1-0.1-0.1-0.1
		c-0.1-0.1-0.1-0.2,0.1-0.3c0,0,0.1,0,0.1,0c1.2-0.3,2.4-0.6,3.7-0.9c0.1,0,0.1,0,0.2-0.1c0.1,0,0.2,0,0.2-0.1
		c2.3-0.6,4.6-1.1,6.9-1.7c0.7-0.2,1.2,0.2,1.4,0.8C-488.1,389.1-487.6,390.9-487.2,392.8 M-493.2,391c1-0.2,2-0.5,3-0.7
		c0.1,0,0.2,0,0.1-0.2c-0.1-0.3-0.1-0.5-0.2-0.8c0-0.1-0.1-0.1-0.1-0.1c-0.2,0.1-0.4,0.1-0.6,0.1c-1.8,0.4-3.6,0.9-5.4,1.3
		c-0.1,0-0.2,0.1-0.1,0.2c0.1,0.2,0.1,0.5,0.2,0.7c0,0.1,0.1,0.2,0.2,0.1C-495.1,391.4-494.1,391.2-493.2,391 M-492.9,392
		c-1,0.2-2,0.5-2.9,0.7c-0.1,0-0.2,0.1-0.1,0.2c0.1,0.2,0.1,0.4,0.2,0.7c0,0.2,0.1,0.2,0.3,0.2c1.1-0.3,2.3-0.6,3.4-0.8
		c0.8-0.2,1.7-0.4,2.5-0.6c0.1,0,0.2-0.1,0.1-0.2c-0.1-0.2-0.1-0.5-0.2-0.7c0-0.2-0.1-0.2-0.2-0.1
		C-490.9,391.5-491.9,391.7-492.9,392 M-493.2,395.4c0.6-0.2,1.3-0.3,1.9-0.5c0.1,0,0.2-0.1,0.1-0.2c-0.1-0.2-0.1-0.5-0.2-0.7
		c0-0.1-0.1-0.1-0.2-0.1c-1.3,0.3-2.6,0.6-3.9,1c-0.1,0-0.1,0.1-0.1,0.2c0.1,0.2,0.1,0.5,0.2,0.7c0,0.1,0.1,0.2,0.2,0.1
		C-494.4,395.7-493.8,395.5-493.2,395.4"/>
	<path class="st130" d="M-486.6,392.2c-0.4-1.8-0.9-3.6-1.3-5.4c-0.2-0.7-0.7-1-1.4-0.8c-2.3,0.6-4.6,1.1-6.9,1.7
		c-0.1,0-0.2,0-0.2,0.1c-0.2-1-0.5-2-0.7-3c-0.1-0.6,0.1-1,0.5-1.3c0.1-0.1,0.2-0.1,0.3-0.1c3.7-0.9,7.4-1.8,11-2.7
		c0.1,0,0.2-0.1,0.3,0c0.1,0.1,0,0.2,0,0.3c-0.4,0.9-0.8,1.8-1.3,2.8c-0.1,0.1-0.1,0.2,0,0.4c0.5,2.2,1.1,4.4,1.6,6.5
		c0.1,0.5,0,1-0.4,1.2c-0.1,0.1-0.3,0.1-0.4,0.2C-486,392-486.3,392.1-486.6,392.2"/>
</g>
<path class="st104" d="M-285.5,361.9l-0.2-0.8l-1.2-5.1c-0.4-1.5-1.9-2.4-3.4-2.1l-9,2.2c-1.5,0.4-2.4,1.9-2.1,3.4l1.4,5.9
	c0.4,1.5,1.9,2.4,3.4,2.1l8.1-2l4.7,3.3L-285.5,361.9z M-288.8,362.7c-0.1,0.1-0.2,0.1-0.3,0c-0.7-0.4-1.4-0.8-2.1-1.3
	c0,0-0.1,0-0.2-0.1c0.1,0.3,0.1,0.5,0.2,0.8c0,0.1,0.1,0.3,0.1,0.4c0.1,0.5-0.1,0.8-0.6,0.9c-1,0.3-2,0.5-3.1,0.8
	c-0.4,0.1-0.9,0.2-1.3,0.3c-0.2,0.1-0.5,0-0.7-0.1c-0.1-0.1-0.2-0.2-0.2-0.3c-0.4-1.6-0.8-3.2-1.2-4.8c-0.1-0.4,0.1-0.8,0.5-0.9
	c0.5-0.1,1.1-0.3,1.6-0.4c0.9-0.2,1.8-0.4,2.7-0.7c0.5-0.1,0.9,0.1,1,0.6c0.1,0.4,0.2,0.7,0.3,1.1c0.2-0.4,0.5-0.8,0.7-1.2
	c0.2-0.4,0.5-0.8,0.7-1.2c0,0,0,0,0.1,0c0.2,0,0.5,0.1,0.6,0.4c0,0,0,0.1,0,0.1c0.4,1.7,0.8,3.4,1.2,5.1
	C-288.5,362.3-288.5,362.5-288.8,362.7"/>
<path class="st131" d="M-365,306.3c-6.1,1.5-9.9,7.7-8.4,13.8c1.5,6.1,7.7,9.9,13.8,8.4c6.1-1.5,9.9-7.7,8.4-13.8
	C-352.7,308.6-358.9,304.8-365,306.3 M-364.1,315.4c0-0.2,0-0.4-0.1-0.7c0-0.1,0-0.1,0.1-0.2c0.6-0.2,1.2-0.2,1.8,0
	c0.9,0.3,1.5,0.9,1.9,1.8c0,0,0,0,0,0.1c0,0.1,0,0.1,0,0.2c0.1,0.4,0.1,0.3-0.2,0.4c-0.2,0.1-0.3,0.1-0.5,0.2c-0.1,0-0.1,0-0.1-0.1
	c-0.1-0.6-0.4-1.2-0.9-1.5c-0.6-0.4-1.2-0.4-1.8-0.2C-364.1,315.6-364.1,315.6-364.1,315.4 M-357.2,320c-0.1,0.1-0.1,0.2-0.2,0.3
	c-0.5,0.7-1,1.3-1.6,1.9c0,0-0.1,0.1-0.1,0.1c-0.2,0.1-0.4,0.1-0.6,0.2c0,0-0.1,0-0.1,0c-0.1,0-0.2,0-0.4,0c-1,0-1.9-0.3-2.8-0.6
	c-0.8-0.3-1.5-0.7-2.3-1.2c-0.9-0.6-1.7-1.2-2.5-1.9c-0.7-0.7-1.2-1.4-1.6-2.2c0,0,0-0.1-0.1-0.1c0-0.1-0.1-0.2-0.1-0.4
	c0,0,0.1-0.1,0.1-0.1c0.4-0.9,0.8-1.7,1.3-2.5c0,0,0-0.1,0-0.1c0,0,0.1,0,0.1,0c0.1,0.1,0.3,0.2,0.4,0.3c0.6,0.6,1.2,1.2,1.7,1.8
	c0.1,0.2,0.1,0.2,0,0.4c-0.1,0.2-0.3,0.4-0.5,0.7c0,0-0.1,0.1-0.1,0.1c-0.2,0.4-0.3,0.4,0,0.8c0.4,0.7,0.9,1.2,1.6,1.7
	c0.4,0.3,0.9,0.6,1.4,0.9c0.6,0.3,1.2,0.4,1.8,0.4c0.1,0,0.1,0,0.2,0c0.2,0,0.3-0.1,0.4-0.3c0.2-0.3,0.3-0.5,0.5-0.8
	c0,0,0-0.1,0.1-0.1c0.1-0.1,0.2-0.2,0.3-0.1c0.3,0.1,0.6,0.2,0.9,0.3c0.5,0.2,1.1,0.4,1.6,0.6c0.1,0,0.2,0.1,0.3,0.1
	C-357.2,319.9-357.2,319.9-357.2,320 M-358.1,316.1c-0.3,0.1-0.5,0.2-0.7,0.3c-0.1,0.1-0.2,0-0.2-0.1c-0.5-1.5-1.4-2.5-2.9-3
	c-0.7-0.2-1.5-0.3-2.2-0.1c-0.1,0-0.2,0-0.2-0.1c0-0.3,0-0.5-0.1-0.8c0.2,0,0.3-0.1,0.5-0.1c0.1,0,0.2,0,0.2,0
	c1.5-0.1,2.7,0.3,3.9,1.2c0.7,0.6,1.2,1.3,1.5,2.1c0,0.1,0,0.1,0.1,0.1C-358.2,315.8-358.2,316-358.1,316.1"/>
<path class="st132" d="M-306,469.3c-1.3,0.3-2.7-0.4-3.1-1.7c-0.1-0.2-0.2-0.3-0.3-0.3c-1.8-0.4-3.7-0.9-5.5-1.3
	c-0.2,0-0.3,0-0.4,0.1c-1.4,1.5-3.9,0.9-4.4-1.1c-0.3-1,0-1.9,0.7-2.6c0.8-0.7,1.7-0.9,2.7-0.5c0.3,0.1,0.4,0.1,0.7-0.1
	c1.3-1.2,2.7-2.3,4-3.4c0.2-0.1,0.2-0.3,0.2-0.5c-0.3-1.3,0.4-2.7,1.6-3.1c1.4-0.5,2.8,0.1,3.3,1.4c0.4,1,0.3,1.9-0.4,2.7
	c-0.7,0.8-1.6,1.1-2.7,0.8c-0.2-0.1-0.4,0-0.6,0.1c-1.4,1.2-2.9,2.4-4.3,3.6c-0.1,0.1-0.3,0.1-0.2,0.3c0,0.2,0.2,0.1,0.3,0.2
	c1.8,0.4,3.5,0.8,5.3,1.3c0.2,0,0.3,0,0.5-0.1c0.7-0.9,2-1.2,3-0.7c1.1,0.5,1.7,1.5,1.6,2.6C-304.1,468.1-304.9,469.1-306,469.3"/>
<path class="st99" d="M-288.4,409.2c0.1,0.9,0.1,1.9,0.1,2.9l-0.9,0c0-0.9,0-1.9-0.1-2.8L-288.4,409.2z M-288.5,414.9
	c-0.1,0.9-0.3,1.9-0.5,2.8l-0.9-0.2c0.2-0.9,0.4-1.8,0.5-2.7L-288.5,414.9z M-289.8,420.4c-0.3,0.9-0.6,1.8-1,2.7l-0.9-0.4
	c0.4-0.9,0.7-1.7,1-2.6L-289.8,420.4z M-292,425.7c-0.4,0.8-0.9,1.7-1.4,2.5l-0.8-0.5c0.5-0.8,0.9-1.6,1.3-2.4L-292,425.7z
	 M-294.9,430.6c-0.5,0.8-1.1,1.6-1.6,2.3l-0.8-0.6c0.6-0.8,1.1-1.5,1.6-2.3L-294.9,430.6z M-298.3,435.2c-0.6,0.7-1.2,1.4-1.9,2.1
	l-0.7-0.6c0.6-0.7,1.3-1.4,1.8-2.1L-298.3,435.2z M-302.2,439.3c-0.7,0.7-1.4,1.3-2.1,1.9l-0.6-0.7c0.7-0.6,1.4-1.2,2.1-1.9
	L-302.2,439.3z M-306.5,443c-0.8,0.5-1.6,1.1-2.4,1.6l-0.5-0.8c0.8-0.5,1.6-1,2.3-1.5L-306.5,443z M-311.8,445.2l0.4,0.8
	c-0.8,0.4-1.7,0.9-2.6,1.2l-0.4-0.9C-313.5,446-312.6,445.6-311.8,445.2z M-316.9,447.4l0.3,0.9c-0.9,0.3-1.8,0.6-2.7,0.9l-0.3-0.9
	C-318.7,448.1-317.8,447.8-316.9,447.4z M-322.2,449l0.2,0.9c-0.2,0.1-0.5,0.1-0.7,0.2c-0.7,0.2-1.4,0.3-2.1,0.4l-0.1-0.9
	c0.7-0.1,1.4-0.2,2-0.4C-322.7,449.2-322.5,449.1-322.2,449z M-327.7,449.9l0.1,0.9c-0.9,0.1-1.9,0.1-2.8,0.1l0-0.9
	C-329.6,450.1-328.6,450-327.7,449.9z M-333.3,450l-0.1,0.9c-0.9-0.1-1.9-0.1-2.8-0.3l0.1-0.9C-335.1,449.9-334.2,449.9-333.3,450z
	 M-338.8,449.3l-0.2,0.9c-0.9-0.2-1.9-0.4-2.8-0.6l0.2-0.9C-340.6,448.9-339.7,449.1-338.8,449.3z M-344.2,447.9l-0.3,0.9
	c-0.9-0.3-1.8-0.6-2.7-0.9l0.3-0.9C-346,447.3-345.1,447.6-344.2,447.9z M-349.4,445.9l-0.4,0.9c-0.9-0.4-1.7-0.8-2.6-1.2l0.4-0.8
	C-351.1,445.2-350.3,445.6-349.4,445.9z M-354.4,443.4l-0.5,0.8c-0.8-0.5-1.6-1-2.4-1.5l0.5-0.8C-356,442.5-355.2,442.9-354.4,443.4
	z M-378.6,402.7c-0.1,0.2-0.3,0.5-0.4,0.7l-0.9-0.4c0.1-0.3,0.3-0.6,0.4-0.8L-378.6,402.7z M-359.1,440.4l-0.5,0.8
	c-0.8-0.5-1.5-1.1-2.3-1.7l0.6-0.7C-360.6,439.3-359.9,439.9-359.1,440.4z M-379.6,406c-0.1,0.8-0.1,1.8-0.1,2.7l-0.9,0
	c0-1,0-2,0.1-2.9L-379.6,406z M-363.5,437l-0.6,0.7c-0.7-0.6-1.4-1.3-2.1-1.9l0.6-0.7C-364.9,435.7-364.2,436.4-363.5,437z
	 M-367.6,433.1l-0.7,0.7c-0.7-0.7-1.3-1.4-1.9-2.1l0.7-0.6C-368.9,431.8-368.2,432.4-367.6,433.1z M-378.1,416.9
	c0.3,0.9,0.6,1.8,1,2.6l-0.9,0.4c-0.4-0.8-0.7-1.7-1-2.7L-378.1,416.9z M-371.3,428.9l-0.7,0.6c-0.6-0.7-1.2-1.5-1.7-2.3l0.8-0.5
	C-372.4,427.4-371.9,428.2-371.3,428.9z M-374.5,424.4l-0.8,0.5c-0.5-0.8-1-1.6-1.4-2.5l0.8-0.4C-375.5,422.8-375,423.6-374.5,424.4
	z"/>
<g>
	<path class="st128" d="M-428.9,468.7c0,0.5-0.4,0.9-0.9,0.9h-5.7c-0.5,0-0.9-0.4-0.9-0.9V463c0-0.5,0.4-0.9,0.9-0.9h5.7
		c0.5,0,0.9,0.4,0.9,0.9V468.7z"/>
	<g>
		<g>
			<path class="st57" d="M-432.9,467.9c-0.1,0-0.3-0.1-0.4-0.2l-1.2-1.6c-0.2-0.2-0.1-0.5,0.1-0.7c0.2-0.2,0.5-0.1,0.7,0.1l0.8,1.1
				l2-3.2c0.1-0.2,0.4-0.3,0.7-0.2c0.2,0.1,0.3,0.4,0.2,0.7l-2.4,3.8C-432.6,467.8-432.8,467.9-432.9,467.9
				C-432.9,467.9-432.9,467.9-432.9,467.9z"/>
		</g>
	</g>
</g>
<g>
	<path class="st133" d="M-458.2,412.3c0,0.8-0.7,1.5-1.5,1.5h-10c-0.8,0-1.5-0.7-1.5-1.5v-10c0-0.8,0.7-1.5,1.5-1.5h10
		c0.8,0,1.5,0.7,1.5,1.5V412.3z"/>
	<path class="st57" d="M-462.8,401.9h-4.4c-0.4,0-0.7,0.3-0.7,0.7v8.5c0,0.4,0.3,0.7,0.7,0.7h4.4c0.4,0,0.7-0.3,0.7-0.7v-8.5
		C-462.2,402.2-462.5,401.9-462.8,401.9z M-465.7,402.3h1.4c0,0,0.1,0,0.1,0.1c0,0,0,0.1-0.1,0.1h-1.4
		C-465.7,402.5-465.8,402.5-465.7,402.3C-465.8,402.4-465.7,402.3-465.7,402.3z M-465,411.3c-0.2,0-0.3-0.1-0.3-0.3
		c0-0.2,0.1-0.3,0.3-0.3s0.3,0.1,0.3,0.3C-464.7,411.2-464.8,411.3-465,411.3z M-462.6,410.4h-4.8v-7.5h4.8L-462.6,410.4z
		 M-463.7,405.5c0.7,0.7,0.7,1.9,0,2.6c0,0,0,0,0,0l0.2,0.2h-0.7v-0.7l0.2,0.2c0,0,0,0,0,0c0.5-0.5,0.5-1.4,0-2
		c-0.4-0.4-1.1-0.5-1.6-0.3l0-0.4h-0.2C-465.1,404.8-464.3,404.9-463.7,405.5z M-464.4,408.4l0.1,0c-0.7,0.3-1.5,0.2-2.1-0.4
		c-0.7-0.7-0.7-1.9,0-2.6c0,0,0,0,0,0l-0.2-0.2h0.7v0.7l-0.2-0.2c0,0,0,0,0,0c-0.5,0.5-0.5,1.4,0,2c0.4,0.4,1.1,0.5,1.6,0.3V408.4z"
		/>
</g>
<path class="st99" d="M-398.7,380.6l-1-0.1c0.1-0.9,0.1-1.9,0.1-2.9l1,0C-398.6,378.7-398.6,379.6-398.7,380.6z M-519.3,379.8
	c0-0.4,0-0.8,0-1.2c0-0.6,0-1.1,0.1-1.7l1,0.1c0,0.6-0.1,1.1-0.1,1.7c0,0.4,0,0.8,0,1.2L-519.3,379.8z M-399.6,374.8
	c0-1-0.1-1.9-0.2-2.9l1-0.1c0.1,1,0.1,1.9,0.2,2.9L-399.6,374.8z M-518,374.1l-1-0.2c0.1-0.9,0.3-1.9,0.6-2.9l0.9,0.2
	C-517.7,372.2-517.8,373.1-518,374.1z M-400,369.1c-0.1-1-0.3-1.9-0.4-2.8l0.9-0.2c0.2,0.9,0.3,1.9,0.4,2.9L-400,369.1z
	 M-516.7,368.5l-0.9-0.3c0.3-0.9,0.6-1.8,1-2.7l0.9,0.4C-516,366.7-516.4,367.6-516.7,368.5z M-401,363.4c-0.2-0.9-0.5-1.9-0.8-2.8
	l0.9-0.3c0.3,0.9,0.5,1.9,0.8,2.8L-401,363.4z M-514.5,363.2l-0.9-0.4c0.4-0.9,0.9-1.7,1.4-2.6l0.8,0.5
	C-513.7,361.5-514.1,362.4-514.5,363.2z M-472.9,359c-0.2,0-0.4,0-0.6,0l0.1-1c0.9,0.1,1.7-0.1,2.3-0.6l0.6,0.7
	C-471.1,358.7-472,359-472.9,359z M-511.7,358.3l-0.8-0.5c0.5-0.8,1.1-1.6,1.7-2.4l0.8,0.6C-510.6,356.7-511.2,357.5-511.7,358.3z
	 M-402.7,358c-0.4-0.9-0.7-1.8-1.1-2.6l0.9-0.4c0.4,0.9,0.8,1.8,1.2,2.7L-402.7,358z M-476.3,357.6c-0.6-0.5-1-1.1-1.3-1.8
	c-0.1-0.3-0.2-0.6-0.4-0.8l0.9-0.3c0.1,0.2,0.2,0.5,0.3,0.8c0.3,0.5,0.6,1,1.1,1.5L-476.3,357.6z M-468.8,355.5l-0.9-0.3
	c0.1-0.4,0.2-0.9,0.2-1.3c0-0.4-0.1-0.8-0.2-1.3l0.9-0.2c0.1,0.5,0.2,1,0.2,1.5C-468.6,354.4-468.6,354.9-468.8,355.5z
	 M-508.2,353.8l-0.7-0.7c0.4-0.4,0.8-0.9,1.2-1.2c0.3-0.3,0.6-0.5,0.9-0.8l0.6,0.7c-0.3,0.3-0.6,0.5-0.8,0.8
	C-507.4,353-507.8,353.4-508.2,353.8z M-405.2,352.9c-0.5-0.8-1-1.6-1.6-2.4l0.8-0.6c0.6,0.8,1.1,1.6,1.6,2.4L-405.2,352.9z
	 M-478.7,352.1c0-0.2,0-0.4,0-0.6c0-0.8,0.1-1.6,0.3-2.5l0.9,0.3c-0.2,0.7-0.3,1.5-0.3,2.2c0,0.2,0,0.3,0,0.5L-478.7,352.1z
	 M-470.8,350.1c-0.5-0.7-1.1-1.5-1.8-2.2l0.7-0.7c0.7,0.8,1.4,1.5,1.9,2.3L-470.8,350.1z M-503.9,350l-0.6-0.8
	c0.8-0.6,1.6-1.1,2.5-1.6l0.5,0.8C-502.3,349-503.1,349.5-503.9,350z M-408.6,348.3c-0.5-0.5-1-1-1.4-1.4l-0.6-0.6l0.6-0.7l0.6,0.5
	c0.6,0.5,1.1,1,1.6,1.5L-408.6,348.3z M-499,347.2l-0.4-0.9c0.9-0.4,1.8-0.8,2.7-1.2l0.4,0.9C-497.3,346.3-498.1,346.7-499,347.2z
	 M-476.3,346.8l-0.8-0.5c0.3-0.4,0.5-0.8,0.9-1.3c-0.3-0.1-0.5-0.3-0.8-0.4l0.4-0.9c0.3,0.2,0.6,0.3,1,0.5c0.1-0.1,0.2-0.2,0.3-0.4
	l0.7,0.6c-0.1,0.1-0.1,0.2-0.2,0.2c0.3,0.2,0.5,0.3,0.7,0.5l-0.6,0.8c-0.3-0.2-0.5-0.4-0.8-0.5C-475.8,346-476.1,346.4-476.3,346.8z
	 M-493.7,345l-0.3-0.9c0.9-0.3,1.9-0.6,2.8-0.8l0.2,0.9C-491.8,344.5-492.8,344.7-493.7,345z M-412.9,344.5
	c-0.7-0.6-1.5-1.2-2.2-1.8l0.6-0.8c0.8,0.6,1.5,1.2,2.2,1.9L-412.9,344.5z M-488.1,343.7l-0.1-1c1-0.2,2-0.3,2.9-0.3l0.1,1
	C-486.2,343.4-487.2,343.5-488.1,343.7z M-479.7,343.7c-0.1,0-0.3-0.1-0.4-0.1c-0.8-0.1-1.6-0.2-2.4-0.2l0-1c0.9,0,1.7,0.1,2.5,0.2
	c0.1,0,0.3,0.1,0.5,0.1L-479.7,343.7z M-472.7,342.6l-0.6-0.7c0.7-0.6,1.4-1.2,2.3-1.9l0.6,0.8C-471.3,341.4-472,342-472.7,342.6z
	 M-417.4,340.9c-0.8-0.6-1.5-1.1-2.3-1.7l0.5-0.8c0.8,0.6,1.6,1.1,2.4,1.7L-417.4,340.9z M-468.1,339.1l-0.5-0.8
	c0.8-0.5,1.6-1,2.3-1.5l0.1-0.1l0.5,0.8l-0.1,0.1C-466.6,338.1-467.3,338.6-468.1,339.1z M-422.1,337.6c-0.8-0.5-1.7-1-2.5-1.5
	l0.5-0.8c0.8,0.5,1.7,1,2.5,1.5L-422.1,337.6z M-463.3,336.1l-0.4-0.9c0.9-0.4,1.8-0.8,2.7-1.2l0.3,0.9
	C-461.6,335.3-462.4,335.6-463.3,336.1z M-427.1,334.9c-0.9-0.4-1.8-0.8-2.6-1.1l0.3-0.9c0.9,0.3,1.8,0.7,2.7,1.1L-427.1,334.9z
	 M-458,334.1l-0.2-0.9c0.9-0.2,1.9-0.5,2.9-0.6l0.2,0.9C-456.1,333.6-457.1,333.8-458,334.1z M-452.3,333l-0.1-1
	c1-0.1,1.9-0.2,2.9-0.3l0.1,1C-450.4,332.8-451.4,332.9-452.3,333z M-432.4,332.9c-0.9-0.3-1.9-0.5-2.8-0.6l0.2-1
	c0.9,0.2,1.9,0.4,2.9,0.6L-432.4,332.9z M-446.6,332.4l-0.1-1l2.9-0.2l0.1,1L-446.6,332.4z M-440.8,332l-0.1-1c1-0.1,2-0.1,2.9,0
	l0,1C-438.9,331.9-439.9,331.9-440.8,332z"/>
<path class="st134" d="M-451.4,484.2c-0.2-0.8-0.2-1.6-0.1-2.4c0.1-0.7,0.4-1.3,0.7-1.9c0.7-1.1,1.6-1.9,2.8-2.3
	c1.6-0.6,3.2-0.4,4.7,0.4c1.2,0.7,2,1.7,2.5,3c0.5,1.4,0.4,2.8-0.1,4.1c-0.1,0.2-0.1,0.4-0.2,0.6c-0.1,0.3-0.2,0.6-0.4,0.9
	c-0.3,0.7-0.6,1.5-0.9,2.2c-0.1,0.4-0.3,0.8-0.4,1.1c-0.2,0.6-0.5,1.2-0.7,1.8c-0.1,0.3-0.2,0.4-0.5,0.3c-0.1,0-0.2-0.1-0.3-0.2
	c-0.4-0.4-0.9-0.8-1.3-1.1c-0.3-0.3-0.7-0.6-1-0.9c-0.9-0.8-1.8-1.6-2.7-2.4c-0.3-0.3-0.7-0.5-0.9-0.9
	C-450.7,485.9-451.1,485.1-451.4,484.2 M-445.4,485c1.3-0.3,2.1-1.6,1.8-2.9c-0.3-1.3-1.6-2.1-2.9-1.8c-1.3,0.3-2.1,1.6-1.8,2.9
	C-448,484.6-446.7,485.4-445.4,485"/>
<g class="st135">
	<g>
		<g>
			<g>
				<path class="st115" d="M-358.2,392.7c-0.7,0.4-1.6,0.6-3,0.6c-4.9,0.1-4.7-2.7-4.7-6c0-3.3,2.1-6,4.7-6c0.4,0,0.7,0.1,1.1,0.2
					c-1.5-1-10.3-6.1-12.2,15.7l-0.5,27.5h-32.7l14,65.8l16.1-20.7c0,0,13.5-24.9,18.7-33.2C-353.3,430.9-356.1,407-358.2,392.7z"/>
				<rect x="-426.8" y="467.2" class="st115" width="51.3" height="30.6"/>
				<path class="st115" d="M-358.2,392.7c-0.7,0.4-1.6,0.6-3,0.6c-1.3,0-2.2-0.1-2.8-0.4c0.1,4-0.2,8.1,0.2,12.1
					c1,10,2.4,17.6,0.6,26.3c-1.9,9-8.3,21.7-13.9,29c-4.8,6.2-10.5,12.4-17.3,16.4l2.9,13.8l16.1-20.7c0,0,13.5-24.9,18.7-33.2
					C-353.3,430.9-356.1,407-358.2,392.7z"/>
				<path class="st115" d="M-361.2,381.4c0.4,0,0.7,0.1,1.1,0.2c-0.2-0.1-0.5-0.4-1-0.6c-0.1,0.1-0.2,0.3-0.3,0.4
					C-361.3,381.4-361.3,381.4-361.2,381.4z"/>
				<path class="st115" d="M-365.9,387.4c0,3.3-0.3,6.1,4.7,6c1.4,0,2.3-0.3,3-0.6c-1-6.5-1.8-11-1.8-11s-0.1-0.1-0.2-0.2
					c-0.3-0.1-0.7-0.2-1.1-0.2C-363.8,381.4-365.9,384.1-365.9,387.4z"/>
			</g>
			<rect x="-401.9" y="467.2" class="st115" width="26.4" height="30.6"/>
			<path class="st115" d="M-372.4,459.4c0,5.8-4.2,10.4-9.3,10.4h-43.5c-5.2,0-9.3-4.7-9.3-10.4v-97.9c0-5.8,4.2-10.4,9.3-10.4h43.5
				c5.2,0,9.3,4.7,9.3,10.4V459.4z"/>
			<path class="st115" d="M-376.5,452.7v-91.2c0,0,0,0,0-0.1h-53.9c0,0,0,0,0,0.1v91.2H-376.5z"/>
			<rect x="-430.5" y="433.3" class="st115" width="53.9" height="19.4"/>
			<path class="st115" d="M-424.2,454.4c2.5,2.3,2.5,6.4-0.1,9.1l0,0c-2.5,2.7-6.6,3.1-9.1,0.8l-17.4-16c-2.5-2.3-2.5-6.4,0.1-9.1
				l0,0c2.5-2.7,6.6-3.1,9.1-0.8L-424.2,454.4z"/>
			<path class="st115" d="M-424.2,429.5c2.2,2,1.9,5.9-0.6,8.6l0,0c-2.5,2.7-6.3,3.3-8.5,1.3l-15.2-14.1c-2.2-2-1.9-5.9,0.6-8.6l0,0
				c2.5-2.7,6.3-3.3,8.5-1.3L-424.2,429.5z"/>
			<path class="st115" d="M-422.9,405.4c2,1.9,1.6,5.6-0.9,8.3l0,0c-2.5,2.7-6.2,3.4-8.2,1.6l-14.1-13c-2-1.9-1.6-5.6,0.9-8.3l0,0
				c2.5-2.7,6.2-3.4,8.2-1.6L-422.9,405.4z"/>
			<path class="st115" d="M-434.6,372.9c0,0-11.4-11.4-17.1-6.2c-5.7,5.2,4.7,17.6,17.1,23.8V372.9z"/>
			<path class="st115" d="M-427.1,455.7c2.3,2.3,3,5.4,1.5,6.9c-1.5,1.5-4.6,0.8-6.9-1.5c-2.3-2.3-4.3-4-1.5-6.9
				C-431.2,451.3-429.4,453.4-427.1,455.7z"/>
			<path class="st115" d="M-428.5,429.3c2.3,2.3,3,5.4,1.5,6.9c-1.5,1.5-4.6,0.8-6.9-1.5c-2.3-2.3-4.3-4-1.5-6.9
				C-432.7,424.8-430.9,426.9-428.5,429.3z"/>
			<path class="st115" d="M-426.4,405.4c2.3,2.3,3,5.4,1.6,6.9c-1.5,1.5-4.6,0.8-6.9-1.5c-2.3-2.3-4.3-4-1.5-6.9
				C-430.6,400.9-428.8,403.1-426.4,405.4z"/>
			<rect x="-430.8" y="487.3" class="st115" width="57.4" height="4.5"/>
			<path class="st115" d="M-375.7,555.7h-53.6c-0.6,0-1-0.5-1-1l0.6-48.7h55.6l-0.6,48.7C-374.7,555.3-375.1,555.7-375.7,555.7z"/>
		</g>
		<g>
			<path class="st115" d="M-427,554.4L-427,554.4c-0.6,0-1-0.5-1-1l0.6-45.9h2.1l-0.6,45.9C-426,553.9-426.5,554.4-427,554.4z"/>
			<path class="st115" d="M-422.6,554.4L-422.6,554.4c-0.6,0-1-0.5-1-1l0.6-45.9h2.1l-0.6,45.9C-421.6,553.9-422,554.4-422.6,554.4z
				"/>
			<path class="st115" d="M-418.2,554.4L-418.2,554.4c-0.6,0-1-0.5-1-1l0.6-45.9h2.1l-0.6,45.9
				C-417.1,553.9-417.6,554.4-418.2,554.4z"/>
			<path class="st115" d="M-413.7,554.4L-413.7,554.4c-0.6,0-1-0.5-1-1l0.6-45.9h2.1l-0.6,45.9
				C-412.7,553.9-413.2,554.4-413.7,554.4z"/>
			<path class="st115" d="M-409.3,554.4L-409.3,554.4c-0.6,0-1-0.5-1-1l0.6-45.9h2.1l-0.6,45.9
				C-408.2,553.9-408.7,554.4-409.3,554.4z"/>
			<path class="st115" d="M-404.9,554.4L-404.9,554.4c-0.6,0-1-0.5-1-1l0.6-45.9h2.1l-0.6,45.9
				C-403.8,553.9-404.3,554.4-404.9,554.4z"/>
			<path class="st115" d="M-400.4,554.4L-400.4,554.4c-0.6,0-1-0.5-1-1l0.6-45.9h2.1l-0.6,45.9
				C-399.4,553.9-399.8,554.4-400.4,554.4z"/>
			<path class="st115" d="M-396,554.4L-396,554.4c-0.6,0-1-0.5-1-1l0.6-45.9h2.1l-0.6,45.9C-394.9,553.9-395.4,554.4-396,554.4z"/>
			<path class="st115" d="M-391.5,554.4L-391.5,554.4c-0.6,0-1-0.5-1-1l0.6-45.9h2.1l-0.6,45.9C-390.5,553.9-391,554.4-391.5,554.4z
				"/>
			<path class="st115" d="M-387.1,554.4L-387.1,554.4c-0.6,0-1-0.5-1-1l0.6-45.9h2.1l-0.6,45.9C-386,553.9-386.5,554.4-387.1,554.4z
				"/>
			<path class="st115" d="M-382.7,554.4L-382.7,554.4c-0.6,0-1-0.5-1-1l0.6-45.9h2.1l-0.6,45.9
				C-381.6,553.9-382.1,554.4-382.7,554.4z"/>
			<path class="st115" d="M-378.2,554.4L-378.2,554.4c-0.6,0-1-0.5-1-1l0.6-45.9h2.1l-0.6,45.9
				C-377.2,553.9-377.6,554.4-378.2,554.4z"/>
		</g>
		<g>
			<rect x="-434.6" y="491.1" class="st115" width="68.1" height="16.9"/>
			<circle class="st115" cx="-373.8" cy="499" r="4.5"/>
		</g>
		<circle class="st115" cx="-375" cy="498" r="0.8"/>
		<circle class="st115" cx="-372.6" cy="498" r="0.8"/>
		<circle class="st115" cx="-375" cy="500.2" r="0.8"/>
		<circle class="st115" cx="-372.6" cy="500.2" r="0.8"/>
	</g>
	<rect x="-417.6" y="423.3" class="st115" width="34.5" height="4.1"/>
	<rect x="-417.6" y="415.2" class="st115" width="34.5" height="4.1"/>
</g>
<g>
	<path class="st136" d="M-360.2,392.7c-0.7,0.4-1.6,0.6-3,0.6c-4.9,0.1-4.7-2.7-4.7-6c0-3.3,2.1-6,4.7-6c0.4,0,0.7,0.1,1.1,0.2
		c-1.5-1-10.3-6.1-12.2,15.7l-0.5,27.5h-32.7l14,65.8l16.1-20.7c0,0,13.5-24.9,18.7-33.2C-355.3,430.9-358.1,407-360.2,392.7z"/>
	<rect x="-428.8" y="467.2" class="st136" width="51.3" height="30.6"/>
	<path class="st137" d="M-360.2,392.7c-0.7,0.4-1.6,0.6-3,0.6c-1.3,0-2.2-0.1-2.8-0.4c0.1,4-0.2,8.1,0.2,12.1
		c1,10,2.4,17.6,0.6,26.3c-1.9,9-8.3,21.7-13.9,29c-4.8,6.2-10.5,12.4-17.3,16.4l2.9,13.8l16.1-20.7c0,0,13.5-24.9,18.7-33.2
		C-355.3,430.9-358.1,407-360.2,392.7z"/>
	<path class="st138" d="M-363.2,381.4c0.4,0,0.7,0.1,1.1,0.2c-0.2-0.1-0.5-0.4-1-0.6c-0.1,0.1-0.2,0.3-0.3,0.4
		C-363.3,381.4-363.3,381.4-363.2,381.4z"/>
	<path class="st139" d="M-367.9,387.4c0,3.3-0.3,6.1,4.7,6c1.4,0,2.3-0.3,3-0.6c-1-6.5-1.8-11-1.8-11s-0.1-0.1-0.2-0.2
		c-0.3-0.1-0.7-0.2-1.1-0.2C-365.8,381.4-367.9,384.1-367.9,387.4z"/>
</g>
<rect x="-403.9" y="467.2" class="st137" width="26.4" height="30.6"/>
<path class="st140" d="M-374.4,459.4c0,5.8-4.2,10.4-9.3,10.4h-43.5c-5.2,0-9.3-4.7-9.3-10.4v-97.9c0-5.8,4.2-10.4,9.3-10.4h43.5
	c5.2,0,9.3,4.7,9.3,10.4V459.4z"/>
<path class="st99" d="M-378.5,452.7v-91.2c0,0,0,0,0-0.1h-53.9c0,0,0,0,0,0.1v91.2H-378.5z"/>
<path class="st136" d="M-426.2,454.4c2.5,2.3,2.5,6.4-0.1,9.1l0,0c-2.5,2.7-6.6,3.1-9.1,0.8l-17.4-16c-2.5-2.3-2.5-6.4,0.1-9.1l0,0
	c2.5-2.7,6.6-3.1,9.1-0.8L-426.2,454.4z"/>
<path class="st136" d="M-424.9,405.4c2,1.9,1.6,5.6-0.9,8.3l0,0c-2.5,2.7-6.2,3.4-8.2,1.6l-14.1-13c-2-1.9-1.6-5.6,0.9-8.3l0,0
	c2.5-2.7,6.2-3.4,8.2-1.6L-424.9,405.4z"/>
<path class="st136" d="M-436.6,372.9c0,0-11.4-11.4-17.1-6.2c-5.7,5.2,4.7,17.6,17.1,23.8V372.9z"/>
<path class="st139" d="M-429.1,455.7c2.3,2.3,3,5.4,1.5,6.9c-1.5,1.5-4.6,0.8-6.9-1.5c-2.3-2.3-4.3-4-1.5-6.9
	C-433.2,451.3-431.4,453.4-429.1,455.7z"/>
<path class="st139" d="M-428.4,405.4c2.3,2.3,3,5.4,1.6,6.9c-1.5,1.5-4.6,0.8-6.9-1.5c-2.3-2.3-4.3-4-1.5-6.9
	C-432.6,400.9-430.8,403.1-428.4,405.4z"/>
<rect x="-432.8" y="487.3" class="st57" width="57.4" height="4.5"/>
<path class="st141" d="M-377.7,555.7h-53.6c-0.6,0-1-0.5-1-1l0.6-48.7h55.6l-0.6,48.7C-376.7,555.3-377.1,555.7-377.7,555.7z"/>
<g>
	<rect x="-436.6" y="491.1" class="st142" width="68.1" height="16.9"/>
	<circle class="st143" cx="-375.8" cy="499" r="4.5"/>
</g>
<circle class="st142" cx="-377" cy="498" r="0.8"/>
<circle class="st142" cx="-374.6" cy="498" r="0.8"/>
<circle class="st142" cx="-377" cy="500.2" r="0.8"/>
<circle class="st142" cx="-374.6" cy="500.2" r="0.8"/>
<g>
	<path class="st141" d="M-458.3,321h-31.6c-1.2,0-2.2,1-2.2,2.2v24.2c0,0.1,0,0.2,0,0.3c0.8,12.4,30.8,13.1,30.8,13.1
		c-9.2-2.8-13.1-8.5-14.6-11.1h17.5c1.2,0,2.2-1,2.2-2.2v-24.2C-456.1,322-457.1,321-458.3,321z"/>
	<g>
		<circle class="st57" cx="-482.6" cy="333.4" r="2.2"/>
		<circle class="st57" cx="-474.2" cy="333.4" r="2.2"/>
		<circle class="st57" cx="-465.8" cy="333.4" r="2.2"/>
	</g>
</g>
<g>
	<rect x="-432.5" y="361.3" class="st144" width="53.8" height="4.3"/>
	<circle class="st145" cx="-429.7" cy="363.3" r="1.1"/>
	<circle class="st57" cx="-429.7" cy="363.3" r="0.6"/>
	<circle class="st145" cx="-429.7" cy="363.3" r="0.4"/>
	<path class="st146" d="M-380.4,363.3c0,0.7-0.5,1.2-1.2,1.2h-1.7c-0.7,0-1.2-0.5-1.2-1.2l0,0c0-0.7,0.5-1.2,1.2-1.2h1.7
		C-380.9,362.1-380.4,362.6-380.4,363.3L-380.4,363.3z"/>
	<path class="st147" d="M-385.5,363.3c0,0.7-0.5,1.2-1.2,1.2h-1.7c-0.7,0-1.2-0.5-1.2-1.2l0,0c0-0.7,0.5-1.2,1.2-1.2h1.7
		C-386,362.1-385.5,362.6-385.5,363.3L-385.5,363.3z"/>
	<path class="st148" d="M-390.7,363.3c0,0.7-0.5,1.2-1.2,1.2h-1.7c-0.7,0-1.2-0.5-1.2-1.2l0,0c0-0.7,0.5-1.2,1.2-1.2h1.7
		C-391.2,362.1-390.7,362.6-390.7,363.3L-390.7,363.3z"/>
	<path class="st57" d="M-410.7,363.3c0,0.6-0.5,1.1-1.1,1.1h-13.4c-0.6,0-1.1-0.5-1.1-1.1l0,0c0-0.6,0.5-1.1,1.1-1.1h13.4
		C-411.2,362.2-410.7,362.7-410.7,363.3L-410.7,363.3z"/>
</g>
<g>
	<rect x="-432.8" y="365.8" class="st144" width="13.6" height="5.1"/>
	<rect x="-419.1" y="365.8" class="st149" width="13.6" height="5.1"/>
	<rect x="-405.5" y="365.8" class="st150" width="13.6" height="5.1"/>
	<rect x="-391.9" y="365.8" class="st144" width="13.6" height="5.1"/>
	<g class="st151">
		<path class="st152" d="M-429.7,367.6h0.3v1.1h0.3v0.2h-0.6V367.6z"/>
		<path class="st152" d="M-428.3,368.5c0,0.4-0.2,0.5-0.4,0.5c-0.2,0-0.4-0.2-0.4-0.5c0-0.3,0.2-0.5,0.4-0.5
			C-428.4,368-428.3,368.2-428.3,368.5z M-428.8,368.5c0,0.2,0,0.3,0.1,0.3c0.1,0,0.1-0.2,0.1-0.3c0-0.1,0-0.3-0.1-0.3
			C-428.7,368.2-428.8,368.3-428.8,368.5z"/>
		<path class="st152" d="M-428.1,368.3c0-0.1,0-0.2,0-0.3h0.2l0,0.1h0c0-0.1,0.1-0.2,0.2-0.2c0,0,0,0,0.1,0v0.3c0,0,0,0-0.1,0
			c-0.1,0-0.1,0-0.2,0.1c0,0,0,0.1,0,0.1v0.5h-0.3V368.3z"/>
		<path class="st152" d="M-427.4,368.6c0,0.1,0.1,0.2,0.2,0.2c0.1,0,0.1,0,0.2,0l0,0.2c-0.1,0-0.2,0-0.3,0c-0.3,0-0.4-0.2-0.4-0.5
			c0-0.3,0.2-0.5,0.4-0.5c0.2,0,0.3,0.2,0.3,0.4c0,0.1,0,0.1,0,0.1H-427.4z M-427.2,368.4c0-0.1,0-0.2-0.1-0.2
			c-0.1,0-0.1,0.1-0.1,0.2H-427.2z"/>
		<path class="st152" d="M-426.8,368.3c0-0.1,0-0.2,0-0.3h0.2l0,0.1h0c0-0.1,0.1-0.1,0.2-0.1c0.1,0,0.2,0,0.2,0.1h0
			c0,0,0.1-0.1,0.1-0.1c0,0,0.1,0,0.1,0c0.2,0,0.2,0.1,0.2,0.4v0.6h-0.3v-0.6c0-0.1,0-0.2-0.1-0.2c0,0-0.1,0-0.1,0.1c0,0,0,0,0,0.1
			v0.6h-0.3v-0.6c0-0.1,0-0.2-0.1-0.2c0,0-0.1,0-0.1,0.1c0,0,0,0,0,0.1v0.6h-0.3V368.3z"/>
		<path class="st152" d="M-424.9,367.7c0,0.1-0.1,0.1-0.1,0.1c-0.1,0-0.1-0.1-0.1-0.1c0-0.1,0.1-0.1,0.1-0.1
			C-425,367.6-424.9,367.7-424.9,367.7z M-425.2,368.9V368h0.3v0.9H-425.2z"/>
		<path class="st152" d="M-424.7,368.3c0-0.1,0-0.2,0-0.3h0.2l0,0.1h0c0-0.1,0.1-0.1,0.2-0.1c0.2,0,0.3,0.2,0.3,0.5
			c0,0.3-0.1,0.5-0.3,0.5c-0.1,0-0.1,0-0.2-0.1h0v0.4h-0.3V368.3z M-424.5,368.6C-424.5,368.6-424.5,368.7-424.5,368.6
			c0,0.1,0.1,0.2,0.1,0.2c0.1,0,0.1-0.1,0.1-0.3c0-0.2,0-0.3-0.1-0.3c0,0-0.1,0-0.1,0.1c0,0,0,0,0,0.1V368.6z"/>
		<path class="st152" d="M-423.9,368.7c0,0,0.1,0.1,0.2,0.1c0.1,0,0.1,0,0.1-0.1c0,0,0-0.1-0.1-0.1c-0.2-0.1-0.2-0.2-0.2-0.3
			c0-0.2,0.1-0.3,0.3-0.3c0.1,0,0.1,0,0.2,0l0,0.2c0,0-0.1,0-0.1,0c-0.1,0-0.1,0-0.1,0.1c0,0,0,0.1,0.1,0.1c0.1,0.1,0.2,0.2,0.2,0.3
			c0,0.2-0.1,0.3-0.3,0.3c-0.1,0-0.2,0-0.2-0.1L-423.9,368.7z"/>
		<path class="st152" d="M-422.6,368.7c0,0.1,0,0.2,0,0.3h-0.2l0-0.1h0c0,0.1-0.1,0.1-0.2,0.1c-0.2,0-0.3-0.1-0.3-0.4V368h0.3v0.5
			c0,0.1,0,0.2,0.1,0.2c0,0,0.1,0,0.1-0.1c0,0,0,0,0-0.1V368h0.3V368.7z"/>
		<path class="st152" d="M-422.4,368.3c0-0.1,0-0.2,0-0.3h0.2l0,0.1h0c0-0.1,0.1-0.1,0.2-0.1c0.1,0,0.2,0,0.2,0.1h0
			c0,0,0.1-0.1,0.1-0.1c0,0,0.1,0,0.1,0c0.2,0,0.2,0.1,0.2,0.4v0.6h-0.3v-0.6c0-0.1,0-0.2-0.1-0.2c0,0-0.1,0-0.1,0.1c0,0,0,0,0,0.1
			v0.6h-0.3v-0.6c0-0.1,0-0.2-0.1-0.2c0,0-0.1,0-0.1,0.1c0,0,0,0,0,0.1v0.6h-0.3V368.3z"/>
	</g>
	<g class="st151">
		<path class="st152" d="M-416.4,367.6h0.3v1.1h0.3v0.2h-0.6V367.6z"/>
		<path class="st152" d="M-415,368.5c0,0.4-0.2,0.5-0.4,0.5c-0.2,0-0.4-0.2-0.4-0.5c0-0.3,0.2-0.5,0.4-0.5
			C-415.1,368-415,368.2-415,368.5z M-415.5,368.5c0,0.2,0,0.3,0.1,0.3c0.1,0,0.1-0.2,0.1-0.3c0-0.1,0-0.3-0.1-0.3
			C-415.5,368.2-415.5,368.3-415.5,368.5z"/>
		<path class="st152" d="M-414.9,368.3c0-0.1,0-0.2,0-0.3h0.2l0,0.1h0c0-0.1,0.1-0.2,0.2-0.2c0,0,0,0,0.1,0v0.3c0,0,0,0-0.1,0
			c-0.1,0-0.1,0-0.2,0.1c0,0,0,0.1,0,0.1v0.5h-0.3V368.3z"/>
		<path class="st152" d="M-414.1,368.6c0,0.1,0.1,0.2,0.2,0.2c0.1,0,0.1,0,0.2,0l0,0.2c-0.1,0-0.2,0-0.3,0c-0.3,0-0.4-0.2-0.4-0.5
			c0-0.3,0.2-0.5,0.4-0.5c0.2,0,0.3,0.2,0.3,0.4c0,0.1,0,0.1,0,0.1H-414.1z M-413.9,368.4c0-0.1,0-0.2-0.1-0.2
			c-0.1,0-0.1,0.1-0.1,0.2H-413.9z"/>
		<path class="st152" d="M-413.5,368.3c0-0.1,0-0.2,0-0.3h0.2l0,0.1h0c0-0.1,0.1-0.1,0.2-0.1c0.1,0,0.2,0,0.2,0.1h0
			c0,0,0.1-0.1,0.1-0.1c0,0,0.1,0,0.1,0c0.2,0,0.2,0.1,0.2,0.4v0.6h-0.3v-0.6c0-0.1,0-0.2-0.1-0.2c0,0-0.1,0-0.1,0.1c0,0,0,0,0,0.1
			v0.6h-0.3v-0.6c0-0.1,0-0.2-0.1-0.2c0,0-0.1,0-0.1,0.1c0,0,0,0,0,0.1v0.6h-0.3V368.3z"/>
		<path class="st152" d="M-411.6,367.7c0,0.1-0.1,0.1-0.1,0.1c-0.1,0-0.1-0.1-0.1-0.1c0-0.1,0.1-0.1,0.1-0.1
			C-411.7,367.6-411.6,367.7-411.6,367.7z M-411.9,368.9V368h0.3v0.9H-411.9z"/>
		<path class="st152" d="M-411.5,368.3c0-0.1,0-0.2,0-0.3h0.2l0,0.1h0c0-0.1,0.1-0.1,0.2-0.1c0.2,0,0.3,0.2,0.3,0.5
			c0,0.3-0.1,0.5-0.3,0.5c-0.1,0-0.1,0-0.2-0.1h0v0.4h-0.3V368.3z M-411.2,368.6C-411.2,368.6-411.2,368.7-411.2,368.6
			c0,0.1,0.1,0.2,0.1,0.2c0.1,0,0.1-0.1,0.1-0.3c0-0.2,0-0.3-0.1-0.3c0,0-0.1,0-0.1,0.1c0,0,0,0,0,0.1V368.6z"/>
		<path class="st152" d="M-410.6,368.7c0,0,0.1,0.1,0.2,0.1c0.1,0,0.1,0,0.1-0.1c0,0,0-0.1-0.1-0.1c-0.2-0.1-0.2-0.2-0.2-0.3
			c0-0.2,0.1-0.3,0.3-0.3c0.1,0,0.1,0,0.2,0l0,0.2c0,0-0.1,0-0.1,0c-0.1,0-0.1,0-0.1,0.1c0,0,0,0.1,0.1,0.1c0.1,0.1,0.2,0.2,0.2,0.3
			c0,0.2-0.1,0.3-0.3,0.3c-0.1,0-0.2,0-0.2-0.1L-410.6,368.7z"/>
		<path class="st152" d="M-409.3,368.7c0,0.1,0,0.2,0,0.3h-0.2l0-0.1h0c0,0.1-0.1,0.1-0.2,0.1c-0.2,0-0.3-0.1-0.3-0.4V368h0.3v0.5
			c0,0.1,0,0.2,0.1,0.2c0,0,0.1,0,0.1-0.1c0,0,0,0,0-0.1V368h0.3V368.7z"/>
		<path class="st152" d="M-409.1,368.3c0-0.1,0-0.2,0-0.3h0.2l0,0.1h0c0-0.1,0.1-0.1,0.2-0.1c0.1,0,0.2,0,0.2,0.1h0
			c0,0,0.1-0.1,0.1-0.1c0,0,0.1,0,0.1,0c0.2,0,0.2,0.1,0.2,0.4v0.6h-0.3v-0.6c0-0.1,0-0.2-0.1-0.2c0,0-0.1,0-0.1,0.1c0,0,0,0,0,0.1
			v0.6h-0.3v-0.6c0-0.1,0-0.2-0.1-0.2c0,0-0.1,0-0.1,0.1c0,0,0,0,0,0.1v0.6h-0.3V368.3z"/>
	</g>
	<g class="st151">
		<path class="st152" d="M-403.1,367.6h0.3v1.1h0.3v0.2h-0.6V367.6z"/>
		<path class="st152" d="M-401.7,368.5c0,0.4-0.2,0.5-0.4,0.5c-0.2,0-0.4-0.2-0.4-0.5c0-0.3,0.2-0.5,0.4-0.5
			C-401.9,368-401.7,368.2-401.7,368.5z M-402.2,368.5c0,0.2,0,0.3,0.1,0.3c0.1,0,0.1-0.2,0.1-0.3c0-0.1,0-0.3-0.1-0.3
			C-402.2,368.2-402.2,368.3-402.2,368.5z"/>
		<path class="st152" d="M-401.6,368.3c0-0.1,0-0.2,0-0.3h0.2l0,0.1h0c0-0.1,0.1-0.2,0.2-0.2c0,0,0,0,0.1,0v0.3c0,0,0,0-0.1,0
			c-0.1,0-0.1,0-0.2,0.1c0,0,0,0.1,0,0.1v0.5h-0.3V368.3z"/>
		<path class="st152" d="M-400.8,368.6c0,0.1,0.1,0.2,0.2,0.2c0.1,0,0.1,0,0.2,0l0,0.2c-0.1,0-0.2,0-0.3,0c-0.3,0-0.4-0.2-0.4-0.5
			c0-0.3,0.2-0.5,0.4-0.5c0.2,0,0.3,0.2,0.3,0.4c0,0.1,0,0.1,0,0.1H-400.8z M-400.6,368.4c0-0.1,0-0.2-0.1-0.2
			c-0.1,0-0.1,0.1-0.1,0.2H-400.6z"/>
		<path class="st152" d="M-400.2,368.3c0-0.1,0-0.2,0-0.3h0.2l0,0.1h0c0-0.1,0.1-0.1,0.2-0.1c0.1,0,0.2,0,0.2,0.1h0
			c0,0,0.1-0.1,0.1-0.1c0,0,0.1,0,0.1,0c0.2,0,0.2,0.1,0.2,0.4v0.6h-0.3v-0.6c0-0.1,0-0.2-0.1-0.2c0,0-0.1,0-0.1,0.1c0,0,0,0,0,0.1
			v0.6h-0.3v-0.6c0-0.1,0-0.2-0.1-0.2c0,0-0.1,0-0.1,0.1c0,0,0,0,0,0.1v0.6h-0.3V368.3z"/>
		<path class="st152" d="M-398.4,367.7c0,0.1-0.1,0.1-0.1,0.1c-0.1,0-0.1-0.1-0.1-0.1c0-0.1,0.1-0.1,0.1-0.1
			C-398.4,367.6-398.4,367.7-398.4,367.7z M-398.6,368.9V368h0.3v0.9H-398.6z"/>
		<path class="st152" d="M-398.2,368.3c0-0.1,0-0.2,0-0.3h0.2l0,0.1h0c0-0.1,0.1-0.1,0.2-0.1c0.2,0,0.3,0.2,0.3,0.5
			c0,0.3-0.1,0.5-0.3,0.5c-0.1,0-0.1,0-0.2-0.1h0v0.4h-0.3V368.3z M-397.9,368.6C-397.9,368.6-397.9,368.7-397.9,368.6
			c0,0.1,0.1,0.2,0.1,0.2c0.1,0,0.1-0.1,0.1-0.3c0-0.2,0-0.3-0.1-0.3c0,0-0.1,0-0.1,0.1c0,0,0,0,0,0.1V368.6z"/>
		<path class="st152" d="M-397.3,368.7c0,0,0.1,0.1,0.2,0.1c0.1,0,0.1,0,0.1-0.1c0,0,0-0.1-0.1-0.1c-0.2-0.1-0.2-0.2-0.2-0.3
			c0-0.2,0.1-0.3,0.3-0.3c0.1,0,0.1,0,0.2,0l0,0.2c0,0-0.1,0-0.1,0c-0.1,0-0.1,0-0.1,0.1c0,0,0,0.1,0.1,0.1c0.1,0.1,0.2,0.2,0.2,0.3
			c0,0.2-0.1,0.3-0.3,0.3c-0.1,0-0.2,0-0.2-0.1L-397.3,368.7z"/>
		<path class="st152" d="M-396,368.7c0,0.1,0,0.2,0,0.3h-0.2l0-0.1h0c0,0.1-0.1,0.1-0.2,0.1c-0.2,0-0.3-0.1-0.3-0.4V368h0.3v0.5
			c0,0.1,0,0.2,0.1,0.2c0,0,0.1,0,0.1-0.1c0,0,0,0,0-0.1V368h0.3V368.7z"/>
		<path class="st152" d="M-395.8,368.3c0-0.1,0-0.2,0-0.3h0.2l0,0.1h0c0-0.1,0.1-0.1,0.2-0.1c0.1,0,0.2,0,0.2,0.1h0
			c0,0,0.1-0.1,0.1-0.1c0,0,0.1,0,0.1,0c0.2,0,0.2,0.1,0.2,0.4v0.6h-0.3v-0.6c0-0.1,0-0.2-0.1-0.2c0,0-0.1,0-0.1,0.1c0,0,0,0,0,0.1
			v0.6h-0.3v-0.6c0-0.1,0-0.2-0.1-0.2c0,0-0.1,0-0.1,0.1c0,0,0,0,0,0.1v0.6h-0.3V368.3z"/>
	</g>
	<g class="st151">
		<path class="st152" d="M-389.5,367.6h0.3v1.1h0.3v0.2h-0.6V367.6z"/>
		<path class="st152" d="M-388.1,368.5c0,0.4-0.2,0.5-0.4,0.5c-0.2,0-0.4-0.2-0.4-0.5c0-0.3,0.2-0.5,0.4-0.5
			C-388.3,368-388.1,368.2-388.1,368.5z M-388.6,368.5c0,0.2,0,0.3,0.1,0.3c0.1,0,0.1-0.2,0.1-0.3c0-0.1,0-0.3-0.1-0.3
			C-388.6,368.2-388.6,368.3-388.6,368.5z"/>
		<path class="st152" d="M-388,368.3c0-0.1,0-0.2,0-0.3h0.2l0,0.1h0c0-0.1,0.1-0.2,0.2-0.2c0,0,0,0,0.1,0v0.3c0,0,0,0-0.1,0
			c-0.1,0-0.1,0-0.2,0.1c0,0,0,0.1,0,0.1v0.5h-0.3V368.3z"/>
		<path class="st152" d="M-387.2,368.6c0,0.1,0.1,0.2,0.2,0.2c0.1,0,0.1,0,0.2,0l0,0.2c-0.1,0-0.2,0-0.3,0c-0.3,0-0.4-0.2-0.4-0.5
			c0-0.3,0.2-0.5,0.4-0.5c0.2,0,0.3,0.2,0.3,0.4c0,0.1,0,0.1,0,0.1H-387.2z M-387,368.4c0-0.1,0-0.2-0.1-0.2c-0.1,0-0.1,0.1-0.1,0.2
			H-387z"/>
		<path class="st152" d="M-386.6,368.3c0-0.1,0-0.2,0-0.3h0.2l0,0.1h0c0-0.1,0.1-0.1,0.2-0.1c0.1,0,0.2,0,0.2,0.1h0
			c0,0,0.1-0.1,0.1-0.1c0,0,0.1,0,0.1,0c0.2,0,0.2,0.1,0.2,0.4v0.6h-0.3v-0.6c0-0.1,0-0.2-0.1-0.2c0,0-0.1,0-0.1,0.1c0,0,0,0,0,0.1
			v0.6h-0.3v-0.6c0-0.1,0-0.2-0.1-0.2c0,0-0.1,0-0.1,0.1c0,0,0,0,0,0.1v0.6h-0.3V368.3z"/>
		<path class="st152" d="M-384.8,367.7c0,0.1-0.1,0.1-0.1,0.1c-0.1,0-0.1-0.1-0.1-0.1c0-0.1,0.1-0.1,0.1-0.1
			C-384.8,367.6-384.8,367.7-384.8,367.7z M-385,368.9V368h0.3v0.9H-385z"/>
		<path class="st152" d="M-384.6,368.3c0-0.1,0-0.2,0-0.3h0.2l0,0.1h0c0-0.1,0.1-0.1,0.2-0.1c0.2,0,0.3,0.2,0.3,0.5
			c0,0.3-0.1,0.5-0.3,0.5c-0.1,0-0.1,0-0.2-0.1h0v0.4h-0.3V368.3z M-384.3,368.6C-384.3,368.6-384.3,368.7-384.3,368.6
			c0,0.1,0.1,0.2,0.1,0.2c0.1,0,0.1-0.1,0.1-0.3c0-0.2,0-0.3-0.1-0.3c0,0-0.1,0-0.1,0.1c0,0,0,0,0,0.1V368.6z"/>
		<path class="st152" d="M-383.7,368.7c0,0,0.1,0.1,0.2,0.1c0.1,0,0.1,0,0.1-0.1c0,0,0-0.1-0.1-0.1c-0.2-0.1-0.2-0.2-0.2-0.3
			c0-0.2,0.1-0.3,0.3-0.3c0.1,0,0.1,0,0.2,0l0,0.2c0,0-0.1,0-0.1,0c-0.1,0-0.1,0-0.1,0.1c0,0,0,0.1,0.1,0.1c0.1,0.1,0.2,0.2,0.2,0.3
			c0,0.2-0.1,0.3-0.3,0.3c-0.1,0-0.2,0-0.2-0.1L-383.7,368.7z"/>
		<path class="st152" d="M-382.4,368.7c0,0.1,0,0.2,0,0.3h-0.2l0-0.1h0c0,0.1-0.1,0.1-0.2,0.1c-0.2,0-0.3-0.1-0.3-0.4V368h0.3v0.5
			c0,0.1,0,0.2,0.1,0.2c0,0,0.1,0,0.1-0.1c0,0,0,0,0-0.1V368h0.3V368.7z"/>
		<path class="st152" d="M-382.2,368.3c0-0.1,0-0.2,0-0.3h0.2l0,0.1h0c0-0.1,0.1-0.1,0.2-0.1c0.1,0,0.2,0,0.2,0.1h0
			c0,0,0.1-0.1,0.1-0.1c0,0,0.1,0,0.1,0c0.2,0,0.2,0.1,0.2,0.4v0.6h-0.3v-0.6c0-0.1,0-0.2-0.1-0.2c0,0-0.1,0-0.1,0.1c0,0,0,0,0,0.1
			v0.6h-0.3v-0.6c0-0.1,0-0.2-0.1-0.2c0,0-0.1,0-0.1,0.1c0,0,0,0,0,0.1v0.6h-0.3V368.3z"/>
	</g>
</g>
<g class="st153">
	<path class="st144" d="M-416.9,376.2c0,0.5-0.4,0.8-0.8,0.8h-9.8c-0.5,0-0.8-0.4-0.8-0.8l0,0c0-0.5,0.4-0.8,0.8-0.8h9.8
		C-417.3,375.4-416.9,375.7-416.9,376.2L-416.9,376.2z"/>
	<path class="st154" d="M-401.8,376.2c0,0.5-0.4,0.8-0.8,0.8h-9.8c-0.5,0-0.8-0.4-0.8-0.8l0,0c0-0.5,0.4-0.8,0.8-0.8h9.8
		C-402.2,375.4-401.8,375.7-401.8,376.2L-401.8,376.2z"/>
	<linearGradient id="SVGID_4_" gradientUnits="userSpaceOnUse" x1="-398.1734" y1="375.9189" x2="-386.6986" y2="376.4502">
		<stop  offset="0" style="stop-color:#83C21C"/>
		<stop  offset="0.5896" style="stop-color:#6FB40E"/>
		<stop  offset="1" style="stop-color:#68AF09"/>
	</linearGradient>
	<path class="st5" d="M-386.7,376.2c0,0.5-0.4,0.8-0.8,0.8h-9.8c-0.5,0-0.8-0.4-0.8-0.8l0,0c0-0.5,0.4-0.8,0.8-0.8h9.8
		C-387.1,375.4-386.7,375.7-386.7,376.2L-386.7,376.2z"/>
</g>
<g>
	<rect x="-417.3" y="401.6" class="st129" width="23.3" height="7.2"/>
	<g>
		<text transform="matrix(1 0 0 1 -412.1773 407.267)" class="st156 st157 st158">CALL</text>
	</g>
</g>
<g class="st159">
	<path class="st144" d="M-427.4,394.6c0,1.3,1.8,2.4,4,2.4h34.6c2.2,0,4-1.1,4-2.4v-10.3c0-1.3-1.8-2.4-4-2.4h-34.6
		c-2.2,0-4,1.1-4,2.4V394.6z"/>
	<g>
		<rect x="-423.7" y="384.6" class="st160" width="4.5" height="1.2"/>
		<rect x="-417.8" y="384.6" class="st160" width="10.8" height="1.2"/>
		<rect x="-405.7" y="384.6" class="st160" width="6" height="1.2"/>
		<rect x="-398.4" y="384.6" class="st160" width="9.8" height="1.2"/>
		<rect x="-423.7" y="387.5" class="st160" width="6" height="1.2"/>
		<rect x="-416.4" y="387.5" class="st160" width="5.4" height="1.2"/>
		<rect x="-409.6" y="387.5" class="st160" width="9" height="1.2"/>
		<rect x="-399.3" y="387.5" class="st160" width="10.7" height="1.2"/>
		<rect x="-423.7" y="390.3" class="st160" width="7.2" height="1.2"/>
		<rect x="-415.2" y="390.3" class="st160" width="10.1" height="1.2"/>
		<rect x="-403.8" y="390.3" class="st160" width="3.8" height="1.2"/>
		<rect x="-398.7" y="390.3" class="st160" width="10.1" height="1.2"/>
		<rect x="-423.7" y="393.2" class="st160" width="3.4" height="1.2"/>
		<rect x="-419" y="393.2" class="st160" width="10.1" height="1.2"/>
		<rect x="-407.6" y="393.2" class="st160" width="7.7" height="1.2"/>
		<rect x="-398.6" y="393.2" class="st160" width="10" height="1.2"/>
	</g>
</g>
<g class="st159">
	<path class="st161" d="M-427.4,429.8c0,1.3,1.8,2.4,4,2.4h34.6c2.2,0,4-1.1,4-2.4v-10.3c0-1.3-1.8-2.4-4-2.4h-34.6
		c-2.2,0-4,1.1-4,2.4V429.8z"/>
	<g>
		<rect x="-423.7" y="419.8" class="st162" width="4.5" height="1.2"/>
		<rect x="-417.8" y="419.8" class="st162" width="10.8" height="1.2"/>
		<rect x="-405.7" y="419.8" class="st162" width="6" height="1.2"/>
		<rect x="-398.4" y="419.8" class="st162" width="9.8" height="1.2"/>
		<rect x="-423.7" y="422.7" class="st162" width="6" height="1.2"/>
		<rect x="-416.4" y="422.7" class="st162" width="5.4" height="1.2"/>
		<rect x="-409.6" y="422.7" class="st162" width="9" height="1.2"/>
		<rect x="-399.3" y="422.7" class="st162" width="10.7" height="1.2"/>
		<rect x="-423.7" y="425.5" class="st162" width="7.2" height="1.2"/>
		<rect x="-415.2" y="425.5" class="st162" width="10.1" height="1.2"/>
		<rect x="-403.8" y="425.5" class="st162" width="3.8" height="1.2"/>
		<rect x="-398.7" y="425.5" class="st162" width="10.1" height="1.2"/>
		<rect x="-423.7" y="428.4" class="st162" width="3.4" height="1.2"/>
		<rect x="-419" y="428.4" class="st162" width="10.1" height="1.2"/>
		<rect x="-407.6" y="428.4" class="st162" width="7.7" height="1.2"/>
		<rect x="-398.6" y="428.4" class="st162" width="10" height="1.2"/>
	</g>
</g>
<g>
	<g>
		<path class="st130" d="M-379.4,386.3c-7.4,1.8-11.9,9.3-10.1,16.6c1.8,7.4,9.3,11.9,16.6,10.1c7.4-1.8,11.9-9.3,10.1-16.6
			C-364.6,389-372,384.5-379.4,386.3"/>
		<path class="st115" d="M-370.6,402.2c-0.1,0.1-0.2,0.1-0.4,0c-0.9-0.6-1.9-1.1-2.8-1.7c-0.1,0-0.1-0.1-0.2-0.1
			c0.1,0.4,0.2,0.7,0.3,1c0,0.2,0.1,0.3,0.1,0.5c0.1,0.6-0.1,1.1-0.8,1.3c-1.4,0.3-2.8,0.7-4.2,1c-0.6,0.1-1.2,0.3-1.8,0.4
			c-0.3,0.1-0.7,0-0.9-0.2c-0.1-0.1-0.2-0.3-0.3-0.5c-0.5-2.2-1.1-4.4-1.6-6.6c-0.1-0.6,0.2-1.1,0.7-1.2c0.7-0.2,1.5-0.4,2.2-0.5
			c1.2-0.3,2.5-0.6,3.7-0.9c0.6-0.2,1.2,0.1,1.4,0.8c0.1,0.5,0.2,1,0.4,1.5c0.3-0.6,0.7-1.1,0.9-1.6c0.3-0.5,0.6-1.1,0.9-1.6
			c0,0,0.1-0.1,0.1-0.1c0.3-0.1,0.7,0.2,0.8,0.5c0,0,0,0.1,0,0.1c0.6,2.3,1.1,4.6,1.7,6.9C-370.2,401.7-370.3,402-370.6,402.2"/>
	</g>
	<g>
		<path class="st163" d="M-380.9,386.1c-7.4,1.8-11.9,9.3-10.1,16.6c1.8,7.4,9.3,11.9,16.6,10.1c7.4-1.8,11.9-9.3,10.1-16.6
			C-366.1,388.8-373.6,384.3-380.9,386.1"/>
		<path class="st57" d="M-372.1,402c-0.1,0.1-0.2,0.1-0.4,0c-0.9-0.6-1.9-1.1-2.8-1.7c-0.1,0-0.1-0.1-0.2-0.1c0.1,0.4,0.2,0.7,0.3,1
			c0,0.2,0.1,0.3,0.1,0.5c0.1,0.6-0.1,1.1-0.8,1.3c-1.4,0.3-2.8,0.7-4.2,1c-0.6,0.1-1.2,0.3-1.8,0.4c-0.3,0.1-0.7,0-0.9-0.2
			c-0.1-0.1-0.2-0.3-0.3-0.5c-0.5-2.2-1.1-4.4-1.6-6.6c-0.1-0.6,0.2-1.1,0.7-1.2c0.7-0.2,1.5-0.4,2.2-0.5c1.2-0.3,2.5-0.6,3.7-0.9
			c0.6-0.2,1.2,0.1,1.4,0.8c0.1,0.5,0.2,1,0.4,1.5c0.3-0.6,0.7-1.1,0.9-1.6c0.3-0.5,0.6-1.1,0.9-1.6c0,0,0.1-0.1,0.1-0.1
			c0.3-0.1,0.7,0.2,0.8,0.5c0,0,0,0.1,0,0.1c0.6,2.3,1.1,4.6,1.7,6.9C-371.7,401.5-371.8,401.8-372.1,402"/>
	</g>
</g>
<g>
	<g>
		<path class="st164" d="M-421.9,368.8h-20.3c-0.8,0-1.4,0.6-1.4,1.4v15.5c0,0.1,0,0.1,0,0.2c0.5,7.9,19.8,8.4,19.8,8.4
			c-5.9-1.8-8.4-5.4-9.3-7.2h11.2c0.8,0,1.4-0.6,1.4-1.4v-15.5C-420.5,369.4-421.1,368.8-421.9,368.8z"/>
	</g>
	<g>
		<rect x="-440.1" y="372.8" class="st57" width="18.2" height="1.6"/>
		<rect x="-440.1" y="375.6" class="st57" width="18.2" height="1.6"/>
		<rect x="-440.1" y="378.3" class="st57" width="18.2" height="1.6"/>
		<rect x="-440.1" y="381.1" class="st57" width="18.2" height="1.6"/>
	</g>
</g>
<g>
	<path class="st136" d="M-426.2,429.5c2.2,2,1.9,5.9-0.6,8.6l0,0c-2.5,2.7-6.3,3.3-8.5,1.3l-15.2-14.1c-2.2-2-1.9-5.9,0.6-8.6l0,0
		c2.5-2.7,6.3-3.3,8.5-1.3L-426.2,429.5z"/>
	<path class="st139" d="M-430.5,429.3c2.3,2.3,3,5.4,1.5,6.9c-1.5,1.5-4.6,0.8-6.9-1.5c-2.3-2.3-4.3-4-1.5-6.9
		C-434.7,424.8-432.9,426.9-430.5,429.3z"/>
</g>
</svg>
