<?xml version="1.0" encoding="utf-8"?>
<!-- Generator: Adobe Illustrator 19.1.0, SVG Export Plug-In . SVG Version: 6.00 Build 0)  -->
<svg version="1.1" id="Layer_1" xmlns="http://www.w3.org/2000/svg" xmlns:xlink="http://www.w3.org/1999/xlink" x="0px" y="0px"
	 viewBox="0 0 84.6 78.2" style="enable-background:new 0 0 84.6 78.2;" xml:space="preserve">
<style type="text/css">
	.st0{fill:#011757;}
</style>
<g>
	<g>
		<path class="st0" d="M57.3,77.7c-5.4,0-10.7-2.4-14.2-6.9c-0.2-0.2-0.3-0.4-0.5-0.6L42,69.5l0.3-0.5c2.2-3.9,2.9-7.9,2.1-12.1
			L44.2,56l1.3-0.1c0.3,0,0.6,0,0.9-0.1l13.9-0.3c2.9-0.1,3.6-0.8,3.6-3.8c0-1.8,0-3.5-0.1-5.3l0-3.6l1.2,0.6
			c2.1,1.1,3.8,2.3,5.1,3.8c0.6,0.7,1.2,1.3,1.7,2c0.2,0.3,0.5,0.6,0.8,0.9l0.1,0.1l0,0.2c0.2,0.7,0.5,1.3,0.8,2
			c0.3,0.7,0.6,1.4,0.9,2.2c2.4,8.4-1.5,17-9.4,21.1C62.6,77.1,60,77.7,57.3,77.7z M44,69.3c0.1,0.2,0.3,0.3,0.4,0.5
			c4.7,6,13.3,8,19.9,4.6c7.2-3.7,10.7-11.6,8.5-19.2c-0.2-0.7-0.5-1.3-0.8-2c-0.3-0.6-0.6-1.3-0.8-2c-0.2-0.3-0.4-0.5-0.7-0.8
			c-0.5-0.7-1.1-1.3-1.7-2c-1-1.1-2.1-2-3.5-2.8l0,0.8c0,1.8,0,3.5,0.1,5.3c0.1,3.9-1.3,5.4-5.2,5.4l-13.9,0.3c-0.1,0-0.2,0-0.3,0
			C46.7,61.5,46,65.5,44,69.3z"/>
		<path class="st0" d="M30.1,23.3c-0.2,0-0.4,0-0.6,0l-0.5,0L28.8,23c-1.2-1.2-2.7-2.1-4.3-2.9l-0.4-0.2l0-0.5
			c-0.3-8,3-13.8,9.8-17.4c5.5-2.9,11.9-2.6,17.3,0.6c5.4,3.2,8.7,8.9,8.7,15.2l0,1.8l-0.4,0.2c-0.3,0.2-0.7,0.4-1,0.6
			c-1,0.6-2,1.2-2.7,2l-0.2,0.2L55,22.7c-0.3,0-0.5,0.1-0.8,0.1C46.2,23,38.2,23.1,30.1,23.3C30.2,23.3,30.1,23.3,30.1,23.3z
			 M29.8,21.6c0.1,0,0.3,0,0.4,0c8-0.2,16-0.3,24-0.5c0.2,0,0.4,0,0.6-0.1l0,0c0.9-0.9,1.9-1.5,2.8-2.1c0.2-0.1,0.4-0.2,0.6-0.4
			l0-0.9c0-5.7-3-10.9-7.9-13.8c-4.8-2.9-10.7-3.1-15.7-0.5c-6.1,3.2-9.1,8.3-8.9,15.3C27.1,19.6,28.6,20.4,29.8,21.6z"/>
		<path class="st0" d="M28.3,78.2c-5,0-9.8-2.1-13.4-6c-5.1-5.7-5.9-14-2.1-20.9l0.3-0.5l0.6,0.1c2.5,0.5,4.5,0.6,6.4,0.3l0.9-0.1
			l0.2,2.4c0,0.6,0.1,1.2,0.4,1.6c0.6,0.9,1.4,1.3,2.6,1.2l6.7-0.1L29.5,58c-0.2,0.3-0.4,0.6-0.6,0.8c-0.6,0.7-1.2,1.5-1.7,2.2
			c-0.4,0.5-0.8,0.9-1.1,1.4c3.9-2,7.8-3.9,11.7-5.9l0.1-0.1c0.4-0.2,0.9-0.5,1.6-0.5l6.4-0.1l0.1,0.7c0.9,4.5,0.1,8.9-2.3,13.2
			c-2.4,3.4-5.1,5.7-8.3,7C33.1,77.8,30.7,78.2,28.3,78.2z M14.1,52.6c-3.2,6.2-2.4,13.4,2.1,18.5c4.7,5.3,12,6.9,18.5,4.2
			c2.9-1.2,5.4-3.3,7.6-6.4c2.1-3.7,2.8-7.4,2.2-11.3l-5,0.1c-0.3,0-0.5,0.1-0.8,0.3L38.5,58c-4.5,2.3-9,4.5-13.4,6.8
			c-0.1,0-0.1,0.1-0.2,0.1c-0.2,0.1-0.4,0.3-0.7,0.3l-0.5,0.6L23,65.3c-0.5-0.4-0.4-0.9-0.2-1.2c0,0,0.1-0.1,0.1-0.1
			c0.9-1.4,2-2.7,3-3.9c0.6-0.7,1.1-1.4,1.7-2.1l-3.3,0.1c-1.8,0-3.1-0.6-4-1.9c-0.5-0.8-0.6-1.6-0.7-2.4l0-0.7
			C17.9,53.1,16.1,53,14.1,52.6z"/>
		<path class="st0" d="M18.1,53c-1.4,0-2.9-0.2-4.6-0.5l-0.1,0c-2.4-0.8-5.2-2-7.5-4.2c-5.3-5.1-7-11.2-5.1-18
			c1.8-6.7,6.5-11.1,13.5-12.7c3.5-0.8,7.2-0.5,11,1.1l0.1,0c1.6,0.9,3.3,1.8,4.7,3.2l1.3,1.3l-3.6,0.1c-1.3,0-2.6,0.1-3.8,0.1
			c-2.4,0.1-3.2,0.9-3.2,3.4l0.1,6.5c0.1,5.8,0.2,11.6,0.3,17.4c0,0.3,0,0.6,0,1l0,1.1l-0.7,0.1C19.7,52.9,18.9,53,18.1,53z
			 M13.8,50.9c2.2,0.5,4,0.6,5.7,0.4c0-0.2,0-0.4,0-0.6c-0.1-5.8-0.2-11.6-0.3-17.4l-0.1-6.5c-0.1-3.3,1.5-4.9,4.8-5
			c1.1,0,2.2-0.1,3.3-0.1c-0.8-0.6-1.7-1.1-2.6-1.6c-3.4-1.4-6.8-1.7-10-1C8.2,20.6,4,24.5,2.3,30.7C0.6,36.9,2.2,42.4,7,47.1
			C9,49,11.6,50.1,13.8,50.9z"/>
		<path class="st0" d="M71.7,51.7l-0.3-0.4c-0.3-0.3-0.5-0.6-0.8-0.9c-0.5-0.7-1.1-1.3-1.7-1.9c-1.2-1.4-2.8-2.5-4.7-3.4l-0.4-0.2
			l-0.1-0.9c0-0.3-0.1-0.6-0.1-1l-0.1-6.2c-0.1-3.7-0.1-7.4-0.2-11.2c0-2.1-1-2.9-3-2.9c0,0,0,0,0,0c-1.2,0-2.3,0-3.5,0l-3.5,0
			l1.3-1.4c0.9-1,2-1.6,3.1-2.3c0.3-0.2,0.7-0.4,1-0.6l0.1-0.1c4.3-1.8,8.4-2.2,12.5-1.2c6.9,1.8,12.4,8.1,13.2,15.1
			c0.8,7.4-2.9,14.7-9.4,18.1c-0.9,0.5-1.9,1-2.9,1.2L71.7,51.7z M65.4,43.7c1.9,1,3.4,2.2,4.7,3.6c0.6,0.7,1.2,1.3,1.7,2
			c0.1,0.2,0.3,0.3,0.4,0.5c0.7-0.2,1.4-0.6,2.1-0.9c5.8-3,9.3-9.6,8.5-16.4c-0.7-6.3-5.8-12.1-12-13.7c-3.7-0.9-7.4-0.6-11.4,1.1
			c-0.3,0.2-0.6,0.4-1,0.6c-0.3,0.2-0.7,0.4-1,0.6c0.9,0,1.8,0,2.7,0c0,0,0,0,0,0c3,0,4.6,1.6,4.7,4.6c0.1,3.7,0.2,7.4,0.2,11.2
			l0.1,6.2C65.3,43.2,65.3,43.5,65.4,43.7z"/>
		<g>
			<path class="st0" d="M23.3,65.3l-0.8-0.8l0.4-0.6c0.9-1.4,2-2.7,3-4c0.6-0.7,1.1-1.4,1.7-2.1l-3.3,0.1c-1.8,0-3.1-0.6-4-1.9
				c-0.5-0.8-0.6-1.6-0.7-2.4L19.5,52l0-0.5c0-0.3,0-0.6,0-0.8c-0.1-5.8-0.2-11.6-0.3-17.4l-0.1-6.5c-0.1-3.3,1.5-4.9,4.8-5
				c1.3,0,2.5-0.1,3.8-0.1l1.7-0.1l0.3,0c0.1,0,0.3,0,0.4,0c8-0.2,16-0.3,24-0.5c0.2,0,0.4,0,0.6-0.1l0.4,0l1.6,0c1.2,0,2.3,0,3.5,0
				c0,0,0,0,0,0c3,0,4.6,1.6,4.7,4.6c0.1,3.7,0.2,7.4,0.2,11.2l0.1,6.2c0,0.3,0,0.6,0.1,0.9l0,0.4l0,2.3c0,1.8,0,3.5,0.1,5.3
				c0.1,3.9-1.3,5.4-5.2,5.4l-13.9,0.3c-0.3,0-0.5,0-0.8,0.1l-0.4,0l-5.8,0.1c-0.3,0-0.5,0.1-0.8,0.3L38.5,58
				c-4.5,2.3-9,4.5-13.4,6.8c-0.1,0-0.1,0.1-0.2,0.1c-0.3,0.2-0.7,0.4-1.2,0.4L23.3,65.3z M31,56.2L29.5,58
				c-0.2,0.3-0.4,0.6-0.6,0.8c-0.6,0.7-1.2,1.5-1.7,2.2c-0.4,0.5-0.8,0.9-1.1,1.4c3.9-2,7.8-3.9,11.7-5.9l0.1-0.1
				c0.4-0.2,0.9-0.5,1.6-0.5l6-0.1c0.3,0,0.6,0,0.9-0.1l13.9-0.3c2.9-0.1,3.6-0.8,3.6-3.8c0-1.8,0-3.5-0.1-5.3l0-2.6
				c0-0.3-0.1-0.6-0.1-1l-0.1-6.2c-0.1-3.7-0.1-7.4-0.2-11.2c0-2.1-1-2.9-3-2.9c0,0,0,0,0,0c-1.2,0-2.3,0-3.5,0l-1.8,0
				c-0.3,0-0.5,0.1-0.8,0.1c-8,0.2-16,0.3-24,0.5c-0.2,0-0.4,0-0.6,0l-0.2,0l-1.6,0.1c-1.3,0-2.6,0.1-3.8,0.1
				c-2.4,0.1-3.2,0.9-3.2,3.4l0.1,6.5c0.1,5.8,0.2,11.6,0.3,17.4c0,0.3,0,0.6,0,1l0,0.4l0.1,1.5c0,0.6,0.1,1.2,0.4,1.6
				c0.6,0.9,1.4,1.3,2.6,1.2L31,56.2z"/>
		</g>
		<path class="st0" d="M23.6,65.9L23,65.3c-0.5-0.4-0.4-0.9-0.2-1.2c0,0,0.1-0.1,0.1-0.1l0.6-0.7l0.7,0.7l0.5,0.5L23.6,65.9z"/>
	</g>
</g>
</svg>
